<?xml version="1.0" encoding="UTF-8"?>
<svg width="35px" height="32px" viewBox="0 0 35 32" version="1.1" xmlns="http://www.w3.org/2000/svg" xmlns:xlink="http://www.w3.org/1999/xlink">
    <!-- Generator: Sketch 64 (93537) - https://sketch.com -->
    <title>icon-warning-red</title>
    <desc>Created with Sketch.</desc>
    <g id="Page-2" stroke="none" stroke-width="1" fill="none" fill-rule="evenodd">
        <g id="icon-warning-red" fill-rule="nonzero">
            <path d="M34.0875174,23.0540929 C34.6822832,23.9910643 35,25.0710069 35,26.1892453 C35,29.3754588 32.4328483,31.9719164 29.2658473,32 L29.2150126,32 L5.78276366,32 C3.72395883,32 1.80240766,30.8843147 0.773005253,29.0920696 C-0.256397159,27.3023775 -0.258938893,25.076113 0.773005253,23.2838679 L12.4878589,2.90282432 C13.5172613,1.11313228 15.4362707,0 17.4976173,0 C19.5538804,0 21.4754315,1.11313228 22.5048339,2.90537737 L34.0875174,23.0540929 Z" id="path-1-path" fill="#E33030"></path>
            <path d="M20.1190909,27.1167651 C20.6836364,26.5606542 21,25.7864607 21,24.9931849 C21,24.2080872 20.6836364,23.4311677 20.1190909,22.8750568 C19.5654545,22.3162199 18.7936364,22 18,22 C17.2090909,22 16.4318182,22.3162199 15.8754545,22.8750568 C15.3163636,23.4311677 15,24.2080872 15,24.9931849 C15,25.7864607 15.3163636,26.5606542 15.8754545,27.1167651 C16.4318182,27.675602 17.2090909,28 18,28 C18.7936364,28 19.5654545,27.675602 20.1190909,27.1167651 Z" id="path-1-path" fill="#FFFFFF"></path>
            <path d="M17.4998315,6 C15.4154664,6 14.8879563,7.72807473 15.0186668,8.76076803 L16.276755,19.6429683 C16.3281055,20.6782564 16.9489802,21 17.4998315,21 C17.9923298,21 18.6808938,20.6263622 18.7229079,19.6429683 L19.9809961,8.76076803 C20.1117066,7.7540218 19.5982012,6 17.4998315,6 Z" id="path-1-path" fill="#FFFFFF"></path>
        </g>
    </g>
</svg>