<?xml version="1.0" encoding="UTF-8"?>
<svg width="30px" height="30px" viewBox="0 0 30 30" version="1.1" xmlns="http://www.w3.org/2000/svg" xmlns:xlink="http://www.w3.org/1999/xlink">
    <title>icon/01 people/people-CHW-phone</title>
    <g id="icon/01-people/people-CHW-phone" stroke="none" stroke-width="1" fill="none" fill-rule="evenodd">
        <g id="Group-5" transform="translate(6.000000, 0.000000)" fill="#64A3C8">
            <path d="M17.97228,11.09991 L14.97228,11.09991 L14.97228,11.06481 L14.97228,8.10081 L14.97228,6.89991 L17.97228,6.89991 L17.97228,11.09991 Z M16.98948,11.77101 L16.19958,11.77101 C16.14768,11.77101 16.10568,11.70411 16.10568,11.62101 C16.10568,11.53851 16.14768,11.47101 16.19958,11.47101 L16.98948,11.47101 C17.04138,11.47101 17.08338,11.53851 17.08338,11.62101 C17.08338,11.70411 17.04138,11.77101 16.98948,11.77101 L16.98948,11.77101 Z M9.21678,11.18361 L7.97118,11.18361 L7.97118,12.39411 L6.71568,12.39411 L6.71568,11.17371 L5.46978,11.17371 L5.46978,9.95331 L6.71568,9.95331 L6.71568,8.75301 L7.97118,8.75301 L7.97118,9.95331 L9.20928,9.95331 L9.21678,9.98391 L9.21678,11.18361 Z M17.97528,5.75001 C17.90718,5.71851 17.83278,5.69991 17.75418,5.69991 L17.57028,5.69991 L15.19038,5.69991 C14.88708,5.69991 14.63898,5.96391 14.63898,6.28671 L14.63898,6.43101 L14.63898,8.29431 L14.54238,8.35041 L12.03408,9.80841 L11.20818,8.15271 C11.12088,7.87551 10.99248,7.61631 10.83228,7.37991 C10.64178,7.09971 10.40568,6.85191 10.12908,6.65211 C9.36078,6.22671 8.49108,6.02901 7.61808,6.08211 L7.08828,6.08211 C6.21558,6.02901 5.34558,6.22671 4.57728,6.65211 C4.06758,7.01331 3.68568,7.53261 3.48828,8.13261 L0.54558,15.13491 C0.39828,15.50541 0.24138,15.88521 0.08478,16.25571 C-0.03282,16.54791 -0.02772,16.87701 0.09798,17.16591 C0.22398,17.45481 0.46008,17.67861 0.75168,17.78601 C0.88908,17.85411 1.04028,17.88801 1.19298,17.88591 C1.62438,17.86341 2.00538,17.59161 2.17398,17.18571 L4.62618,11.34351 L1.68348,25.95861 L4.40058,25.95861 L4.51818,28.95951 C4.51818,29.53401 4.97508,29.99991 5.53848,29.99991 C6.10188,29.99991 6.55878,29.53401 6.55878,28.95951 L6.71568,25.95861 L7.93188,25.95861 L8.08878,28.95951 C8.08878,29.53401 8.54568,29.99991 9.10908,29.99991 C9.67248,29.99991 10.12908,29.53401 10.12908,28.95951 L10.28598,25.95861 L13.04238,25.95861 L10.84608,15.05061 L10.09968,11.34351 L10.79028,12.55161 C10.96608,12.97341 11.37078,13.24851 11.82018,13.25181 C11.97288,13.25391 12.12408,13.21941 12.26178,13.15191 C12.42198,13.07931 12.55428,12.97131 12.66108,12.84411 L14.54238,11.39571 L14.63898,11.32131 L14.63898,11.71341 C14.63898,12.03591 14.88708,12.29991 15.19038,12.29991 L17.75418,12.29991 C18.05748,12.29991 18.30558,12.03591 18.30558,11.71341 L18.30558,7.07601 L18.30558,6.28671 C18.30558,6.04761 18.16908,5.84121 17.97528,5.75001 L17.97528,5.75001 Z" id="Fill-1"></path>
            <path d="M7.34337,5.41176 C8.04747,5.40636 8.72067,5.11566 9.21387,4.60296 C9.70707,4.09056 9.98007,3.39906 9.97227,2.68086 C9.97227,1.72326 9.47127,0.83796 8.65767,0.35916 C7.84437,-0.11964 6.84237,-0.11964 6.02907,0.35916 C5.21547,0.83796 4.71447,1.72326 4.71447,2.68086 C4.70667,3.39906 4.97967,4.09056 5.47287,4.60296 C5.96607,5.11566 6.63927,5.40636 7.34337,5.41176" id="Fill-3"></path>
        </g>
    </g>
</svg>