<svg width="26" height="29" viewBox="0 0 26 29" fill="none" xmlns="http://www.w3.org/2000/svg">
<path fill-rule="evenodd" clip-rule="evenodd" d="M5.998 14.5193C5.998 16.1753 4.655 17.5193 3 17.5193C1.344 17.5193 0 16.1753 0 14.5193V14.5023C0.01 12.8533 1.35 11.5203 3 11.5203C4.655 11.5203 5.998 12.8633 5.998 14.5193ZM19.2705 14.5193C19.2705 16.1753 20.6135 17.5193 22.2695 17.5193C23.9245 17.5193 25.2685 16.1753 25.2685 14.5193V14.5023C25.2585 12.8533 23.9185 11.5203 22.2695 11.5203C20.6135 11.5203 19.2705 12.8633 19.2705 14.5193ZM7.873 28.5222H2.813C1.557 28.5222 0.537 27.5022 0.537 26.2462V20.8392C0.537 19.5832 1.557 18.5632 2.813 18.5632C4.07 18.5632 5.09 19.5832 5.09 20.8392V23.9692H7.873C9.13 23.9692 10.149 24.9892 10.149 26.2462C10.149 27.5022 9.13 28.5222 7.873 28.5222ZM17.3951 28.5222H22.4551C23.7121 28.5222 24.7311 27.5022 24.7311 26.2462V20.8392C24.7311 19.5832 23.7121 18.5632 22.4551 18.5632C21.1981 18.5632 20.1791 19.5832 20.1791 20.8392V23.9692H17.3951C16.1391 23.9692 15.1191 24.9892 15.1191 26.2462C15.1191 27.5022 16.1391 28.5222 17.3951 28.5222Z" fill="#64A3C8"/>
<mask id="mask0_71_4900" style="mask-type:luminance" maskUnits="userSpaceOnUse" x="6" y="0" width="15" height="15">
<path fill-rule="evenodd" clip-rule="evenodd" d="M6.00024 2.38286V8.98125C6.00024 10.2973 7.05007 11.3641 8.34528 11.3641H10.573L10.5098 13.8293C10.4739 14.1015 10.6093 14.3675 10.8489 14.4945C10.9491 14.5484 11.0605 14.5761 11.1737 14.5752C11.3839 14.5733 11.5848 14.487 11.733 14.3353L14.7 11.3641H18.0859C19.3811 11.3641 20.4309 10.2973 20.4309 8.98125V2.38286C20.4309 1.06676 19.3811 0 18.0859 0H8.34528C7.05007 0 6.00024 1.06676 6.00024 2.38286Z" fill="white"/>
</mask>
<g mask="url(#mask0_71_4900)">
<rect x="3.34869" y="-2.65198" width="19.8875" height="19.8875" fill="#64A3C8"/>
</g>
<path fill-rule="evenodd" clip-rule="evenodd" d="M22.3941 26.1629L23.0585 24.3871C23.2155 23.9676 23.0425 23.5123 22.6754 23.375L19.6685 22.25C19.3013 22.1127 18.8721 22.3426 18.7151 22.7621L18.0507 24.538C17.894 24.9568 18.0669 25.4121 18.4341 25.5494L21.441 26.6744C21.8081 26.8117 22.2374 26.5818 22.3941 26.1629Z" fill="white" stroke="#64A3C8"/>
<path fill-rule="evenodd" clip-rule="evenodd" d="M21.1884 24.9743L20.7055 24.7937L20.5033 25.3342L20.0209 25.1537L20.2231 24.6132L19.7406 24.4327L19.9433 23.8908L20.4258 24.0713L20.6219 23.5471L21.1044 23.7276L20.9083 24.2518L21.3911 24.4325L21.1884 24.9743Z" fill="#64A3C8"/>
<path fill-rule="evenodd" clip-rule="evenodd" d="M7.084 22.4549L5.84021 21.97C5.72329 21.9244 5.65502 21.8194 5.68774 21.7355L5.78677 21.4815C5.81943 21.3977 5.94073 21.3667 6.05765 21.4123L7.30143 21.8973C7.41816 21.9428 7.48662 22.0478 7.45396 22.1316L7.35493 22.3855C7.32227 22.4693 7.20072 22.5004 7.084 22.4549ZM7.64631 22.4993L7.65078 22.4878L7.79489 22.544C8.16352 22.6877 8.11962 22.9236 8.01431 23.1931L7.01796 25.7485C6.91278 26.0182 6.78569 26.2215 6.41706 26.0777L3.87893 25.0883C3.5101 24.9445 3.55414 24.7088 3.65938 24.4389L4.65573 21.8836C4.76085 21.614 4.888 21.4106 5.25682 21.5544L5.40093 21.6106L5.39646 21.622C5.31245 21.8375 5.46978 22.1008 5.74712 22.209L6.99091 22.6939C7.26826 22.8021 7.5623 22.7147 7.64631 22.4993Z" fill="white"/>
<path d="M5.84021 21.97L5.66747 22.413L5.84021 21.97ZM7.084 22.4549L7.25674 22.0119L7.084 22.4549ZM7.45396 22.1316L7.89699 22.3043L7.45396 22.1316ZM7.35493 22.3855L6.91191 22.2128L7.35493 22.3855ZM7.65078 22.4878L7.82352 22.0448L7.3805 21.872L7.20776 22.3151L7.65078 22.4878ZM8.01431 23.1931L7.57141 23.0201L7.57128 23.0204L8.01431 23.1931ZM6.41706 26.0777L6.5898 25.6347L6.58977 25.6347L6.41706 26.0777ZM3.87893 25.0883L3.70619 25.5313L3.70622 25.5313L3.87893 25.0883ZM3.65938 24.4389L3.21636 24.2662L3.65938 24.4389ZM4.65573 21.8836L5.09876 22.0563L4.65573 21.8836ZM5.40093 21.6106L5.84396 21.7833L6.0167 21.3403L5.57367 21.1675L5.40093 21.6106ZM5.74712 22.209L5.91986 21.7659L5.74712 22.209ZM6.99091 22.6939L6.81817 23.1369L6.99091 22.6939ZM5.66747 22.413L6.91126 22.8979L7.25674 22.0119L6.01295 21.5269L5.66747 22.413ZM5.24472 21.5628C5.15846 21.784 5.22207 21.9923 5.30923 22.1263C5.39691 22.2612 5.5269 22.3582 5.66747 22.413L6.01295 21.5269C6.0366 21.5362 6.07399 21.5579 6.10648 21.6079C6.13846 21.657 6.18431 21.7709 6.13077 21.9082L5.24472 21.5628ZM5.34375 21.3088L5.24472 21.5628L6.13077 21.9082L6.2298 21.6542L5.34375 21.3088ZM6.23039 20.9693C6.08981 20.9145 5.92853 20.8979 5.77284 20.9377C5.61819 20.9772 5.43009 21.0873 5.34375 21.3088L6.2298 21.6542C6.17612 21.7919 6.06499 21.8446 6.00838 21.8591C5.95073 21.8738 5.90856 21.8645 5.88491 21.8553L6.23039 20.9693ZM7.47417 21.4542L6.23039 20.9693L5.88491 21.8553L7.12869 22.3403L7.47417 21.4542ZM7.89699 22.3043C7.98345 22.0825 7.91912 21.8741 7.83218 21.7406C7.74458 21.6061 7.61477 21.5091 7.47417 21.4542L7.12869 22.3403C7.10482 22.331 7.06761 22.3092 7.03526 22.2596C7.00356 22.2109 6.95713 22.0968 7.01094 21.9588L7.89699 22.3043ZM7.79795 22.5583L7.89699 22.3043L7.01094 21.9588L6.91191 22.2128L7.79795 22.5583ZM6.91126 22.8979C7.05208 22.9529 7.21343 22.9692 7.36894 22.9294C7.52321 22.8899 7.71154 22.7799 7.79795 22.5583L6.91191 22.2128C6.96566 22.0749 7.07689 22.0224 7.13304 22.0081C7.19043 21.9934 7.23263 22.0025 7.25674 22.0119L6.91126 22.8979ZM7.20776 22.3151L7.20329 22.3265L8.08933 22.672L8.0938 22.6605L7.20776 22.3151ZM7.96763 22.101L7.82352 22.0448L7.47804 22.9308L7.62215 22.987L7.96763 22.101ZM8.45721 23.3662C8.50816 23.2358 8.60055 22.9901 8.54875 22.7289C8.48443 22.4045 8.24317 22.2084 7.96763 22.101L7.62215 22.987C7.67294 23.0068 7.67581 23.0171 7.66161 23.0027C7.65379 22.9948 7.64345 22.9821 7.63407 22.9644C7.62468 22.9467 7.61893 22.9291 7.6159 22.9139C7.61028 22.8856 7.6161 22.876 7.61107 22.8998C7.60877 22.9107 7.60475 22.926 7.59796 22.9469C7.59119 22.9678 7.58248 22.9917 7.57141 23.0201L8.45721 23.3662ZM7.46098 25.9212L8.45733 23.3658L7.57128 23.0204L6.57493 25.5757L7.46098 25.9212ZM6.24432 26.5207C6.51977 26.6281 6.83012 26.6472 7.09704 26.4519C7.31186 26.2948 7.41021 26.0514 7.46098 25.9212L6.57493 25.5757C6.56385 25.6041 6.55402 25.6277 6.54484 25.6477C6.53565 25.6677 6.52823 25.6818 6.52254 25.6914C6.51008 25.7124 6.51224 25.7014 6.53556 25.6844C6.54812 25.6752 6.56429 25.6661 6.58321 25.6594C6.60209 25.6528 6.61835 25.6504 6.62948 25.6499C6.64967 25.6489 6.64063 25.6545 6.5898 25.6347L6.24432 26.5207ZM3.70622 25.5313L6.24435 26.5208L6.58977 25.6347L4.05164 24.6452L3.70622 25.5313ZM3.21636 24.2662C3.16556 24.3964 3.07316 24.6422 3.12495 24.9034C3.1893 25.2279 3.43073 25.4239 3.70619 25.5313L4.05167 24.6452C4.00076 24.6254 3.99785 24.6151 4.01204 24.6294C4.01986 24.6373 4.03022 24.6501 4.03961 24.6678C4.04901 24.6855 4.05478 24.7031 4.0578 24.7184C4.06343 24.7467 4.0576 24.7563 4.06265 24.7323C4.06496 24.7214 4.06899 24.7061 4.0758 24.6851C4.08259 24.6641 4.09131 24.6401 4.1024 24.6117L3.21636 24.2662ZM4.21271 21.7108L3.21636 24.2662L4.1024 24.6117L5.09876 22.0563L4.21271 21.7108ZM5.42956 21.1114C5.15399 21.0039 4.84361 20.9849 4.57668 21.1801C4.36182 21.3373 4.26347 21.5807 4.21271 21.7108L5.09876 22.0563C5.10983 22.0279 5.11966 22.0044 5.12882 21.9844C5.138 21.9644 5.14543 21.9503 5.15111 21.9408C5.16356 21.9198 5.1614 21.9307 5.13809 21.9478C5.12554 21.9569 5.10939 21.966 5.09049 21.9727C5.07163 21.9793 5.05539 21.9817 5.04429 21.9822C5.02413 21.9832 5.03322 21.9776 5.08408 21.9974L5.42956 21.1114ZM5.57367 21.1675L5.42956 21.1114L5.08408 21.9974L5.22819 22.0536L5.57367 21.1675ZM5.83949 21.7948L5.84396 21.7833L4.95791 21.4378L4.95344 21.4493L5.83949 21.7948ZM5.91986 21.7659C5.87185 21.7472 5.84967 21.7205 5.84449 21.7118C5.84238 21.7083 5.84649 21.7136 5.84846 21.7289C5.85058 21.7455 5.84939 21.7694 5.83949 21.7948L4.95344 21.4493C4.73598 22.007 5.16297 22.4916 5.57438 22.652L5.91986 21.7659ZM7.16365 22.2509L5.91986 21.7659L5.57438 22.652L6.81817 23.1369L7.16365 22.2509ZM7.20329 22.3265C7.21319 22.3011 7.22846 22.2828 7.24125 22.272C7.25304 22.2621 7.25968 22.2609 7.25574 22.2621C7.24605 22.265 7.21167 22.2696 7.16365 22.2509L6.81817 23.1369C7.22959 23.2974 7.87188 23.2297 8.08933 22.672L7.20329 22.3265Z" fill="#64A3C8"/>
</svg>
