<svg width="30" height="30" viewBox="0 0 30 30" fill="none" xmlns="http://www.w3.org/2000/svg">
<path fill-rule="evenodd" clip-rule="evenodd" d="M10.0003 17.1827C11.8461 17.1827 13.341 15.5768 13.341 13.5931C13.341 11.61 11.8461 10 10.0003 10C8.15376 10 6.6591 11.61 6.6591 13.5931C6.6591 15.5768 8.15376 17.1827 10.0003 17.1827ZM15.4679 21.2144L15.4579 21.1681V21.1537C14.5754 19.213 13.6924 18.0443 10.3455 18.0443H10.3356H10.0098L9.99021 18.1903V18.0443H9.66439H9.65482C6.30788 18.0443 5.42467 19.213 4.54242 21.1537V21.1681L4.53238 21.2144C4.04149 22.3417 3.26522 25.7438 2.66669 28.5714H5.26583L6.50858 23.8227L6.26888 28.5714H13.7309L13.4915 23.8227L14.7342 28.5714H17.3334C16.7348 25.7438 15.9583 22.3417 15.4679 21.2144ZM10.8938 23.9268H12.6831V22.1224H10.8938V20.3185H9.10653V22.1224H7.31691V23.9268H9.10653V25.7305H10.8938V23.9268Z" fill="#63A2C7"/>
<mask id="mask0_71_4902" style="mask-type:luminance" maskUnits="userSpaceOnUse" x="2" y="10" width="16" height="19">
<path fill-rule="evenodd" clip-rule="evenodd" d="M10.0003 17.1827C11.8461 17.1827 13.341 15.5768 13.341 13.5931C13.341 11.61 11.8461 10 10.0003 10C8.15376 10 6.6591 11.61 6.6591 13.5931C6.6591 15.5768 8.15376 17.1827 10.0003 17.1827ZM15.4679 21.2144L15.4579 21.1681V21.1537C14.5754 19.213 13.6924 18.0443 10.3455 18.0443H10.3356H10.0098L9.99021 18.1903V18.0443H9.66439H9.65482C6.30788 18.0443 5.42467 19.213 4.54242 21.1537V21.1681L4.53238 21.2144C4.04149 22.3417 3.26522 25.7438 2.66669 28.5714H5.26583L6.50858 23.8227L6.26888 28.5714H13.7309L13.4915 23.8227L14.7342 28.5714H17.3334C16.7348 25.7438 15.9583 22.3417 15.4679 21.2144ZM10.8938 23.9268H12.6831V22.1224H10.8938V20.3185H9.10653V22.1224H7.31691V23.9268H9.10653V25.7305H10.8938V23.9268Z" fill="white"/>
</mask>
<g mask="url(#mask0_71_4902)">
<rect y="8.57141" width="20" height="21.4286" fill="#64A3C8"/>
</g>
<path fill-rule="evenodd" clip-rule="evenodd" d="M10.0003 17.1827C11.8461 17.1827 13.341 15.5768 13.341 13.5931C13.341 11.61 11.8461 10 10.0003 10C8.15376 10 6.6591 11.61 6.6591 13.5931C6.6591 15.5768 8.15376 17.1827 10.0003 17.1827ZM15.4679 21.2144L15.4579 21.1681V21.1537C14.5754 19.213 13.6924 18.0443 10.3455 18.0443H10.3356H10.0098L9.99021 18.1903V18.0443H9.66439H9.65482C6.30788 18.0443 5.42467 19.213 4.54242 21.1537V21.1681L4.53238 21.2144C4.04149 22.3417 3.26522 25.7438 2.66669 28.5714H5.26583L6.50858 23.8227L6.26888 28.5714H13.7309L13.4915 23.8227L14.7342 28.5714H17.3334C16.7348 25.7438 15.9583 22.3417 15.4679 21.2144ZM10.8938 23.9268H12.6831V22.1224H10.8938V20.3185H9.10653V22.1224H7.31691V23.9268H9.10653V25.7305H10.8938V23.9268Z" fill="#63A2C7"/>
<mask id="mask1_71_4902" style="mask-type:luminance" maskUnits="userSpaceOnUse" x="2" y="10" width="16" height="19">
<path fill-rule="evenodd" clip-rule="evenodd" d="M10.0003 17.1827C11.8461 17.1827 13.341 15.5768 13.341 13.5931C13.341 11.61 11.8461 10 10.0003 10C8.15376 10 6.6591 11.61 6.6591 13.5931C6.6591 15.5768 8.15376 17.1827 10.0003 17.1827ZM15.4679 21.2144L15.4579 21.1681V21.1537C14.5754 19.213 13.6924 18.0443 10.3455 18.0443H10.3356H10.0098L9.99021 18.1903V18.0443H9.66439H9.65482C6.30788 18.0443 5.42467 19.213 4.54242 21.1537V21.1681L4.53238 21.2144C4.04149 22.3417 3.26522 25.7438 2.66669 28.5714H5.26583L6.50858 23.8227L6.26888 28.5714H13.7309L13.4915 23.8227L14.7342 28.5714H17.3334C16.7348 25.7438 15.9583 22.3417 15.4679 21.2144ZM10.8938 23.9268H12.6831V22.1224H10.8938V20.3185H9.10653V22.1224H7.31691V23.9268H9.10653V25.7305H10.8938V23.9268Z" fill="white"/>
</mask>
<g mask="url(#mask1_71_4902)">
<rect y="8.57141" width="20" height="21.4286" fill="#64A3C8"/>
</g>
<path fill-rule="evenodd" clip-rule="evenodd" d="M23.165 4.44554C23.165 6.50561 21.6014 8.173 19.6709 8.173C17.7393 8.173 16.176 6.50561 16.176 4.44554C16.176 2.38624 17.7393 0.714233 19.6709 0.714233C21.6014 0.714233 23.165 2.38624 23.165 4.44554ZM27.3093 15.5207C27.3184 15.5772 27.3256 15.6344 27.3297 15.6913C27.3369 15.7998 27.3333 15.9167 27.3189 16.027C27.3163 16.0491 27.3119 16.0742 27.3067 16.1009C27.2963 16.1545 27.2819 16.215 27.2644 16.2733C27.2557 16.302 27.2461 16.3305 27.236 16.3569L27.2246 16.385C27.1833 16.4874 27.1534 16.5614 27.0404 16.7213C27.013 16.7588 26.9834 16.7949 26.9522 16.8298C26.8582 16.934 26.7488 17.0245 26.6381 17.0912L26.615 17.1048L26.4311 17.2043C26.3674 17.2379 26.3009 17.2715 26.2333 17.3035C26.1656 17.3356 26.0971 17.3664 26.0293 17.3946C25.8933 17.4521 25.7584 17.5028 25.6258 17.548C25.4934 17.5931 25.3629 17.6329 25.2352 17.6678C24.9798 17.7383 24.732 17.7945 24.4888 17.8419C24.2456 17.8896 24.0072 17.9289 23.7697 17.9653C23.7409 17.9689 23.7123 17.9722 23.6838 17.9754L23.6834 17.9755C23.6543 17.9787 23.6253 17.982 23.596 17.9858C23.5684 17.9889 23.5406 17.9922 23.5129 17.9955L23.4712 18.0004L23.5729 19.9999H15.7679L16.0186 15.0686L14.7186 19.9999H12C12.6261 17.0635 13.4379 13.5307 13.9512 12.3601L13.9618 12.3121V12.2968C14.8847 10.2816 15.8088 9.06789 19.3094 9.06789H19.3195H19.6603V9.21973L19.6807 9.06789H20.0218H20.0318C21.289 9.06789 22.6827 9.18459 23.7454 9.9802C24.6344 10.6457 25.2959 11.7782 25.9036 12.8186C26.0718 13.1066 26.236 13.3876 26.3996 13.6497C26.465 13.7551 26.5304 13.861 26.5953 13.969C26.6606 14.077 26.7255 14.1873 26.7911 14.3012C26.8565 14.4156 26.9221 14.5328 26.9904 14.6638L27.0195 14.7221L27.0195 14.7222C27.0356 14.7542 27.0517 14.7862 27.068 14.8203C27.0769 14.8382 27.0858 14.857 27.0952 14.877C27.1319 14.956 27.1718 15.0501 27.2199 15.1809L27.2603 15.3071L27.285 15.4015L27.2904 15.425L27.2904 15.425C27.2942 15.441 27.2975 15.4554 27.3019 15.4789C27.304 15.4905 27.3064 15.5041 27.3093 15.5207ZM23.538 15.2312L23.4802 15.2436L23.48 15.2436C23.4415 15.252 23.4031 15.2603 23.3643 15.2681C23.3539 15.2704 23.3431 15.2722 23.3328 15.274L23.2669 13.9718C23.2875 14.0011 23.3082 14.0302 23.329 14.0594L23.329 14.0595C23.3526 14.0925 23.3761 14.1256 23.3994 14.1588C23.6219 14.4748 23.8401 14.7944 24.0504 15.1132C23.8841 15.1558 23.712 15.1942 23.538 15.2312ZM20.8007 15.6875C21.3424 15.6092 21.8807 15.531 22.4102 15.4433V12.8946C22.4102 12.3834 22.0485 11.961 21.5832 11.9028V11.8954H21.4734H20.9237H20.9184V11.6181C20.9184 11.4347 20.7793 11.2865 20.6079 11.2865H18.7824C18.611 11.2865 18.4719 11.4347 18.4719 11.6181V11.8954H18.4666H17.9845H17.9169C17.4005 11.8954 16.9801 12.3437 16.9801 12.8946V18.1153C16.9801 18.6662 17.4005 19.1146 17.9169 19.1146L21.4734 19.1141C21.9901 19.1141 22.4102 18.666 22.4102 18.1148V18.1092C21.9336 18.1484 21.4609 18.1753 20.9893 18.19C20.339 18.21 19.7966 17.6639 19.7778 16.9699C19.7603 16.3228 20.2044 15.7757 20.7915 15.6887L20.8007 15.6875Z" fill="#231F20"/>
<mask id="mask2_71_4902" style="mask-type:luminance" maskUnits="userSpaceOnUse" x="12" y="0" width="16" height="20">
<path fill-rule="evenodd" clip-rule="evenodd" d="M23.165 4.44554C23.165 6.50561 21.6014 8.173 19.6709 8.173C17.7393 8.173 16.176 6.50561 16.176 4.44554C16.176 2.38624 17.7393 0.714233 19.6709 0.714233C21.6014 0.714233 23.165 2.38624 23.165 4.44554ZM27.3093 15.5207C27.3184 15.5772 27.3256 15.6344 27.3297 15.6913C27.3369 15.7998 27.3333 15.9167 27.3189 16.027C27.3163 16.0491 27.3119 16.0742 27.3067 16.1009C27.2963 16.1545 27.2819 16.215 27.2644 16.2733C27.2557 16.302 27.2461 16.3305 27.236 16.3569L27.2246 16.385C27.1833 16.4874 27.1534 16.5614 27.0404 16.7213C27.013 16.7588 26.9834 16.7949 26.9522 16.8298C26.8582 16.934 26.7488 17.0245 26.6381 17.0912L26.615 17.1048L26.4311 17.2043C26.3674 17.2379 26.3009 17.2715 26.2333 17.3035C26.1656 17.3356 26.0971 17.3664 26.0293 17.3946C25.8933 17.4521 25.7584 17.5028 25.6258 17.548C25.4934 17.5931 25.3629 17.6329 25.2352 17.6678C24.9798 17.7383 24.732 17.7945 24.4888 17.8419C24.2456 17.8896 24.0072 17.9289 23.7697 17.9653C23.7409 17.9689 23.7123 17.9722 23.6838 17.9754L23.6834 17.9755C23.6543 17.9787 23.6253 17.982 23.596 17.9858C23.5684 17.9889 23.5406 17.9922 23.5129 17.9955L23.4712 18.0004L23.5729 19.9999H15.7679L16.0186 15.0686L14.7186 19.9999H12C12.6261 17.0635 13.4379 13.5307 13.9512 12.3601L13.9618 12.3121V12.2968C14.8847 10.2816 15.8088 9.06789 19.3094 9.06789H19.3195H19.6603V9.21973L19.6807 9.06789H20.0218H20.0318C21.289 9.06789 22.6827 9.18459 23.7454 9.9802C24.6344 10.6457 25.2959 11.7782 25.9036 12.8186C26.0718 13.1066 26.236 13.3876 26.3996 13.6497C26.465 13.7551 26.5304 13.861 26.5953 13.969C26.6606 14.077 26.7255 14.1873 26.7911 14.3012C26.8565 14.4156 26.9221 14.5328 26.9904 14.6638L27.0195 14.7221L27.0195 14.7222C27.0356 14.7542 27.0517 14.7862 27.068 14.8203C27.0769 14.8382 27.0858 14.857 27.0952 14.877C27.1319 14.956 27.1718 15.0501 27.2199 15.1809L27.2603 15.3071L27.285 15.4015L27.2904 15.425L27.2904 15.425C27.2942 15.441 27.2975 15.4554 27.3019 15.4789C27.304 15.4905 27.3064 15.5041 27.3093 15.5207ZM23.538 15.2312L23.4802 15.2436L23.48 15.2436C23.4415 15.252 23.4031 15.2603 23.3643 15.2681C23.3539 15.2704 23.3431 15.2722 23.3328 15.274L23.2669 13.9718C23.2875 14.0011 23.3082 14.0302 23.329 14.0594L23.329 14.0595C23.3526 14.0925 23.3761 14.1256 23.3994 14.1588C23.6219 14.4748 23.8401 14.7944 24.0504 15.1132C23.8841 15.1558 23.712 15.1942 23.538 15.2312ZM20.8007 15.6875C21.3424 15.6092 21.8807 15.531 22.4102 15.4433V12.8946C22.4102 12.3834 22.0485 11.961 21.5832 11.9028V11.8954H21.4734H20.9237H20.9184V11.6181C20.9184 11.4347 20.7793 11.2865 20.6079 11.2865H18.7824C18.611 11.2865 18.4719 11.4347 18.4719 11.6181V11.8954H18.4666H17.9845H17.9169C17.4005 11.8954 16.9801 12.3437 16.9801 12.8946V18.1153C16.9801 18.6662 17.4005 19.1146 17.9169 19.1146L21.4734 19.1141C21.9901 19.1141 22.4102 18.666 22.4102 18.1148V18.1092C21.9336 18.1484 21.4609 18.1753 20.9893 18.19C20.339 18.21 19.7966 17.6639 19.7778 16.9699C19.7603 16.3228 20.2044 15.7757 20.7915 15.6887L20.8007 15.6875Z" fill="white"/>
</mask>
<g mask="url(#mask2_71_4902)">
<rect x="10" width="20" height="21.4286" fill="#64A3C8"/>
</g>
<path fill-rule="evenodd" clip-rule="evenodd" d="M23.165 4.44554C23.165 6.50561 21.6014 8.173 19.6709 8.173C17.7393 8.173 16.176 6.50561 16.176 4.44554C16.176 2.38624 17.7393 0.714233 19.6709 0.714233C21.6014 0.714233 23.165 2.38624 23.165 4.44554ZM27.3093 15.5207C27.3184 15.5772 27.3256 15.6344 27.3297 15.6913C27.3369 15.7998 27.3333 15.9167 27.3189 16.027C27.3163 16.0491 27.3119 16.0742 27.3067 16.1009C27.2963 16.1545 27.2819 16.215 27.2644 16.2733C27.2557 16.302 27.2461 16.3305 27.236 16.3569L27.2246 16.385C27.1833 16.4874 27.1534 16.5614 27.0404 16.7213C27.013 16.7588 26.9834 16.7949 26.9522 16.8298C26.8582 16.934 26.7488 17.0245 26.6381 17.0912L26.615 17.1048L26.4311 17.2043C26.3674 17.2379 26.3009 17.2715 26.2333 17.3035C26.1656 17.3356 26.0971 17.3664 26.0293 17.3946C25.8933 17.4521 25.7584 17.5028 25.6258 17.548C25.4934 17.5931 25.3629 17.6329 25.2352 17.6678C24.9798 17.7383 24.732 17.7945 24.4888 17.8419C24.2456 17.8896 24.0072 17.9289 23.7697 17.9653C23.7409 17.9689 23.7123 17.9722 23.6838 17.9754L23.6834 17.9755C23.6543 17.9787 23.6253 17.982 23.596 17.9858C23.5684 17.9889 23.5406 17.9922 23.5129 17.9955L23.4712 18.0004L23.5729 19.9999H15.7679L16.0186 15.0686L14.7186 19.9999H12C12.6261 17.0635 13.4379 13.5307 13.9512 12.3601L13.9618 12.3121V12.2968C14.8847 10.2816 15.8088 9.06789 19.3094 9.06789H19.3195H19.6603V9.21973L19.6807 9.06789H20.0218H20.0318C21.289 9.06789 22.6827 9.18459 23.7454 9.9802C24.6344 10.6457 25.2959 11.7782 25.9036 12.8186C26.0718 13.1066 26.236 13.3876 26.3996 13.6497C26.465 13.7551 26.5304 13.861 26.5953 13.969C26.6606 14.077 26.7255 14.1873 26.7911 14.3012C26.8565 14.4156 26.9221 14.5328 26.9904 14.6638L27.0195 14.7221L27.0195 14.7222C27.0356 14.7542 27.0517 14.7862 27.068 14.8203C27.0769 14.8382 27.0858 14.857 27.0952 14.877C27.1319 14.956 27.1718 15.0501 27.2199 15.1809L27.2603 15.3071L27.285 15.4015L27.2904 15.425L27.2904 15.425C27.2942 15.441 27.2975 15.4554 27.3019 15.4789C27.304 15.4905 27.3064 15.5041 27.3093 15.5207ZM23.538 15.2312L23.4802 15.2436L23.48 15.2436C23.4415 15.252 23.4031 15.2603 23.3643 15.2681C23.3539 15.2704 23.3431 15.2722 23.3328 15.274L23.2669 13.9718C23.2875 14.0011 23.3082 14.0302 23.329 14.0594L23.329 14.0595C23.3526 14.0925 23.3761 14.1256 23.3994 14.1588C23.6219 14.4748 23.8401 14.7944 24.0504 15.1132C23.8841 15.1558 23.712 15.1942 23.538 15.2312ZM20.8007 15.6875C21.3424 15.6092 21.8807 15.531 22.4102 15.4433V12.8946C22.4102 12.3834 22.0485 11.961 21.5832 11.9028V11.8954H21.4734H20.9237H20.9184V11.6181C20.9184 11.4347 20.7793 11.2865 20.6079 11.2865H18.7824C18.611 11.2865 18.4719 11.4347 18.4719 11.6181V11.8954H18.4666H17.9845H17.9169C17.4005 11.8954 16.9801 12.3437 16.9801 12.8946V18.1153C16.9801 18.6662 17.4005 19.1146 17.9169 19.1146L21.4734 19.1141C21.9901 19.1141 22.4102 18.666 22.4102 18.1148V18.1092C21.9336 18.1484 21.4609 18.1753 20.9893 18.19C20.339 18.21 19.7966 17.6639 19.7778 16.9699C19.7603 16.3228 20.2044 15.7757 20.7915 15.6887L20.8007 15.6875Z" fill="#231F20"/>
<mask id="mask3_71_4902" style="mask-type:luminance" maskUnits="userSpaceOnUse" x="12" y="0" width="16" height="20">
<path fill-rule="evenodd" clip-rule="evenodd" d="M23.165 4.44554C23.165 6.50561 21.6014 8.173 19.6709 8.173C17.7393 8.173 16.176 6.50561 16.176 4.44554C16.176 2.38624 17.7393 0.714233 19.6709 0.714233C21.6014 0.714233 23.165 2.38624 23.165 4.44554ZM27.3093 15.5207C27.3184 15.5772 27.3256 15.6344 27.3297 15.6913C27.3369 15.7998 27.3333 15.9167 27.3189 16.027C27.3163 16.0491 27.3119 16.0742 27.3067 16.1009C27.2963 16.1545 27.2819 16.215 27.2644 16.2733C27.2557 16.302 27.2461 16.3305 27.236 16.3569L27.2246 16.385C27.1833 16.4874 27.1534 16.5614 27.0404 16.7213C27.013 16.7588 26.9834 16.7949 26.9522 16.8298C26.8582 16.934 26.7488 17.0245 26.6381 17.0912L26.615 17.1048L26.4311 17.2043C26.3674 17.2379 26.3009 17.2715 26.2333 17.3035C26.1656 17.3356 26.0971 17.3664 26.0293 17.3946C25.8933 17.4521 25.7584 17.5028 25.6258 17.548C25.4934 17.5931 25.3629 17.6329 25.2352 17.6678C24.9798 17.7383 24.732 17.7945 24.4888 17.8419C24.2456 17.8896 24.0072 17.9289 23.7697 17.9653C23.7409 17.9689 23.7123 17.9722 23.6838 17.9754L23.6834 17.9755C23.6543 17.9787 23.6253 17.982 23.596 17.9858C23.5684 17.9889 23.5406 17.9922 23.5129 17.9955L23.4712 18.0004L23.5729 19.9999H15.7679L16.0186 15.0686L14.7186 19.9999H12C12.6261 17.0635 13.4379 13.5307 13.9512 12.3601L13.9618 12.3121V12.2968C14.8847 10.2816 15.8088 9.06789 19.3094 9.06789H19.3195H19.6603V9.21973L19.6807 9.06789H20.0218H20.0318C21.289 9.06789 22.6827 9.18459 23.7454 9.9802C24.6344 10.6457 25.2959 11.7782 25.9036 12.8186C26.0718 13.1066 26.236 13.3876 26.3996 13.6497C26.465 13.7551 26.5304 13.861 26.5953 13.969C26.6606 14.077 26.7255 14.1873 26.7911 14.3012C26.8565 14.4156 26.9221 14.5328 26.9904 14.6638L27.0195 14.7221L27.0195 14.7222C27.0356 14.7542 27.0517 14.7862 27.068 14.8203C27.0769 14.8382 27.0858 14.857 27.0952 14.877C27.1319 14.956 27.1718 15.0501 27.2199 15.1809L27.2603 15.3071L27.285 15.4015L27.2904 15.425L27.2904 15.425C27.2942 15.441 27.2975 15.4554 27.3019 15.4789C27.304 15.4905 27.3064 15.5041 27.3093 15.5207ZM23.538 15.2312L23.4802 15.2436L23.48 15.2436C23.4415 15.252 23.4031 15.2603 23.3643 15.2681C23.3539 15.2704 23.3431 15.2722 23.3328 15.274L23.2669 13.9718C23.2875 14.0011 23.3082 14.0302 23.329 14.0594L23.329 14.0595C23.3526 14.0925 23.3761 14.1256 23.3994 14.1588C23.6219 14.4748 23.8401 14.7944 24.0504 15.1132C23.8841 15.1558 23.712 15.1942 23.538 15.2312ZM20.8007 15.6875C21.3424 15.6092 21.8807 15.531 22.4102 15.4433V12.8946C22.4102 12.3834 22.0485 11.961 21.5832 11.9028V11.8954H21.4734H20.9237H20.9184V11.6181C20.9184 11.4347 20.7793 11.2865 20.6079 11.2865H18.7824C18.611 11.2865 18.4719 11.4347 18.4719 11.6181V11.8954H18.4666H17.9845H17.9169C17.4005 11.8954 16.9801 12.3437 16.9801 12.8946V18.1153C16.9801 18.6662 17.4005 19.1146 17.9169 19.1146L21.4734 19.1141C21.9901 19.1141 22.4102 18.666 22.4102 18.1148V18.1092C21.9336 18.1484 21.4609 18.1753 20.9893 18.19C20.339 18.21 19.7966 17.6639 19.7778 16.9699C19.7603 16.3228 20.2044 15.7757 20.7915 15.6887L20.8007 15.6875Z" fill="white"/>
</mask>
<g mask="url(#mask3_71_4902)">
<rect x="10" width="20" height="21.4286" fill="#64A3C8"/>
</g>
</svg>
