<svg width="25" height="25" viewBox="0 0 25 25" fill="none" xmlns="http://www.w3.org/2000/svg">
<path fill-rule="evenodd" clip-rule="evenodd" d="M8.01921 6.79544C7.97776 6.66599 7.86552 6.5717 7.73074 6.55303L6.5526 6.38091L6.02414 5.31187C5.93759 5.13515 5.72403 5.06218 5.54731 5.14872C5.47628 5.18363 5.41907 5.24084 5.38416 5.31187L4.85812 6.38819L3.67999 6.55303C3.48484 6.578 3.34667 6.75617 3.37139 6.95156C3.38206 7.03495 3.42182 7.1118 3.48363 7.16876L4.33451 8.00752L4.1333 9.1808C4.09936 9.37474 4.22906 9.55921 4.42299 9.59315C4.50129 9.60697 4.58201 9.59388 4.65207 9.55655L5.70657 9.00142L6.76108 9.55655C6.93562 9.6477 7.15088 9.5803 7.24203 9.40577C7.27815 9.33668 7.29051 9.25765 7.27742 9.1808L7.07622 8.00752L7.92952 7.17603C8.03327 7.07858 8.06842 6.92877 8.01921 6.79544Z" fill="#E8A727"/>
<path fill-rule="evenodd" clip-rule="evenodd" d="M21.6095 6.79544C21.5681 6.66599 21.4559 6.5717 21.3211 6.55303L20.1429 6.38091L19.6145 5.31187C19.5279 5.13515 19.3144 5.06218 19.1376 5.14872C19.0666 5.18363 19.0094 5.24084 18.9745 5.31187L18.4485 6.38819L17.2703 6.55303C17.0752 6.578 16.937 6.75617 16.9617 6.95156C16.9724 7.03495 17.0121 7.1118 17.074 7.16876L17.9248 8.00752L17.7236 9.1808C17.6897 9.37474 17.8194 9.55921 18.0133 9.59315C18.0916 9.60697 18.1723 9.59388 18.2424 9.55655L19.2969 9.00142L20.3514 9.55655C20.5259 9.6477 20.7412 9.5803 20.8324 9.40577C20.8685 9.33668 20.8808 9.25765 20.8678 9.1808L20.6665 8.00752L21.5198 7.17603C21.6236 7.07858 21.6588 6.92877 21.6095 6.79544Z" fill="#E8A727"/>
<path fill-rule="evenodd" clip-rule="evenodd" d="M14.8144 3.39786C14.7729 3.26841 14.6607 3.17411 14.5259 3.15545L13.3478 2.98333L12.8193 1.91428C12.7328 1.73756 12.5192 1.6646 12.3425 1.75114C12.2714 1.78605 12.2142 1.84326 12.1793 1.91428L11.6533 2.9906L10.4752 3.15545C10.28 3.18041 10.1418 3.35859 10.1666 3.55398C10.1772 3.63737 10.217 3.71421 10.2788 3.77118L11.1297 4.60993L10.9285 5.78322C10.8945 5.97715 11.0242 6.16163 11.2182 6.19557C11.2965 6.20939 11.3772 6.1963 11.4472 6.15896L12.5017 5.60383L13.5562 6.15896C13.7308 6.25011 13.946 6.18272 14.0372 6.00818C14.0733 5.93909 14.0857 5.86007 14.0726 5.78322L13.8714 4.60993L14.7247 3.77845C14.8284 3.681 14.8636 3.53119 14.8144 3.39786Z" fill="#E8A727"/>
<path fill-rule="evenodd" clip-rule="evenodd" d="M12.5002 15.3953C14.0436 15.3953 15.2935 14.0992 15.2935 12.4983C15.2935 10.8979 14.0436 9.59851 12.5002 9.59851C10.9563 9.59851 9.70662 10.8979 9.70662 12.4983C9.70662 14.0992 10.9563 15.3953 12.5002 15.3953ZM17.0718 18.649L17.0634 18.6116V18.6C16.3255 17.0338 15.5872 16.0906 12.7888 16.0906H12.7806H12.5082L12.4918 16.2084V16.0906H12.2194H12.2114C9.41297 16.0906 8.67451 17.0338 7.93685 18.6V18.6116L7.92845 18.649C7.51802 19.5588 6.86897 22.3045 6.36853 24.5865H8.5417L9.58078 20.754L9.38036 24.5865H15.6194L15.4192 20.754L16.4583 24.5865H18.6315C18.131 22.3045 17.4818 19.5588 17.0718 18.649ZM13.2473 20.8381H14.7434V19.3819H13.2473V17.926H11.7529V19.3819H10.2566V20.8381H11.7529V22.2937H13.2473V20.8381Z" fill="#E8A727"/>
</svg>
