<svg width="28" height="30" viewBox="0 0 28 30" fill="none" xmlns="http://www.w3.org/2000/svg">
<path fill-rule="evenodd" clip-rule="evenodd" d="M9.67768 17.5961C11.464 17.5961 12.9106 16.042 12.9106 14.1224C12.9106 12.2032 11.464 10.6451 9.67768 10.6451C7.8907 10.6451 6.44426 12.2032 6.44426 14.1224C6.44426 16.042 7.8907 17.5961 9.67768 17.5961ZM14.9689 21.4978L14.9592 21.453V21.4391C14.1052 19.561 13.2507 18.4299 10.0117 18.4299H10.0022H9.6869L9.66791 18.5713V18.4299H9.3526H9.34334C6.10436 18.4299 5.24965 19.561 4.39586 21.4391V21.453L4.38613 21.4978C3.91109 22.5888 3.15985 25.8811 2.58063 28.6175H5.09593L6.29859 24.0219L6.06663 28.6175H13.288L13.0562 24.0219L14.2589 28.6175H16.7742C16.195 25.8811 15.4435 22.5888 14.9689 21.4978ZM10.5423 24.1227H12.274V22.3765H10.5423V20.6308H8.81274V22.3765H7.08085V24.1227H8.81274V25.8682H10.5423V24.1227Z" fill="#63A2C7"/>
<mask id="mask0_71_5212" style="mask-type:luminance" maskUnits="userSpaceOnUse" x="2" y="10" width="15" height="19">
<path fill-rule="evenodd" clip-rule="evenodd" d="M9.67768 17.5961C11.464 17.5961 12.9106 16.042 12.9106 14.1224C12.9106 12.2032 11.464 10.6451 9.67768 10.6451C7.8907 10.6451 6.44426 12.2032 6.44426 14.1224C6.44426 16.042 7.8907 17.5961 9.67768 17.5961ZM14.9689 21.4978L14.9592 21.453V21.4391C14.1052 19.561 13.2507 18.4299 10.0117 18.4299H10.0022H9.6869L9.66791 18.5713V18.4299H9.3526H9.34334C6.10436 18.4299 5.24965 19.561 4.39586 21.4391V21.453L4.38613 21.4978C3.91109 22.5888 3.15985 25.8811 2.58063 28.6175H5.09593L6.29859 24.0219L6.06663 28.6175H13.288L13.0562 24.0219L14.2589 28.6175H16.7742C16.195 25.8811 15.4435 22.5888 14.9689 21.4978ZM10.5423 24.1227H12.274V22.3765H10.5423V20.6308H8.81274V22.3765H7.08085V24.1227H8.81274V25.8682H10.5423V24.1227Z" fill="white"/>
</mask>
<g mask="url(#mask0_71_5212)">
<rect y="9.2627" width="19.3548" height="20.7373" fill="#64A3C8"/>
</g>
<path fill-rule="evenodd" clip-rule="evenodd" d="M9.67768 17.5961C11.464 17.5961 12.9106 16.042 12.9106 14.1224C12.9106 12.2032 11.464 10.6451 9.67768 10.6451C7.8907 10.6451 6.44426 12.2032 6.44426 14.1224C6.44426 16.042 7.8907 17.5961 9.67768 17.5961ZM14.9689 21.4978L14.9592 21.453V21.4391C14.1052 19.561 13.2507 18.4299 10.0117 18.4299H10.0022H9.6869L9.66791 18.5713V18.4299H9.3526H9.34334C6.10436 18.4299 5.24965 19.561 4.39586 21.4391V21.453L4.38613 21.4978C3.91109 22.5888 3.15985 25.8811 2.58063 28.6175H5.09593L6.29859 24.0219L6.06663 28.6175H13.288L13.0562 24.0219L14.2589 28.6175H16.7742C16.195 25.8811 15.4435 22.5888 14.9689 21.4978ZM10.5423 24.1227H12.274V22.3765H10.5423V20.6308H8.81274V22.3765H7.08085V24.1227H8.81274V25.8682H10.5423V24.1227Z" fill="#63A2C7"/>
<mask id="mask1_71_5212" style="mask-type:luminance" maskUnits="userSpaceOnUse" x="2" y="10" width="15" height="19">
<path fill-rule="evenodd" clip-rule="evenodd" d="M9.67768 17.5961C11.464 17.5961 12.9106 16.042 12.9106 14.1224C12.9106 12.2032 11.464 10.6451 9.67768 10.6451C7.8907 10.6451 6.44426 12.2032 6.44426 14.1224C6.44426 16.042 7.8907 17.5961 9.67768 17.5961ZM14.9689 21.4978L14.9592 21.453V21.4391C14.1052 19.561 13.2507 18.4299 10.0117 18.4299H10.0022H9.6869L9.66791 18.5713V18.4299H9.3526H9.34334C6.10436 18.4299 5.24965 19.561 4.39586 21.4391V21.453L4.38613 21.4978C3.91109 22.5888 3.15985 25.8811 2.58063 28.6175H5.09593L6.29859 24.0219L6.06663 28.6175H13.288L13.0562 24.0219L14.2589 28.6175H16.7742C16.195 25.8811 15.4435 22.5888 14.9689 21.4978ZM10.5423 24.1227H12.274V22.3765H10.5423V20.6308H8.81274V22.3765H7.08085V24.1227H8.81274V25.8682H10.5423V24.1227Z" fill="white"/>
</mask>
<g mask="url(#mask1_71_5212)">
<rect y="9.2627" width="19.3548" height="20.7373" fill="#64A3C8"/>
</g>
<mask id="mask2_71_5212" style="mask-type:luminance" maskUnits="userSpaceOnUse" x="18" y="9" width="4" height="4">
<path fill-rule="evenodd" clip-rule="evenodd" d="M19.0073 10.2214C19.0364 10.1905 19.0829 10.1914 19.111 10.2235L19.2489 10.3812L19.5934 10.0081C19.6222 9.97679 19.6686 9.97719 19.6971 10.0089C19.7255 10.0407 19.7251 10.0918 19.6963 10.1231L19.299 10.5534C19.2699 10.5849 19.223 10.5842 19.1947 10.5519L19.0053 10.3355C18.9772 10.3034 18.9781 10.2523 19.0073 10.2214ZM19.0073 12.2964C19.0364 12.2654 19.0829 12.2664 19.111 12.2985L19.2489 12.4561L19.5934 12.083C19.6222 12.0517 19.6686 12.0521 19.6971 12.0839C19.7255 12.1157 19.7251 12.1667 19.6963 12.198L19.299 12.6284C19.2699 12.6599 19.223 12.6592 19.1947 12.6268L19.0053 12.4104C18.9772 12.3783 18.9781 12.3273 19.0073 12.2964ZM19.111 11.3302C19.0829 11.2981 19.0364 11.2972 19.0073 11.3281C18.9781 11.359 18.9772 11.4101 19.0053 11.4422L19.1947 11.6586C19.223 11.6909 19.2699 11.6916 19.299 11.6601L19.6963 11.2297C19.7251 11.1985 19.7255 11.1474 19.6971 11.1156C19.6686 11.0839 19.6222 11.0835 19.5934 11.1147L19.2489 11.4879L19.111 11.3302ZM21.4515 10.5637H20.1181C20.0077 10.5637 19.9181 10.4708 19.9181 10.3562C19.9181 10.2416 20.0077 10.1487 20.1181 10.1487H21.4515C21.5619 10.1487 21.6515 10.2416 21.6515 10.3562C21.6515 10.4708 21.5619 10.5637 21.4515 10.5637ZM20.1181 11.5319H21.4515C21.5619 11.5319 21.6515 11.439 21.6515 11.3244C21.6515 11.2098 21.5619 11.1169 21.4515 11.1169H20.1181C20.0077 11.1169 19.9181 11.2098 19.9181 11.3244C19.9181 11.439 20.0077 11.5319 20.1181 11.5319ZM21.4515 12.5002H20.1181C20.0077 12.5002 19.9181 12.4073 19.9181 12.2927C19.9181 12.1781 20.0077 12.0852 20.1181 12.0852H21.4515C21.5619 12.0852 21.6515 12.1781 21.6515 12.2927C21.6515 12.4073 21.5619 12.5002 21.4515 12.5002Z" fill="white"/>
</mask>
<g mask="url(#mask2_71_5212)">
<rect x="18" y="9.3186" width="4" height="4.14986" fill="#64A3C8"/>
</g>
<mask id="mask3_71_5212" style="mask-type:luminance" maskUnits="userSpaceOnUse" x="13" y="0" width="15" height="16">
<path fill-rule="evenodd" clip-rule="evenodd" d="M23.4137 2.98146C23.4137 4.62754 22.0321 5.95986 20.3263 5.95986C18.6196 5.95986 17.2382 4.62754 17.2382 2.98146C17.2382 1.336 18.6196 0 20.3263 0C22.0321 0 23.4137 1.336 23.4137 2.98146ZM27.0756 11.831C27.0836 11.8761 27.09 11.9218 27.0936 11.9673C27.1 12.054 27.0968 12.1474 27.0841 12.2355C27.0817 12.2532 27.0779 12.2732 27.0732 12.2945C27.0641 12.3374 27.0514 12.3857 27.0358 12.4323C27.0282 12.4552 27.0197 12.478 27.0108 12.4991L27.0007 12.5215C26.9642 12.6034 26.9378 12.6625 26.8379 12.7903C26.8137 12.8202 26.7876 12.8491 26.76 12.877C26.677 12.9602 26.5803 13.0325 26.4825 13.0858L26.4621 13.0967L26.2996 13.1762C26.2433 13.203 26.1845 13.2299 26.1249 13.2555C26.065 13.2811 26.0044 13.3057 25.9446 13.3283C25.8244 13.3742 25.7052 13.4148 25.588 13.4508C25.471 13.4869 25.3557 13.5187 25.2429 13.5465C25.0172 13.6029 24.7983 13.6478 24.5834 13.6857C24.3685 13.7238 24.1578 13.7552 23.948 13.7843C23.9224 13.7872 23.8971 13.7898 23.8718 13.7924C23.8461 13.795 23.8204 13.7977 23.7945 13.8007C23.7701 13.8031 23.7456 13.8058 23.7211 13.8084L23.6843 13.8123L23.7741 15.41H16.8777L17.0992 11.4697L15.9505 15.41H13.5484C14.1016 13.0637 14.8189 10.2408 15.2725 9.3055L15.2818 9.26718V9.25488C16.0973 7.64467 16.9138 6.67489 20.0069 6.67489H20.0159H20.317V6.79622L20.335 6.67489H20.6364H20.6453C21.7561 6.67489 22.9875 6.76814 23.9266 7.40387C24.712 7.9356 25.2965 8.84054 25.8335 9.67184L25.8335 9.67188C25.9822 9.90204 26.1272 10.1266 26.2718 10.3359C26.3296 10.4202 26.3873 10.5048 26.4447 10.5911C26.5024 10.6774 26.5598 10.7655 26.6177 10.8565C26.6755 10.9479 26.7335 11.0415 26.7938 11.1463L26.8195 11.1929C26.8337 11.2185 26.8479 11.244 26.8624 11.2713C26.8702 11.2856 26.8781 11.3006 26.8864 11.3166C26.9188 11.3797 26.9541 11.4549 26.9966 11.5594L27.0322 11.6603L27.0541 11.7357L27.0589 11.7545C27.0622 11.7672 27.0652 11.7788 27.069 11.7976L27.0756 11.831ZM23.7433 11.5996L23.6922 11.6096C23.6582 11.6162 23.6242 11.6229 23.5898 11.6291C23.5817 11.6308 23.5734 11.6321 23.5653 11.6333L23.5619 11.6339L23.5037 10.5934C23.5219 10.6167 23.5402 10.64 23.5586 10.6634L23.5586 10.6634C23.5794 10.6898 23.6002 10.7162 23.6208 10.7428C23.8174 10.9953 24.0102 11.2506 24.196 11.5054C24.0491 11.5394 23.897 11.5701 23.7433 11.5996ZM21.3246 11.9642C21.8032 11.9017 22.2789 11.8392 22.7467 11.7691V9.73262C22.7467 9.32417 22.4271 8.98664 22.016 8.94012V8.93417H21.919H21.4333H21.4286V8.71263C21.4286 8.5661 21.3057 8.44765 21.1543 8.44765H19.5412C19.3898 8.44765 19.2669 8.5661 19.2669 8.71263V8.93417H19.2622H18.8362H18.7765C18.3202 8.93417 17.9488 9.29241 17.9488 9.73262V13.9042C17.9488 14.3444 18.3202 14.7026 18.7765 14.7026L21.919 14.7022C22.3755 14.7022 22.7467 14.3442 22.7467 13.9038V13.8993C22.3256 13.9306 21.9079 13.9521 21.4913 13.9638C20.9166 13.9798 20.4374 13.5435 20.4208 12.9889C20.4053 12.4718 20.7977 12.0347 21.3165 11.9652L21.3246 11.9642Z" fill="white"/>
</mask>
<g mask="url(#mask3_71_5212)">
<rect x="11.7812" y="-0.570801" width="17.6718" height="17.1223" fill="#64A3C8"/>
</g>
</svg>
