<svg width="31" height="30" viewBox="0 0 31 30" fill="none" xmlns="http://www.w3.org/2000/svg">
<path fill-rule="evenodd" clip-rule="evenodd" d="M15 24.037V12.3241L9.64286 7H2.14286C0.959411 7 0 7.95347 0 9.12963V24.037C0 25.2132 0.959411 26.1667 2.14286 26.1667H12.8571C14.0406 26.1667 15 25.2132 15 24.037ZM12.9491 11.7917L10.1786 9.03828V11.7917H12.9491Z" fill="#E8A727"/>
<path fill-rule="evenodd" clip-rule="evenodd" d="M29.9147 8.14788L26.0792 1.71123C25.7383 1.13868 25.102 0.783081 24.421 0.783081C23.7384 0.783081 23.103 1.13868 22.7621 1.71041L18.8827 8.22128C18.541 8.79383 18.5419 9.50502 18.8827 10.0768C19.2236 10.6493 19.8599 11.0057 20.5417 11.0057H28.3012H28.318C29.3668 10.9967 30.2169 10.1673 30.2169 9.14943C30.2169 8.7922 30.1117 8.4472 29.9147 8.14788Z" fill="#E8A727"/>
<path fill-rule="evenodd" clip-rule="evenodd" d="M25.933 4.18306C26.1771 3.93898 26.5728 3.93898 26.8169 4.18306C27.061 4.42714 27.061 4.82286 26.8169 5.06694L23.0669 8.81694C22.8228 9.06102 22.4271 9.06102 22.183 8.81694C21.9389 8.57286 21.9389 8.17714 22.183 7.93306L25.933 4.18306Z" fill="white"/>
<path fill-rule="evenodd" clip-rule="evenodd" d="M26.8169 7.93306C27.061 8.17714 27.061 8.57286 26.8169 8.81694C26.5728 9.06102 26.1771 9.06102 25.933 8.81694L22.183 5.06694C21.9389 4.82286 21.9389 4.42714 22.183 4.18306C22.4271 3.93898 22.8228 3.93898 23.0669 4.18306L26.8169 7.93306Z" fill="white"/>
</svg>
