<svg width="80" height="80" viewBox="0 0 80 80" fill="none" xmlns="http://www.w3.org/2000/svg">
<path d="M4.01756 27.6927C4.20687 27.9262 4.4812 28.075 4.78031 28.1063C5.07845 28.1374 5.37836 28.0488 5.61205 27.8595L8.51082 25.5092V44.188L5.87553 45.5311C4.294 46.3373 2.67894 46.7881 1.0749 46.8711C0.449803 46.9034 -0.0308433 47.4366 0.00154536 48.0618C0.0339336 48.6869 0.56543 49.1658 1.19231 49.1352C3.11619 49.0354 5.03829 48.5025 6.90516 47.5509L14.9092 43.4712C18.4609 41.661 22.0623 41.661 25.6141 43.4712L33.6181 47.5509C35.7058 48.615 37.8526 49.1472 40.0001 49.147C42.147 49.1468 44.2948 48.6148 46.3821 47.5509L54.3861 43.4712C57.9378 41.661 61.5393 41.661 65.091 43.4712L73.095 47.5509C74.9619 48.5025 76.8838 49.0354 78.8077 49.1352C79.4349 49.1661 79.9659 48.6867 79.9985 48.0618C80.0308 47.4366 79.5502 46.9034 78.9251 46.8711C77.3212 46.788 75.7062 46.3371 74.1246 45.5311L66.1206 41.4515C61.9456 39.3232 57.5318 39.3232 53.3568 41.4515L48.1766 44.0918V25.509L51.0753 27.8593C51.2781 28.0237 51.5304 28.1123 51.7892 28.1123C51.8284 28.1123 51.8677 28.1102 51.9071 28.1061C52.2062 28.0749 52.4805 27.9262 52.6698 27.6925L56.4343 23.0493C56.8287 22.563 56.754 21.8491 56.2677 21.4548L30.9442 0.924048C29.4173 -0.317565 27.2162 -0.304772 25.7064 0.953522L18.0222 7.18362V5.24484C18.0222 4.61877 17.5147 4.11124 16.8886 4.11124H12.0611C11.435 4.11124 10.9275 4.61877 10.9275 5.24484V12.9358L0.419839 21.455C-0.0664749 21.8493 -0.140968 22.5631 0.2532 23.0495L4.01756 27.6927ZM17.1744 40.2248V30.9022C17.1744 30.6148 17.4083 30.3808 17.6959 30.3808H27.2955C27.5831 30.3808 27.817 30.6148 27.817 30.9022V42.0494L26.6435 41.4513C23.5534 39.8763 20.3326 39.4683 17.1744 40.2248ZM45.909 45.2473L45.3525 45.531C41.8007 47.3413 38.1991 47.3413 34.6476 45.531L30.084 43.205V30.9022C30.084 29.3646 28.833 28.1136 27.2954 28.1136H17.6957C16.1581 28.1136 14.9071 29.3646 14.9071 30.9022V40.9741C14.5631 41.1195 14.2204 41.2776 13.8795 41.4515L10.778 43.0324V23.6708L28.3435 9.42943L45.9089 23.6708L45.909 45.2473ZM13.1947 6.37843H15.7552V9.02182L13.1947 11.0978V6.37843ZM27.1407 2.70946C27.1454 2.70573 27.1499 2.70185 27.1546 2.69796C27.8332 2.12954 28.8254 2.12323 29.5151 2.6842L53.9589 22.5023L51.6222 25.3843L29.0575 7.08952C28.6414 6.75219 28.0458 6.75219 27.6296 7.08952L5.06469 25.3843L2.72818 22.5023L27.1407 2.70946ZM79.9983 78.909C79.9658 79.5342 79.4347 80.015 78.8075 79.9823C76.8838 79.8826 74.9617 79.3495 73.0948 78.3981L65.0908 74.3184C61.5391 72.5082 57.9377 72.5082 54.3859 74.3184L46.3819 78.3981C44.2943 79.462 42.1471 79.994 39.9999 79.994C37.8527 79.994 35.7055 79.462 33.6181 78.3981L25.6141 74.3184C22.0624 72.5082 18.4609 72.5082 14.9092 74.3184L6.90517 78.3981C5.03829 79.3495 3.1162 79.8826 1.19232 79.9823C0.567868 80.0146 0.0339431 79.5342 0.00155442 78.909C-0.0308343 78.2837 0.449812 77.7506 1.07491 77.7182C2.67895 77.6351 4.29401 77.1843 5.87554 76.3783L13.8796 72.2987C18.0548 70.1704 22.4685 70.1706 26.6434 72.2987L34.6474 76.3783C38.199 78.1885 41.8006 78.1887 45.3523 76.3783L53.3563 72.2987C57.5315 70.1704 61.9453 70.1706 66.1201 72.2987L74.1242 76.3783C75.7057 77.1843 77.3207 77.6351 78.9246 77.7182C79.55 77.7506 80.0305 78.2837 79.9983 78.909ZM79.9983 63.4854C79.9658 64.1105 79.4347 64.592 78.8075 64.5588C76.8838 64.459 74.9617 63.9259 73.0948 62.9745L65.0908 58.8948C61.5391 57.0846 57.9377 57.0846 54.3859 58.8948L46.3819 62.9745C44.2943 64.0384 42.1471 64.5704 39.9999 64.5704C37.8527 64.5704 35.7055 64.0384 33.6181 62.9745L25.6141 58.8948C22.0624 57.0846 18.4609 57.0846 14.9092 58.8948L6.90517 62.9745C5.03829 63.9259 3.1162 64.459 1.19232 64.5588C0.567868 64.5915 0.0339431 64.1107 0.00155442 63.4854C-0.0308343 62.8601 0.449812 62.327 1.07491 62.2946C2.67895 62.2116 4.29401 61.7607 5.87554 60.9547L13.8796 56.8751C18.0548 54.747 22.4685 54.747 26.6434 56.8751L34.6474 60.9547C38.199 62.7649 41.8006 62.7649 45.3523 60.9547L53.3563 56.8751C57.5315 54.747 61.9453 54.747 66.1201 56.8751L74.1242 60.9547C75.7057 61.7607 77.3207 62.2116 78.9246 62.2946C79.55 62.327 80.0305 62.8601 79.9983 63.4854ZM63.6 15.4634H74.7097C77.6266 15.4634 79.9999 13.0903 79.9999 10.1734C79.9999 7.25649 77.6268 4.88322 74.7097 4.88322H73.5752C73.0114 2.10655 70.5374 0 67.6095 0C65.9822 0 64.4534 0.634329 63.3046 1.78623C62.3538 2.73958 61.7568 3.95464 61.5791 5.27123C59.6186 6.09277 58.3098 8.00434 58.3098 10.1734C58.3098 13.0903 60.6831 15.4634 63.6 15.4634ZM62.9266 7.2071C63.4338 7.08272 63.7906 6.62815 63.7906 6.10589C63.7906 5.07674 64.188 4.11124 64.9101 3.38719C65.6303 2.66493 66.589 2.2672 67.6095 2.2672C69.6864 2.2672 71.3993 3.95626 71.428 6.03253C71.4366 6.65244 71.9415 7.15042 72.5616 7.15042H74.7099C76.3768 7.15042 77.7329 8.50652 77.7329 10.1734C77.7329 11.8401 76.3768 13.1962 74.7099 13.1962H63.6002C61.9333 13.1962 60.5772 11.8401 60.5772 10.1734C60.577 8.78798 61.5652 7.54053 62.9266 7.2071ZM63.6923 18.299L62.5663 22.5014C62.4306 23.0078 61.9725 23.3419 61.4721 23.3419C61.3749 23.3419 61.2763 23.3293 61.178 23.3031C60.5733 23.1411 60.2144 22.5194 60.3764 21.9147L61.5023 17.7123C61.6643 17.1076 62.286 16.7488 62.8907 16.9107C63.4955 17.0728 63.8544 17.6943 63.6923 18.299ZM63.4363 31.2269L64.5623 27.0245C64.7242 26.4198 65.3456 26.0609 65.9506 26.2229C66.5553 26.3848 66.9141 27.0064 66.7522 27.6112L65.6262 31.8136C65.4905 32.32 65.0324 32.6541 64.532 32.6541C64.4348 32.6541 64.3362 32.6415 64.2379 32.6152C63.633 32.4533 63.2742 31.8318 63.4363 31.2269ZM67.027 23.3419C66.9299 23.3419 66.8312 23.3293 66.7329 23.3031C66.1282 23.1411 65.7694 22.5194 65.9313 21.9147L67.0573 17.7123C67.2192 17.1076 67.8408 16.7488 68.4456 16.9107C69.0503 17.0726 69.4092 17.6943 69.2473 18.299L68.1213 22.5014C67.9856 23.0078 67.5274 23.3419 67.027 23.3419ZM57.8811 31.2269L59.0071 27.0245C59.1691 26.4198 59.7908 26.0609 60.3955 26.2229C61.0002 26.3848 61.359 27.0065 61.1971 27.6112L60.0711 31.8136C59.9354 32.32 59.4773 32.6541 58.9769 32.6541C58.8797 32.6541 58.7811 32.6415 58.6828 32.6152C58.0781 32.4533 57.7192 31.8316 57.8811 31.2269ZM72.5818 23.3419C72.4846 23.3419 72.386 23.3293 72.2877 23.3031C71.683 23.1411 71.3242 22.5194 71.4861 21.9147L72.6121 17.7123C72.7742 17.1076 73.3959 16.7488 74.0004 16.9107C74.6051 17.0726 74.964 17.6943 74.802 18.299L73.6761 22.5014C73.5404 23.0078 73.0824 23.3419 72.5818 23.3419ZM68.9911 31.2269L70.1171 27.0245C70.279 26.4198 70.9007 26.0609 71.5054 26.2229C72.1101 26.3848 72.4689 27.0065 72.307 27.6112L71.181 31.8136C71.0453 32.32 70.5872 32.6541 70.0868 32.6541C69.9896 32.6541 69.891 32.6415 69.7927 32.6152C69.1878 32.4533 68.8291 31.8316 68.9911 31.2269Z" fill="#63A2C6"/>
</svg>
