<svg width="30" height="27" viewBox="0 0 30 27" fill="none" xmlns="http://www.w3.org/2000/svg">
<path fill-rule="evenodd" clip-rule="evenodd" d="M15.9442 11.6736V10.6689V10.1324C15.9442 9.59223 15.5069 9.155 14.9668 9.155C14.4266 9.155 13.9894 9.59223 13.9894 10.1324V10.6689V11.6736C13.9894 11.9679 13.748 12.2093 13.4528 12.2093H12.1393C11.8451 12.2093 11.6037 11.9679 11.6037 11.6736V7.02622H10.8385C10.3667 7.02622 10.1736 6.42138 10.558 6.14811L14.6124 3.27056C14.8247 3.12026 15.1089 3.12026 15.3202 3.27056L19.3755 6.14811C19.759 6.42138 19.5668 7.02622 19.095 7.02622H18.2624V11.6736C18.2624 11.9679 18.0201 12.2093 17.7259 12.2093H16.4807C16.1856 12.2093 15.9442 11.9679 15.9442 11.6736ZM21.7187 12.2966L26.5956 15.758C27.0584 16.086 26.8261 16.8138 26.2595 16.8138H25.2566V22.4031C25.2566 22.7583 24.9669 23.048 24.6117 23.048H23.1142C22.7589 23.048 22.4692 22.7583 22.4692 22.4031V21.1961V20.5512C22.4692 19.9017 21.9427 19.3752 21.2933 19.3752C20.6438 19.3752 20.1173 19.9017 20.1173 20.5512V21.1961V22.4031C20.1173 22.7583 19.8267 23.048 19.4724 23.048H17.8929C17.5385 23.048 17.2479 22.7583 17.2479 22.4031V16.8138H16.327C15.7595 16.8138 15.5291 16.086 15.99 15.758L20.867 12.2966C21.122 12.1153 21.4636 12.1153 21.7187 12.2966ZM7.22281 10.4449C4.96832 10.4449 3.1579 12.2335 3.1579 14.3866C3.1579 16.5396 5.03664 19.3552 6.16388 20.8457C6.40299 21.177 6.8129 21.3757 7.25697 21.3757C7.66687 21.3757 8.07678 21.177 8.35005 20.8457C9.4773 19.3552 11.356 16.5396 11.356 14.3866C11.2877 12.2004 9.44314 10.4449 7.22281 10.4449ZM7.22281 19.6864C5.6515 17.5333 4.72921 15.579 4.72921 14.3866C4.72921 13.0616 5.85645 11.9685 7.22281 11.9685C8.58916 11.9685 9.71641 13.0616 9.71641 14.3866C9.71641 15.579 8.79412 17.5665 7.22281 19.6864ZM8.55503 14.3866C8.55503 15.1001 7.95859 15.6784 7.22283 15.6784C6.48708 15.6784 5.89064 15.1001 5.89064 14.3866C5.89064 13.6731 6.48708 13.0948 7.22283 13.0948C7.95859 13.0948 8.55503 13.6731 8.55503 14.3866Z" fill="#C2892B"/>
</svg>
