<svg width="30" height="24" viewBox="0 0 30 24" fill="none" xmlns="http://www.w3.org/2000/svg">
<path fill-rule="evenodd" clip-rule="evenodd" d="M16.9882 0.464091C16.1303 -0.154697 14.982 -0.154697 14.1241 0.464091L11.8307 2.12087C11.5613 1.37024 10.8433 0.83336 10 0.83336H7.77777C6.70389 0.83336 5.83333 1.70392 5.83333 2.7778V6.45338L4.81085 7.19202C3.078 8.443 3.95117 11.218 6.07291 11.218H6.76229V20.9928C6.76229 22.284 7.79616 23.3333 9.06307 23.3333H10.284C10.8745 23.3333 11.3531 22.8462 11.3531 22.2453C11.3531 21.6444 10.8745 21.1573 10.284 21.1573H9.06307C8.97516 21.1573 8.90056 21.0803 8.90056 20.9928V10.1299C8.90056 9.52904 8.42189 9.04192 7.83142 9.04192H6.07291C6.06267 9.04192 6.05592 9.04109 6.05218 9.04046L6.04783 9.03955C6.04536 9.03692 6.0385 9.02859 6.03346 9.01251C6.0286 8.99704 6.02924 8.98651 6.02973 8.98271L6.03229 8.97995C6.0349 8.97732 6.04033 8.9724 6.04859 8.96645L15.3608 2.23925C15.4779 2.15497 15.6347 2.15512 15.7517 2.23943L25.0633 8.9668C25.0716 8.97277 25.0766 8.97735 25.0792 8.98001L25.0819 8.98296C25.0824 8.98667 25.0832 8.9973 25.0783 9.01299C25.0733 9.02869 25.0667 9.03691 25.0642 9.03961L25.0601 9.04047C25.0564 9.04109 25.0496 9.04192 25.0394 9.04192H23.1252C22.5347 9.04192 22.0561 9.52904 22.0561 10.1299V20.9928C22.0561 21.0793 21.9816 21.1573 21.8927 21.1573H21.6415C21.051 21.1573 20.5723 21.6444 20.5723 22.2453C20.5723 22.8462 21.051 23.3333 21.6415 23.3333H21.8927C23.1586 23.3333 24.1943 22.285 24.1943 20.9928V11.218H25.0394C27.1632 11.218 28.0311 8.44139 26.3001 7.19167L16.9882 0.464091ZM10.2778 3.24268L7.5 5.24937V2.7778C7.5 2.62439 7.62436 2.50003 7.77777 2.50003H10C10.1534 2.50003 10.2778 2.62439 10.2778 2.7778V3.24268Z" fill="#64A3C8"/>
<g clip-path="url(#clip0_30_3910)">
<path d="M10.3661 15.3785C10.0018 13.5303 8.37857 12.1428 6.42857 12.1428C4.88036 12.1428 3.53571 13.0214 2.86607 14.3071C1.25357 14.4785 0 15.8446 0 17.5C0 19.2732 1.44107 20.7143 3.21429 20.7143H10.1786C11.6571 20.7143 12.8571 19.5143 12.8571 18.0357C12.8571 16.6214 11.7589 15.475 10.3661 15.3785Z" fill="#64A3C8"/>
</g>
<g clip-path="url(#clip1_30_3910)">
<path d="M27.7857 7.63815C27.4619 5.9953 26.0191 4.76196 24.2857 4.76196C22.9095 4.76196 21.7143 5.54292 21.1191 6.68577C19.6857 6.83815 18.5714 8.05244 18.5714 9.52387C18.5714 11.1001 19.8524 12.381 21.4286 12.381H27.6191C28.9333 12.381 30 11.3143 30 10.0001C30 8.74291 29.0238 7.72387 27.7857 7.63815Z" fill="#64A3C8"/>
</g>
<defs>
<clipPath id="clip0_30_3910">
<rect width="12.8571" height="12.8571" fill="white" transform="translate(0 10)"/>
</clipPath>
<clipPath id="clip1_30_3910">
<rect width="11.4286" height="11.4286" fill="white" transform="translate(18.5714 2.85718)"/>
</clipPath>
</defs>
</svg>
