<svg width="30" height="25" viewBox="0 0 30 25" fill="none" xmlns="http://www.w3.org/2000/svg">
<path fill-rule="evenodd" clip-rule="evenodd" d="M12.5591 7.2181C11.9249 6.76063 11.076 6.76063 10.4417 7.2181L8.74626 8.44292C8.5471 7.88798 8.01633 7.49105 7.39285 7.49105H5.75C4.95609 7.49105 4.3125 8.13464 4.3125 8.92855V11.6459L3.5566 12.192C2.27552 13.1168 2.92105 15.1683 4.48962 15.1683H4.99927V22.3947C4.99927 23.3493 5.7636 24.125 6.7002 24.125H7.60283C8.03935 24.125 8.39322 23.7649 8.39322 23.3206C8.39322 22.8764 8.03935 22.5163 7.60283 22.5163H6.7002C6.63521 22.5163 6.58006 22.4593 6.58006 22.3947V14.3639C6.58006 13.9197 6.22619 13.5596 5.78966 13.5596H4.48962C4.48205 13.5596 4.47706 13.559 4.47429 13.5585L4.47107 13.5578C4.46925 13.5559 4.46418 13.5497 4.46045 13.5378C4.45686 13.5264 4.45734 13.5186 4.45769 13.5158L4.45959 13.5138C4.46152 13.5118 4.46553 13.5082 4.47164 13.5038L11.356 8.53044C11.4426 8.46814 11.5585 8.46825 11.645 8.53058L18.529 13.504C18.5351 13.5084 18.5388 13.5118 18.5407 13.5138L18.5427 13.516C18.5431 13.5187 18.5436 13.5266 18.54 13.5382C18.5364 13.5498 18.5315 13.5559 18.5296 13.5579L18.5266 13.5585C18.5238 13.559 18.5188 13.5596 18.5113 13.5596H17.0961C16.6596 13.5596 16.3057 13.9197 16.3057 14.3639V22.3947C16.3057 22.4586 16.2507 22.5163 16.185 22.5163H15.9992C15.5627 22.5163 15.2088 22.8764 15.2088 23.3206C15.2088 23.7649 15.5627 24.125 15.9992 24.125H16.185C17.1208 24.125 17.8865 23.35 17.8865 22.3947V15.1683H18.5113C20.0814 15.1683 20.723 13.1156 19.4433 12.1917L12.5591 7.2181ZM7.59821 9.27227L5.54464 10.7558V8.92855C5.54464 8.81513 5.63658 8.72319 5.75 8.72319H7.39285C7.50627 8.72319 7.59821 8.81513 7.59821 8.92855V9.27227Z" fill="#64A3C8"/>
<g clip-path="url(#clip0_34_3997)">
<path d="M7.66349 18.2442C7.39418 16.8778 6.19416 15.8521 4.75255 15.8521C3.60798 15.8521 2.6139 16.5016 2.11885 17.4521C0.926747 17.5788 0 18.5887 0 19.8125C0 21.1234 1.06536 22.1888 2.37628 22.1888H7.52487C8.61796 22.1888 9.5051 21.3016 9.5051 20.2086C9.5051 19.163 8.69321 18.3155 7.66349 18.2442Z" fill="#64A3C8"/>
</g>
<g clip-path="url(#clip1_34_3997)">
<path d="M20.5416 12.5218C20.3022 11.3073 19.2355 10.3955 17.9541 10.3955C16.9367 10.3955 16.0531 10.9729 15.613 11.8178C14.5534 11.9304 13.7296 12.8281 13.7296 13.9159C13.7296 15.0812 14.6766 16.0282 15.8418 16.0282H20.4184C21.39 16.0282 22.1786 15.2396 22.1786 14.268C22.1786 13.3386 21.4569 12.5852 20.5416 12.5218Z" fill="#64A3C8"/>
</g>
<path fill-rule="evenodd" clip-rule="evenodd" d="M23.2534 6.14704C23.6619 5.74346 24.2778 6.25575 23.8251 6.7031C23.3723 7.15058 22.919 7.59836 22.6906 7.82402C22.4621 8.04982 22.7283 8.31087 23.0599 7.98318C23.3916 7.65548 25.2791 5.7905 25.7234 5.35154C26.1675 4.91272 26.7552 5.44461 26.2843 5.90987C25.8135 6.37512 24.533 7.64028 24.3548 7.81635C24.1767 7.99227 24.401 8.25133 24.6058 8.04911C24.8104 7.84676 26.4565 6.22037 26.8307 5.85075C27.2048 5.48099 27.7437 6.02284 27.3856 6.37668C27.0273 6.73066 25.4323 8.30661 25.1913 8.54478C25.0055 8.72838 25.215 8.96796 25.4586 8.72738C25.7023 8.4865 27.0112 7.19336 27.2723 6.93544C27.6009 6.61073 28.1015 7.14035 27.7966 7.44147C27.4919 7.74259 26.1266 9.09158 25.9301 9.28571C25.7827 9.43137 26.0099 9.63785 26.1667 9.48309C26.3233 9.32834 27.149 8.5125 27.5356 8.13054C27.9221 7.74856 28.487 8.25502 28.0677 8.66926C26.5431 10.1757 24.0349 13.6978 21.6582 11.3495C19.5751 9.29125 21.8547 7.50443 23.2534 6.14704M24.8632 1.7349C25.0525 1.74087 25.4185 2.43249 25.4084 2.7474C25.3984 3.06216 25.1319 3.30928 24.8133 3.29933C24.4946 3.28939 24.2445 3.02621 24.2545 2.7113C24.2646 2.39654 24.6739 1.72907 24.8632 1.7349M26.5585 1.76035C26.7477 1.76632 27.1136 2.45795 27.1036 2.77271C27.0936 3.08747 26.8271 3.33473 26.5084 3.32464C26.1898 3.31484 25.9397 3.05152 25.9498 2.73661C25.9599 2.42185 26.3692 1.75453 26.5585 1.76035M28.2547 1.75413C28.444 1.75995 28.8099 2.45172 28.7998 2.76648C28.7897 3.08139 28.5234 3.32851 28.2048 3.31856C27.8861 3.30861 27.636 3.04529 27.646 2.73053C27.6561 2.41563 28.0654 1.7483 28.2547 1.75413M25.7109 3.37443C25.9002 3.3804 26.2661 4.07202 26.256 4.38678C26.2459 4.70155 25.9796 4.94881 25.6609 4.93872C25.3423 4.92891 25.0922 4.66559 25.1023 4.35083C25.1122 4.03593 25.5216 3.3686 25.7109 3.37443M27.4072 3.3682C27.5964 3.37417 27.9623 4.0658 27.9523 4.38056C27.9422 4.69546 27.6758 4.94258 27.3571 4.93264C27.0385 4.92269 26.7883 4.65937 26.7985 4.3446C26.8086 4.0297 27.2179 3.36238 27.4072 3.3682M24.0512 4.14637C24.6288 4.14637 24.6978 4.93903 24.0574 4.93903H22.453C22.1297 4.93903 22.1313 5.30964 22.6003 5.3095H25.4003L24.604 6.09619H24.1744C24.0999 5.95295 23.9701 5.84182 23.8173 5.7864C23.4031 5.63549 23.1737 5.87039 22.9171 6.11481C22.0493 6.94314 20.9864 7.86696 20.6446 8.97524C19.7911 8.61557 19.2 7.94256 19.2 6.71051C19.1999 3.79978 22.0907 4.12903 24.0512 4.14637" fill="#63A2C6"/>
<defs>
<clipPath id="clip0_34_3997">
<rect width="9.5051" height="9.5051" fill="white" transform="translate(0 14.2678)"/>
</clipPath>
<clipPath id="clip1_34_3997">
<rect width="8.44898" height="8.44898" fill="white" transform="translate(13.7296 8.9873)"/>
</clipPath>
</defs>
</svg>
