<svg width="30" height="30" viewBox="0 0 30 30" fill="none" xmlns="http://www.w3.org/2000/svg">
<path fill-rule="evenodd" clip-rule="evenodd" d="M29.6611 4.52875L23.5211 0.17175C23.2001 -0.05725 22.7691 -0.05725 22.4481 0.17175L16.3081 4.52875C15.7261 4.94175 16.0181 5.85775 16.7321 5.85775H17.8911V12.8958C17.8911 13.3418 18.2571 13.7078 18.7041 13.7078H20.6921C21.1391 13.7078 21.5041 13.3418 21.5041 12.8958V11.3757V10.5627C21.5041 9.74575 22.1671 9.08275 22.9841 9.08275C23.8031 9.08275 24.4651 9.74575 24.4651 10.5627V11.3757V12.8958C24.4651 13.3418 24.8301 13.7078 25.2771 13.7078H27.1631C27.6091 13.7078 27.9751 13.3418 27.9751 12.8958V5.85775H29.2371C29.9511 5.85775 30.2431 4.94175 29.6611 4.52875ZM7.501 22.0829V19.4289C7.501 18.8019 6.981 18.2899 6.347 18.2899H1.154C0.52 18.2899 0 18.8019 0 19.4289V22.0829C0 22.709 0.52 23.2209 1.154 23.2209H6.347C6.981 23.2209 7.501 22.709 7.501 22.0829ZM17.206 17.1401V14.3495C17.2063 13.9378 17.154 13.6024 16.6924 13.6024H16.5119V13.6199C16.5119 13.949 16.2293 14.2167 15.8819 14.2167H14.3243C13.977 14.2167 13.6944 13.949 13.6944 13.6199V13.6024H13.5139C13.052 13.6024 13 13.9378 13 14.3495V14.4295L12.1501 12.0191C12.1063 11.895 12.0656 11.7668 12.0246 11.6375C11.8253 11.0102 11.6175 10.3561 11.0131 10.0121C10.4221 9.67605 9.7081 9.63405 9.0471 9.71505C8.5961 9.77005 8.1371 9.84605 7.7261 10.0471C7.36379 10.2251 6.01146 11.2904 5.10065 12.0079C4.82993 12.2211 4.59822 12.4037 4.4431 12.5231C4.397 12.5587 4.34968 12.5933 4.30239 12.6278C4.05632 12.8076 3.8112 12.9868 3.7441 13.3081L2.9601 17.0161H4.6821L5.3171 14.0051L6.9891 12.9661C6.7711 14.6551 6.5191 16.576 6.4411 17.0251C7.7351 17.0771 8.7751 18.1301 8.7751 19.4291V22.083C8.7751 23.4131 7.6851 24.4951 6.3471 24.4951H4.1481L1.9051 28.2401C1.6591 28.6481 1.7521 29.1851 2.1371 29.4851C2.5531 29.8101 3.1541 29.7361 3.4781 29.319L5.2421 27.0581H11.3901L12.5101 29.1651C12.7291 29.578 13.2241 29.7791 13.6771 29.6171C14.1741 29.4391 14.4341 28.8911 14.2561 28.3941C14.2561 28.3941 12.9691 24.7751 12.9751 24.7731C12.865 24.4922 12.758 24.21 12.6509 23.9277L12.6509 23.9277L12.6509 23.9277C12.3825 23.22 12.1141 22.5123 11.7981 21.826C11.705 21.6232 11.6085 21.4213 11.512 21.2193L11.512 21.2193C11.2302 20.6295 10.9477 20.0382 10.7451 19.417C10.5191 18.7261 10.4161 18.0061 10.4551 17.2791C10.4681 17.0391 10.5171 16.795 10.6421 16.59C10.7775 16.3685 10.9812 16.2331 11.1892 16.0949C11.2225 16.0728 11.2559 16.0507 11.2891 16.028C11.3039 16.0179 11.3237 16.005 11.347 15.9898C11.4244 15.9394 11.5402 15.8641 11.6371 15.781L11.8941 16.3531L11.9101 16.3881C11.9931 16.5741 12.1441 16.7301 12.3461 16.8161L13 17.0947V18.2526C13 18.6649 13.052 19 13.5139 19L16.6924 18.9998C17.1464 18.9998 17.2042 18.6756 17.206 18.273C17.2677 18.2049 17.3193 18.1255 17.3571 18.0361C17.4908 17.724 17.4206 17.3762 17.206 17.1401ZM10.7002 8.90855C11.9592 8.90855 12.9802 7.86955 12.9802 6.58955C12.9802 5.30955 11.9592 4.27055 10.7002 4.27055C9.4412 4.27055 8.4212 5.30955 8.4212 6.58955C8.4212 7.86955 9.4412 8.90855 10.7002 8.90855ZM14.3242 13.8518H15.8818C16.028 13.8518 16.147 13.7477 16.147 13.6197V13.2318C16.147 13.1039 16.028 13 15.8818 13H14.3242C14.1778 13 14.0591 13.1039 14.0591 13.2318V13.6197C14.0591 13.7479 14.1778 13.8518 14.3242 13.8518Z" fill="#64A3C8"/>
</svg>
