<svg width="30" height="30" viewBox="0 0 30 30" fill="none" xmlns="http://www.w3.org/2000/svg">
<path fill-rule="evenodd" clip-rule="evenodd" d="M13.3128 5.9291C13.3128 8.2211 11.4558 10.0781 9.16479 10.0781C6.87278 10.0781 5.01578 8.2211 5.01578 5.9291C5.01578 3.6381 6.87278 1.7801 9.16479 1.7801C11.4558 1.7801 13.3128 3.6381 13.3128 5.9291ZM16.3041 16.1636C16.5491 16.8306 16.7311 17.5046 16.9031 18.1786C17.0651 18.8476 17.1871 19.5296 17.3071 20.2066C17.4401 20.9576 16.9391 21.6756 16.1871 21.8096C15.4601 21.9386 14.7641 21.4726 14.5991 20.7616L14.5861 20.7006C14.5702 20.6318 14.5545 20.563 14.5387 20.4941C14.4181 19.9671 14.297 19.4381 14.1361 18.9216C13.9561 18.3436 13.7691 17.7686 13.5361 17.2226C13.5331 17.2157 13.5299 17.209 13.5266 17.2023C13.5224 17.1933 13.5181 17.1843 13.5141 17.1746H13.4701V27.9296C13.4701 28.8846 12.6971 29.6586 11.7421 29.6586C10.8011 29.6586 10.0391 28.9066 10.0171 27.9706V23.7816C10.0171 23.3076 9.63608 22.9246 9.16508 22.9176C8.69208 22.9246 8.31108 23.3076 8.31108 23.7816V27.9706C8.29008 28.9066 7.52808 29.6586 6.58708 29.6586C5.63208 29.6586 4.85808 28.8846 4.85808 27.9296V17.1746H4.81408C4.81101 17.1821 4.80775 17.1891 4.80455 17.1961C4.80045 17.2049 4.79645 17.2136 4.79308 17.2226C4.55908 17.7686 4.37308 18.3436 4.19308 18.9216C4.03212 19.4381 3.91105 19.9671 3.79044 20.4941C3.77468 20.563 3.75892 20.6318 3.74308 20.7006L3.72908 20.7616C3.56408 21.4726 2.86908 21.9386 2.14108 21.8096C1.38908 21.6756 0.888085 20.9576 1.02108 20.2066C1.14108 19.5296 1.26308 18.8476 1.42508 18.1786C1.59708 17.5046 1.78008 16.8306 2.02408 16.1636C2.40308 15.1286 2.80208 14.0766 3.45008 13.1746C4.17408 12.1666 5.14008 11.6046 6.34408 11.3336C7.21708 11.1376 8.11908 11.0646 9.01208 11.0646H9.31608C10.2101 11.0646 11.1111 11.1376 11.9841 11.3336C13.1881 11.6046 14.1541 12.1666 14.8791 13.1746C15.5261 14.0766 15.9251 15.1286 16.3041 16.1636Z" fill="#64A3C8"/>
<path fill-rule="evenodd" clip-rule="evenodd" d="M16.2389 0.916604L16.3799 0.775555L16.9012 1.29707L17.297 0.901211L16.7757 0.379837L16.9167 0.238789C16.9713 0.184216 16.9713 0.0955014 16.9167 0.0409292C16.862 -0.0136431 16.7734 -0.0136431 16.7188 0.0409292L16.041 0.718744C15.9863 0.773456 15.9863 0.861891 16.041 0.916604C16.0956 0.971316 16.1842 0.971316 16.2389 0.916604ZM17.8781 0.640183L16.6402 1.87799C16.5855 1.93271 16.5855 2.02142 16.6402 2.07599C16.6948 2.13056 16.7834 2.13056 16.8381 2.07599L17.0217 1.89241L18.2531 3.12392C18.3828 3.25349 18.586 3.26203 18.7271 3.15246L18.8075 3.23278C18.8688 3.29393 18.968 3.29393 19.029 3.23278L19.0567 3.20508L19.4608 3.60905C19.5018 3.65005 19.5683 3.65005 19.6093 3.60905C19.6503 3.56805 19.6503 3.50173 19.6093 3.46073L19.2051 3.05661L19.2328 3.02891C19.2941 2.96762 19.2941 2.86855 19.2328 2.8074L19.1525 2.72708C19.2621 2.58589 19.2537 2.38272 19.124 2.253L17.8925 1.02149L18.0762 0.838042C18.1308 0.78333 18.1308 0.694755 18.0762 0.640183C18.0215 0.585471 17.9328 0.585471 17.8781 0.640183ZM17.8767 1.71461L18.0616 1.52976C18.1025 1.48876 18.1025 1.42215 18.0616 1.3813C18.0206 1.3403 17.954 1.3403 17.913 1.3813L17.7282 1.56628C17.6872 1.60728 17.6872 1.67361 17.7282 1.71461C17.7692 1.75561 17.8357 1.75561 17.8767 1.71461ZM18.3204 1.78846L18.1352 1.9733C18.0944 2.0143 18.0279 2.0143 17.9869 1.9733C17.9461 1.9323 17.9461 1.86584 17.9869 1.82484L18.1719 1.63999C18.2129 1.59899 18.2794 1.59899 18.3204 1.63999C18.3614 1.68099 18.3614 1.74746 18.3204 1.78846ZM18.3941 2.23219L18.579 2.04707C18.62 2.00607 18.62 1.93974 18.579 1.89874C18.538 1.85774 18.4716 1.85774 18.4306 1.89874L18.2457 2.08359C18.2047 2.12459 18.2047 2.1912 18.2457 2.23219C18.2865 2.27305 18.3531 2.27305 18.3941 2.23219ZM18.8377 2.30578L18.6528 2.49077C18.6118 2.53176 18.5454 2.53176 18.5044 2.49077C18.4634 2.44977 18.4634 2.38344 18.5044 2.34244L18.6892 2.15732C18.7302 2.11646 18.7968 2.11646 18.8377 2.15732C18.8787 2.19831 18.8787 2.26492 18.8377 2.30578ZM16.2389 10.7166L16.3799 10.5756L16.9012 11.0971L17.297 10.7012L16.7757 10.1798L16.9167 10.0388C16.9713 9.98422 16.9713 9.8955 16.9167 9.84093C16.862 9.78636 16.7734 9.78636 16.7188 9.84093L16.041 10.5187C15.9863 10.5735 15.9863 10.6619 16.041 10.7166C16.0956 10.7713 16.1842 10.7713 16.2389 10.7166ZM17.8781 10.4402L16.6402 11.678C16.5855 11.7327 16.5855 11.8214 16.6402 11.876C16.6948 11.9306 16.7834 11.9306 16.8381 11.876L17.0217 11.6924L18.2531 12.9239C18.3828 13.0535 18.586 13.062 18.7271 12.9525L18.8075 13.0328C18.8688 13.0939 18.968 13.0939 19.029 13.0328L19.0567 13.0051L19.4608 13.409C19.5018 13.45 19.5683 13.45 19.6093 13.409C19.6503 13.3681 19.6503 13.3017 19.6093 13.2607L19.2051 12.8566L19.2328 12.8289C19.2941 12.7676 19.2941 12.6685 19.2328 12.6074L19.1525 12.5271C19.2621 12.3859 19.2537 12.1827 19.124 12.053L17.8925 10.8215L18.0762 10.638C18.1308 10.5833 18.1308 10.4948 18.0762 10.4402C18.0215 10.3855 17.9328 10.3855 17.8781 10.4402ZM17.8767 11.5146L18.0616 11.3298C18.1025 11.2888 18.1025 11.2222 18.0616 11.1813C18.0206 11.1403 17.954 11.1403 17.913 11.1813L17.7282 11.3663C17.6872 11.4073 17.6872 11.4736 17.7282 11.5146C17.7692 11.5556 17.8357 11.5556 17.8767 11.5146ZM18.3204 11.5885L18.1352 11.7733C18.0944 11.8143 18.0279 11.8143 17.9869 11.7733C17.9461 11.7323 17.9461 11.6658 17.9869 11.6248L18.1719 11.44C18.2129 11.399 18.2794 11.399 18.3204 11.44C18.3614 11.481 18.3614 11.5475 18.3204 11.5885ZM18.3941 12.0322L18.579 11.8471C18.62 11.8061 18.62 11.7397 18.579 11.6987C18.538 11.6577 18.4716 11.6577 18.4306 11.6987L18.2457 11.8836C18.2047 11.9246 18.2047 11.9912 18.2457 12.0322C18.2865 12.0731 18.3531 12.0731 18.3941 12.0322ZM18.8377 12.1058L18.6528 12.2908C18.6118 12.3318 18.5454 12.3318 18.5044 12.2908C18.4634 12.2498 18.4634 12.1834 18.5044 12.1424L18.6892 11.9573C18.7302 11.9165 18.7968 11.9165 18.8377 11.9573C18.8787 11.9983 18.8787 12.0649 18.8377 12.1058ZM16.3799 5.67556L16.2389 5.8166C16.1842 5.87132 16.0956 5.87132 16.041 5.8166C15.9863 5.76189 15.9863 5.67346 16.041 5.61874L16.7188 4.94093C16.7734 4.88636 16.862 4.88636 16.9167 4.94093C16.9713 4.9955 16.9713 5.08422 16.9167 5.13879L16.7757 5.27984L17.297 5.80121L16.9012 6.19707L16.3799 5.67556ZM16.6402 6.778L17.8781 5.54019C17.9328 5.48548 18.0215 5.48548 18.0762 5.54019C18.1308 5.59476 18.1308 5.68334 18.0762 5.73805L17.8925 5.92149L19.124 7.15301C19.2537 7.28272 19.2621 7.4859 19.1525 7.62709L19.2328 7.70741C19.2941 7.76856 19.2941 7.86762 19.2328 7.92891L19.2051 7.95662L19.6093 8.36073C19.6503 8.40173 19.6503 8.46806 19.6093 8.50906C19.5683 8.55006 19.5018 8.55006 19.4608 8.50906L19.0567 8.10508L19.029 8.13279C18.968 8.19394 18.8688 8.19394 18.8075 8.13279L18.7271 8.05247C18.586 8.16203 18.3828 8.1535 18.2531 8.02392L17.0217 6.79241L16.8381 6.976C16.7834 7.03057 16.6948 7.03057 16.6402 6.976C16.5855 6.92143 16.5855 6.83271 16.6402 6.778ZM18.0616 6.42977L17.8767 6.61461C17.8357 6.65561 17.7692 6.65561 17.7282 6.61461C17.6872 6.57361 17.6872 6.50729 17.7282 6.46629L17.913 6.2813C17.954 6.2403 18.0206 6.2403 18.0616 6.2813C18.1025 6.32216 18.1025 6.38877 18.0616 6.42977ZM18.1352 6.87331L18.3204 6.68846C18.3614 6.64746 18.3614 6.581 18.3204 6.54C18.2794 6.499 18.2129 6.499 18.1719 6.54L17.9869 6.72485C17.9461 6.76584 17.9461 6.83231 17.9869 6.87331C18.0279 6.91431 18.0944 6.91431 18.1352 6.87331ZM18.579 6.94707L18.3941 7.1322C18.3531 7.17306 18.2865 7.17306 18.2457 7.1322C18.2047 7.0912 18.2047 7.0246 18.2457 6.9836L18.4306 6.79875C18.4716 6.75775 18.538 6.75775 18.579 6.79875C18.62 6.83975 18.62 6.90608 18.579 6.94707ZM18.6528 7.39077L18.8377 7.20579C18.8787 7.16493 18.8787 7.09832 18.8377 7.05732C18.7968 7.01646 18.7302 7.01646 18.6892 7.05732L18.5044 7.24245C18.4634 7.28345 18.4634 7.34977 18.5044 7.39077C18.5454 7.43177 18.6118 7.43177 18.6528 7.39077ZM28.95 2.92869H21.95C21.3701 2.92869 20.9 2.45859 20.9 1.87869C20.9 1.29879 21.3701 0.828687 21.95 0.828687H28.95C29.5299 0.828687 30 1.29879 30 1.87869C30 2.45859 29.5299 2.92869 28.95 2.92869ZM21.95 7.82869H28.95C29.5299 7.82869 30 7.35859 30 6.77869C30 6.19879 29.5299 5.72869 28.95 5.72869H21.95C21.3701 5.72869 20.9 6.19879 20.9 6.77869C20.9 7.35859 21.3701 7.82869 21.95 7.82869ZM28.95 12.7287H21.95C21.3701 12.7287 20.9 12.2586 20.9 11.6787C20.9 11.0988 21.3701 10.6287 21.95 10.6287H28.95C29.5299 10.6287 30 11.0988 30 11.6787C30 12.2586 29.5299 12.7287 28.95 12.7287Z" fill="#64A3C8"/>
<mask id="mask0_6_8612" style="mask-type:luminance" maskUnits="userSpaceOnUse" x="0" y="1" width="18" height="29">
<path fill-rule="evenodd" clip-rule="evenodd" d="M13.3128 5.9291C13.3128 8.2211 11.4558 10.0781 9.16479 10.0781C6.87278 10.0781 5.01578 8.2211 5.01578 5.9291C5.01578 3.6381 6.87278 1.7801 9.16479 1.7801C11.4558 1.7801 13.3128 3.6381 13.3128 5.9291ZM16.3041 16.1636C16.5491 16.8306 16.7311 17.5046 16.9031 18.1786C17.0651 18.8476 17.1871 19.5296 17.3071 20.2066C17.4401 20.9576 16.9391 21.6756 16.1871 21.8096C15.4601 21.9386 14.7641 21.4726 14.5991 20.7616L14.5861 20.7006C14.5702 20.6318 14.5545 20.563 14.5387 20.4941C14.4181 19.9671 14.297 19.4381 14.1361 18.9216C13.9561 18.3436 13.7691 17.7686 13.5361 17.2226C13.5331 17.2157 13.5299 17.209 13.5266 17.2023C13.5224 17.1933 13.5181 17.1843 13.5141 17.1746H13.4701V27.9296C13.4701 28.8846 12.6971 29.6586 11.7421 29.6586C10.8011 29.6586 10.0391 28.9066 10.0171 27.9706V23.7816C10.0171 23.3076 9.63608 22.9246 9.16508 22.9176C8.69208 22.9246 8.31108 23.3076 8.31108 23.7816V27.9706C8.29008 28.9066 7.52808 29.6586 6.58708 29.6586C5.63208 29.6586 4.85808 28.8846 4.85808 27.9296V17.1746H4.81408C4.81101 17.1821 4.80775 17.1891 4.80455 17.1961C4.80045 17.2049 4.79645 17.2136 4.79308 17.2226C4.55908 17.7686 4.37308 18.3436 4.19308 18.9216C4.03212 19.4381 3.91105 19.9671 3.79044 20.4941C3.77468 20.563 3.75892 20.6318 3.74308 20.7006L3.72908 20.7616C3.56408 21.4726 2.86908 21.9386 2.14108 21.8096C1.38908 21.6756 0.888085 20.9576 1.02108 20.2066C1.14108 19.5296 1.26308 18.8476 1.42508 18.1786C1.59708 17.5046 1.78008 16.8306 2.02408 16.1636C2.40308 15.1286 2.80208 14.0766 3.45008 13.1746C4.17408 12.1666 5.14008 11.6046 6.34408 11.3336C7.21708 11.1376 8.11908 11.0646 9.01208 11.0646H9.31608C10.2101 11.0646 11.1111 11.1376 11.9841 11.3336C13.1881 11.6046 14.1541 12.1666 14.8791 13.1746C15.5261 14.0766 15.9251 15.1286 16.3041 16.1636Z" fill="white"/>
</mask>
<g mask="url(#mask0_6_8612)">
<rect width="30" height="30" fill="#64A3C8"/>
</g>
</svg>
