<svg width="30" height="30" viewBox="0 0 30 30" fill="none" xmlns="http://www.w3.org/2000/svg">
<path fill-rule="evenodd" clip-rule="evenodd" d="M13.3128 5.9291C13.3128 8.2211 11.4558 10.0781 9.16479 10.0781C6.87278 10.0781 5.01578 8.2211 5.01578 5.9291C5.01578 3.6381 6.87278 1.7801 9.16479 1.7801C11.4558 1.7801 13.3128 3.6381 13.3128 5.9291ZM16.3041 16.1636C16.5491 16.8306 16.7311 17.5046 16.9031 18.1786C17.0651 18.8476 17.1871 19.5296 17.3071 20.2066C17.4401 20.9576 16.9391 21.6756 16.1871 21.8096C15.4601 21.9386 14.7641 21.4726 14.5991 20.7616L14.5861 20.7006C14.5702 20.6318 14.5545 20.563 14.5387 20.4941C14.4181 19.9671 14.297 19.4381 14.1361 18.9216C13.9561 18.3436 13.7691 17.7686 13.5361 17.2226C13.5331 17.2157 13.5299 17.209 13.5266 17.2023C13.5224 17.1933 13.5181 17.1843 13.5141 17.1746H13.4701V27.9296C13.4701 28.8846 12.6971 29.6586 11.7421 29.6586C10.8011 29.6586 10.0391 28.9066 10.0171 27.9706V23.7816C10.0171 23.3076 9.63608 22.9246 9.16508 22.9176C8.69208 22.9246 8.31108 23.3076 8.31108 23.7816V27.9706C8.29008 28.9066 7.52808 29.6586 6.58708 29.6586C5.63208 29.6586 4.85808 28.8846 4.85808 27.9296V17.1746H4.81408C4.81101 17.1821 4.80775 17.1891 4.80455 17.1961C4.80045 17.2049 4.79645 17.2136 4.79308 17.2226C4.55908 17.7686 4.37308 18.3436 4.19308 18.9216C4.03212 19.4381 3.91105 19.9671 3.79044 20.4941C3.77468 20.563 3.75892 20.6318 3.74308 20.7006L3.72908 20.7616C3.56408 21.4726 2.86908 21.9386 2.14108 21.8096C1.38908 21.6756 0.888085 20.9576 1.02108 20.2066C1.14108 19.5296 1.26308 18.8476 1.42508 18.1786C1.59708 17.5046 1.78008 16.8306 2.02408 16.1636C2.40308 15.1286 2.80208 14.0766 3.45008 13.1746C4.17408 12.1666 5.14008 11.6046 6.34408 11.3336C7.21708 11.1376 8.11908 11.0646 9.01208 11.0646H9.31608C10.2101 11.0646 11.1111 11.1376 11.9841 11.3336C13.1881 11.6046 14.1541 12.1666 14.8791 13.1746C15.5261 14.0766 15.9251 15.1286 16.3041 16.1636Z" fill="#64A3C8"/>
<path fill-rule="evenodd" clip-rule="evenodd" d="M27.2 11.4074V4.84815L24.2 1.86667H20C19.3373 1.86667 18.8 2.40061 18.8 3.05926V11.4074C18.8 12.066 19.3373 12.6 20 12.6H26C26.6627 12.6 27.2 12.066 27.2 11.4074ZM26.0515 4.55L24.5 3.00811V4.55H26.0515ZM25.4193 6.91879C25.5602 6.7788 25.5602 6.55181 25.4193 6.41182C25.2785 6.27183 25.0501 6.27183 24.9092 6.41182L22.2786 9.02622L21.0908 7.84576C20.9499 7.70577 20.7215 7.70577 20.5807 7.84576C20.4398 7.98575 20.4398 8.21274 20.5807 8.35273L22.2786 10.0402L25.4193 6.91879Z" fill="#64A3C8"/>
<mask id="mask0_6_8413" style="mask-type:luminance" maskUnits="userSpaceOnUse" x="0" y="1" width="18" height="29">
<path fill-rule="evenodd" clip-rule="evenodd" d="M13.3128 5.9291C13.3128 8.2211 11.4558 10.0781 9.16479 10.0781C6.87278 10.0781 5.01578 8.2211 5.01578 5.9291C5.01578 3.6381 6.87278 1.7801 9.16479 1.7801C11.4558 1.7801 13.3128 3.6381 13.3128 5.9291ZM16.3041 16.1636C16.5491 16.8306 16.7311 17.5046 16.9031 18.1786C17.0651 18.8476 17.1871 19.5296 17.3071 20.2066C17.4401 20.9576 16.9391 21.6756 16.1871 21.8096C15.4601 21.9386 14.7641 21.4726 14.5991 20.7616L14.5861 20.7006C14.5702 20.6318 14.5545 20.563 14.5387 20.4941C14.4181 19.9671 14.297 19.4381 14.1361 18.9216C13.9561 18.3436 13.7691 17.7686 13.5361 17.2226C13.5331 17.2157 13.5299 17.209 13.5266 17.2023C13.5224 17.1933 13.5181 17.1843 13.5141 17.1746H13.4701V27.9296C13.4701 28.8846 12.6971 29.6586 11.7421 29.6586C10.8011 29.6586 10.0391 28.9066 10.0171 27.9706V23.7816C10.0171 23.3076 9.63608 22.9246 9.16508 22.9176C8.69208 22.9246 8.31108 23.3076 8.31108 23.7816V27.9706C8.29008 28.9066 7.52808 29.6586 6.58708 29.6586C5.63208 29.6586 4.85808 28.8846 4.85808 27.9296V17.1746H4.81408C4.81101 17.1821 4.80775 17.1891 4.80455 17.1961C4.80045 17.2049 4.79645 17.2136 4.79308 17.2226C4.55908 17.7686 4.37308 18.3436 4.19308 18.9216C4.03212 19.4381 3.91105 19.9671 3.79044 20.4941C3.77468 20.563 3.75892 20.6318 3.74308 20.7006L3.72908 20.7616C3.56408 21.4726 2.86908 21.9386 2.14108 21.8096C1.38908 21.6756 0.888085 20.9576 1.02108 20.2066C1.14108 19.5296 1.26308 18.8476 1.42508 18.1786C1.59708 17.5046 1.78008 16.8306 2.02408 16.1636C2.40308 15.1286 2.80208 14.0766 3.45008 13.1746C4.17408 12.1666 5.14008 11.6046 6.34408 11.3336C7.21708 11.1376 8.11908 11.0646 9.01208 11.0646H9.31608C10.2101 11.0646 11.1111 11.1376 11.9841 11.3336C13.1881 11.6046 14.1541 12.1666 14.8791 13.1746C15.5261 14.0766 15.9251 15.1286 16.3041 16.1636Z" fill="white"/>
</mask>
<g mask="url(#mask0_6_8413)">
<rect width="30" height="30" fill="#64A3C8"/>
</g>
</svg>
