<svg width="30" height="30" viewBox="0 0 30 30" fill="none" xmlns="http://www.w3.org/2000/svg">
<g clip-path="url(#clip0_58_3767)">
<mask id="mask0_58_3767" style="mask-type:luminance" maskUnits="userSpaceOnUse" x="2" y="2" width="27" height="27">
<path d="M8.42889 2.06494L2.31797 8.17586L22.4698 28.3277L28.5808 22.2168L8.42889 2.06494Z" fill="white"/>
</mask>
<g mask="url(#mask0_58_3767)">
<path fill-rule="evenodd" clip-rule="evenodd" d="M12.1788 11.9271C13.4081 10.6978 13.4081 8.70267 12.1788 7.47337C10.9495 6.24406 8.95436 6.24406 7.72505 7.47337C6.49575 8.70267 6.49743 10.6961 7.72673 11.9254C8.95604 13.1547 10.9495 13.1564 12.1788 11.9271ZM24.0755 20.3744L20.6277 23.8221L12.2795 15.4739L15.7273 12.0262L24.0755 20.3744ZM3.20248 7.29031L7.542 2.9508C8.03238 2.46042 8.82672 2.4621 9.31542 2.9508L27.6945 21.3299C28.1849 21.8203 28.1849 22.613 27.6945 23.1033L23.355 27.4429C22.8663 27.9316 22.0737 27.9316 21.5833 27.4412L3.20416 9.06206C2.71547 8.57336 2.71379 7.77901 3.20248 7.29031ZM22.9066 20.3744L20.6244 22.6566L13.4433 15.4756L15.7256 13.1933L22.9066 20.3744ZM10.8101 10.5584C11.2837 10.0848 11.2837 9.31564 10.8101 8.84206C10.3382 8.37015 9.56901 8.37015 9.09542 8.84374C8.62352 9.31564 8.62352 10.0848 9.09542 10.5567C9.56901 11.0303 10.3382 11.0303 10.8101 10.5584ZM8.23558 7.9839C9.18275 7.03673 10.7194 7.03841 11.6666 7.98558C12.6137 8.93275 12.6154 10.4694 11.6682 11.4165C10.7227 12.362 9.18443 12.362 8.23726 11.4149C7.29009 10.4677 7.29009 8.92939 8.23558 7.9839Z" fill="#8EB41D"/>
</g>
<path d="M21.5482 2.8235C21.2034 2.44379 20.6337 2.43244 20.2757 2.79814C19.9177 3.16385 19.907 3.76812 20.2518 4.14783L22.5763 6.70762C22.9237 7.09028 23.499 7.09839 23.8559 6.72567L28.7314 1.63476C29.0856 1.2649 29.0901 0.660538 28.7413 0.284868C28.3926 -0.0908031 27.8228 -0.0955193 27.4686 0.274334L23.2415 4.68817L21.5482 2.8235Z" fill="#8EB41D" stroke="#8EB41D" stroke-width="0.5"/>
</g>
<defs>
<clipPath id="clip0_58_3767">
<rect width="30" height="30" fill="white"/>
</clipPath>
</defs>
</svg>
