<svg width="30" height="30" viewBox="0 0 30 30" fill="none" xmlns="http://www.w3.org/2000/svg">
<path fill-rule="evenodd" clip-rule="evenodd" d="M3.56175 17.3431C5.52664 17.3431 7.12112 15.797 7.12112 13.8921C7.12112 11.9872 5.52664 10.4423 3.56175 10.4423C1.60279 10.4423 0.0118725 11.9756 0 13.8725V13.8921C0 15.797 1.59566 17.3431 3.56175 17.3431Z" fill="#64A3C8"/>
<path fill-rule="evenodd" clip-rule="evenodd" d="M26.4395 17.3431C24.4734 17.3431 22.8789 15.797 22.8789 13.8921C22.8789 11.9872 24.4734 10.4423 26.4395 10.4423C28.3972 10.4423 29.9882 11.9756 30 13.8725V13.8921C30 15.797 28.4044 17.3431 26.4395 17.3431Z" fill="#64A3C8"/>
<path fill-rule="evenodd" clip-rule="evenodd" d="M9.34723 30H3.33975C1.84857 30 0.637573 28.8266 0.637573 27.3818V21.162C0.637573 19.7172 1.84857 18.5438 3.33975 18.5438C4.83212 18.5438 6.04312 19.7172 6.04312 21.162V24.7625H9.34723C10.8396 24.7625 12.0494 25.9358 12.0494 27.3818C12.0494 28.8266 10.8396 30 9.34723 30Z" fill="#64A3C8"/>
<path fill-rule="evenodd" clip-rule="evenodd" d="M26.6598 30H20.6523C19.1611 30 17.9501 28.8266 17.9501 27.3818C17.9501 25.9358 19.1611 24.7625 20.6523 24.7625H23.9576V21.162C23.9576 19.7172 25.1674 18.5438 26.6598 18.5438C28.1522 18.5438 29.362 19.7172 29.362 21.162V27.3818C29.362 28.8266 28.1522 30 26.6598 30Z" fill="#64A3C8"/>
<path fill-rule="evenodd" clip-rule="evenodd" d="M17.4941 2.65804C17.4941 4.12555 16.2624 5.31333 14.7416 5.31333C13.22 5.31333 11.9885 4.12555 11.9885 2.65804C11.9885 1.19107 13.22 0 14.7416 0C16.2624 0 17.4941 1.19107 17.4941 2.65804ZM20.7587 10.5475C20.7659 10.5877 20.7716 10.6285 20.7748 10.669C20.7805 10.7463 20.7776 10.8296 20.7663 10.9082C20.7642 10.9239 20.7608 10.9418 20.7566 10.9608C20.7485 10.999 20.7371 11.0421 20.7233 11.0836C20.7165 11.104 20.7089 11.1243 20.701 11.1431L20.692 11.1632C20.6594 11.2361 20.6359 11.2889 20.5469 11.4028C20.5253 11.4294 20.502 11.4552 20.4774 11.4801C20.4034 11.5542 20.3172 11.6187 20.2299 11.6662L20.2118 11.6759L20.0669 11.7468C20.0168 11.7707 19.9643 11.7947 19.9111 11.8175C19.8578 11.8404 19.8038 11.8623 19.7504 11.8824C19.6433 11.9233 19.537 11.9595 19.4325 11.9916C19.3282 12.0238 19.2254 12.0521 19.1249 12.077C18.9237 12.1272 18.7285 12.1672 18.5369 12.201C18.3453 12.235 18.1575 12.263 17.9704 12.2889C17.9476 12.2915 17.925 12.2938 17.9025 12.2962L17.9024 12.2962C17.8795 12.2985 17.8566 12.3009 17.8336 12.3035L17.7682 12.3104L17.7353 12.3139L17.8154 13.7383H11.6671L11.8646 10.2254L10.8405 13.7383H8.69897C9.19215 11.6465 9.83166 9.12988 10.236 8.29601L10.2444 8.26184V8.25088C10.9714 6.81534 11.6993 5.95076 14.4569 5.95076H14.4648H14.7333V6.05893L14.7494 5.95076H15.018H15.026C16.0163 5.95076 17.1142 6.0339 17.9513 6.60066C18.6516 7.07471 19.1727 7.88148 19.6514 8.6226C19.7839 8.82781 19.9132 9.02798 20.0421 9.21466C20.0936 9.28975 20.1451 9.36521 20.1963 9.44213C20.2477 9.51905 20.2989 9.59762 20.3505 9.67874C20.402 9.76023 20.4537 9.84373 20.5075 9.93709L20.5304 9.9786C20.5431 10.0014 20.5558 10.0242 20.5686 10.0485C20.5756 10.0613 20.5826 10.0747 20.59 10.0889C20.619 10.1452 20.6504 10.2122 20.6883 10.3054L20.7201 10.3953L20.7396 10.4626L20.7438 10.4793C20.7468 10.4907 20.7495 10.501 20.7528 10.5177L20.7587 10.5475ZM17.7879 10.3413L17.7424 10.3501C17.712 10.356 17.6817 10.362 17.651 10.3676C17.6439 10.369 17.6365 10.3702 17.6292 10.3713L17.6262 10.3718L17.5744 9.44416C17.5905 9.46498 17.6069 9.48576 17.6233 9.50656L17.6233 9.50665C17.6419 9.53017 17.6604 9.55371 17.6787 9.57735C17.854 9.80245 18.0259 10.0301 18.1915 10.2572C18.0605 10.2875 17.925 10.3149 17.7879 10.3413ZM15.6316 10.6663C16.0583 10.6106 16.4824 10.5548 16.8995 10.4924V8.67678C16.8995 8.31265 16.6145 8.01173 16.248 7.97025V7.96495H16.1615H15.7285H15.7244V7.76745C15.7244 7.63681 15.6147 7.5312 15.4798 7.5312H14.0417C13.9067 7.5312 13.7971 7.63681 13.7971 7.76745V7.96495H13.7929H13.4132H13.36C12.9531 7.96495 12.622 8.28433 12.622 8.67678V12.3958C12.622 12.7883 12.9531 13.1076 13.36 13.1076L16.1615 13.1073C16.5685 13.1073 16.8995 12.7881 16.8995 12.3954V12.3914C16.524 12.4194 16.1517 12.4386 15.7802 12.449C15.2679 12.4632 14.8406 12.0742 14.8259 11.5798C14.812 11.1189 15.1619 10.7291 15.6244 10.6672L15.6316 10.6663Z" fill="#231F20"/>
<mask id="mask0_71_4912" style="mask-type:luminance" maskUnits="userSpaceOnUse" x="8" y="0" width="13" height="14">
<path fill-rule="evenodd" clip-rule="evenodd" d="M17.4941 2.65804C17.4941 4.12555 16.2624 5.31333 14.7416 5.31333C13.22 5.31333 11.9885 4.12555 11.9885 2.65804C11.9885 1.19107 13.22 0 14.7416 0C16.2624 0 17.4941 1.19107 17.4941 2.65804ZM20.7587 10.5475C20.7659 10.5877 20.7716 10.6285 20.7748 10.669C20.7805 10.7463 20.7776 10.8296 20.7663 10.9082C20.7642 10.9239 20.7608 10.9418 20.7566 10.9608C20.7485 10.999 20.7371 11.0421 20.7233 11.0836C20.7165 11.104 20.7089 11.1243 20.701 11.1431L20.692 11.1632C20.6594 11.2361 20.6359 11.2889 20.5469 11.4028C20.5253 11.4294 20.502 11.4552 20.4774 11.4801C20.4034 11.5542 20.3172 11.6187 20.2299 11.6662L20.2118 11.6759L20.0669 11.7468C20.0168 11.7707 19.9643 11.7947 19.9111 11.8175C19.8578 11.8404 19.8038 11.8623 19.7504 11.8824C19.6433 11.9233 19.537 11.9595 19.4325 11.9916C19.3282 12.0238 19.2254 12.0521 19.1249 12.077C18.9237 12.1272 18.7285 12.1672 18.5369 12.201C18.3453 12.235 18.1575 12.263 17.9704 12.2889C17.9476 12.2915 17.925 12.2938 17.9025 12.2962L17.9024 12.2962C17.8795 12.2985 17.8566 12.3009 17.8336 12.3035L17.7682 12.3104L17.7353 12.3139L17.8154 13.7383H11.6671L11.8646 10.2254L10.8405 13.7383H8.69897C9.19215 11.6465 9.83166 9.12988 10.236 8.29601L10.2444 8.26184V8.25088C10.9714 6.81534 11.6993 5.95076 14.4569 5.95076H14.4648H14.7333V6.05893L14.7494 5.95076H15.018H15.026C16.0163 5.95076 17.1142 6.0339 17.9513 6.60066C18.6516 7.07471 19.1727 7.88148 19.6514 8.6226C19.7839 8.82781 19.9132 9.02798 20.0421 9.21466C20.0936 9.28975 20.1451 9.36521 20.1963 9.44213C20.2477 9.51905 20.2989 9.59762 20.3505 9.67874C20.402 9.76023 20.4537 9.84373 20.5075 9.93709L20.5304 9.9786C20.5431 10.0014 20.5558 10.0242 20.5686 10.0485C20.5756 10.0613 20.5826 10.0747 20.59 10.0889C20.619 10.1452 20.6504 10.2122 20.6883 10.3054L20.7201 10.3953L20.7396 10.4626L20.7438 10.4793C20.7468 10.4907 20.7495 10.501 20.7528 10.5177L20.7587 10.5475ZM17.7879 10.3413L17.7424 10.3501C17.712 10.356 17.6817 10.362 17.651 10.3676C17.6439 10.369 17.6365 10.3702 17.6292 10.3713L17.6262 10.3718L17.5744 9.44416C17.5905 9.46498 17.6069 9.48576 17.6233 9.50656L17.6233 9.50665C17.6419 9.53017 17.6604 9.55371 17.6787 9.57735C17.854 9.80245 18.0259 10.0301 18.1915 10.2572C18.0605 10.2875 17.925 10.3149 17.7879 10.3413ZM15.6316 10.6663C16.0583 10.6106 16.4824 10.5548 16.8995 10.4924V8.67678C16.8995 8.31265 16.6145 8.01173 16.248 7.97025V7.96495H16.1615H15.7285H15.7244V7.76745C15.7244 7.63681 15.6147 7.5312 15.4798 7.5312H14.0417C13.9067 7.5312 13.7971 7.63681 13.7971 7.76745V7.96495H13.7929H13.4132H13.36C12.9531 7.96495 12.622 8.28433 12.622 8.67678V12.3958C12.622 12.7883 12.9531 13.1076 13.36 13.1076L16.1615 13.1073C16.5685 13.1073 16.8995 12.7881 16.8995 12.3954V12.3914C16.524 12.4194 16.1517 12.4386 15.7802 12.449C15.2679 12.4632 14.8406 12.0742 14.8259 11.5798C14.812 11.1189 15.1619 10.7291 15.6244 10.6672L15.6316 10.6663Z" fill="white"/>
</mask>
<g mask="url(#mask0_71_4912)">
<rect x="7.12354" y="-0.508911" width="15.7548" height="15.2649" fill="#64A3C8"/>
</g>
<path fill-rule="evenodd" clip-rule="evenodd" d="M17.4941 2.65804C17.4941 4.12555 16.2624 5.31333 14.7416 5.31333C13.22 5.31333 11.9885 4.12555 11.9885 2.65804C11.9885 1.19107 13.22 0 14.7416 0C16.2624 0 17.4941 1.19107 17.4941 2.65804ZM20.7587 10.5475C20.7659 10.5877 20.7716 10.6285 20.7748 10.669C20.7805 10.7463 20.7776 10.8296 20.7663 10.9082C20.7642 10.9239 20.7608 10.9418 20.7566 10.9608C20.7485 10.999 20.7371 11.0421 20.7233 11.0836C20.7165 11.104 20.7089 11.1243 20.701 11.1431L20.692 11.1632C20.6594 11.2361 20.6359 11.2889 20.5469 11.4028C20.5253 11.4294 20.502 11.4552 20.4774 11.4801C20.4034 11.5542 20.3172 11.6187 20.2299 11.6662L20.2118 11.6759L20.0669 11.7468C20.0168 11.7707 19.9643 11.7947 19.9111 11.8175C19.8578 11.8404 19.8038 11.8623 19.7504 11.8824C19.6433 11.9233 19.537 11.9595 19.4325 11.9916C19.3282 12.0238 19.2254 12.0521 19.1249 12.077C18.9237 12.1272 18.7285 12.1672 18.5369 12.201C18.3453 12.235 18.1575 12.263 17.9704 12.2889C17.9476 12.2915 17.925 12.2938 17.9025 12.2962L17.9024 12.2962C17.8795 12.2985 17.8566 12.3009 17.8336 12.3035L17.7682 12.3104L17.7353 12.3139L17.8154 13.7383H11.6671L11.8646 10.2254L10.8405 13.7383H8.69897C9.19215 11.6465 9.83166 9.12988 10.236 8.29601L10.2444 8.26184V8.25088C10.9714 6.81534 11.6993 5.95076 14.4569 5.95076H14.4648H14.7333V6.05893L14.7494 5.95076H15.018H15.026C16.0163 5.95076 17.1142 6.0339 17.9513 6.60066C18.6516 7.07471 19.1727 7.88148 19.6514 8.6226C19.7839 8.82781 19.9132 9.02798 20.0421 9.21466C20.0936 9.28975 20.1451 9.36521 20.1963 9.44213C20.2477 9.51905 20.2989 9.59762 20.3505 9.67874C20.402 9.76023 20.4537 9.84373 20.5075 9.93709L20.5304 9.9786C20.5431 10.0014 20.5558 10.0242 20.5686 10.0485C20.5756 10.0613 20.5826 10.0747 20.59 10.0889C20.619 10.1452 20.6504 10.2122 20.6883 10.3054L20.7201 10.3953L20.7396 10.4626L20.7438 10.4793C20.7468 10.4907 20.7495 10.501 20.7528 10.5177L20.7587 10.5475ZM17.7879 10.3413L17.7424 10.3501C17.712 10.356 17.6817 10.362 17.651 10.3676C17.6439 10.369 17.6365 10.3702 17.6292 10.3713L17.6262 10.3718L17.5744 9.44416C17.5905 9.46498 17.6069 9.48576 17.6233 9.50656L17.6233 9.50665C17.6419 9.53017 17.6604 9.55371 17.6787 9.57735C17.854 9.80245 18.0259 10.0301 18.1915 10.2572C18.0605 10.2875 17.925 10.3149 17.7879 10.3413ZM15.6316 10.6663C16.0583 10.6106 16.4824 10.5548 16.8995 10.4924V8.67678C16.8995 8.31265 16.6145 8.01173 16.248 7.97025V7.96495H16.1615H15.7285H15.7244V7.76745C15.7244 7.63681 15.6147 7.5312 15.4798 7.5312H14.0417C13.9067 7.5312 13.7971 7.63681 13.7971 7.76745V7.96495H13.7929H13.4132H13.36C12.9531 7.96495 12.622 8.28433 12.622 8.67678V12.3958C12.622 12.7883 12.9531 13.1076 13.36 13.1076L16.1615 13.1073C16.5685 13.1073 16.8995 12.7881 16.8995 12.3954V12.3914C16.524 12.4194 16.1517 12.4386 15.7802 12.449C15.2679 12.4632 14.8406 12.0742 14.8259 11.5798C14.812 11.1189 15.1619 10.7291 15.6244 10.6672L15.6316 10.6663Z" fill="#231F20"/>
<mask id="mask1_71_4912" style="mask-type:luminance" maskUnits="userSpaceOnUse" x="8" y="0" width="13" height="14">
<path fill-rule="evenodd" clip-rule="evenodd" d="M17.4941 2.65804C17.4941 4.12555 16.2624 5.31333 14.7416 5.31333C13.22 5.31333 11.9885 4.12555 11.9885 2.65804C11.9885 1.19107 13.22 0 14.7416 0C16.2624 0 17.4941 1.19107 17.4941 2.65804ZM20.7587 10.5475C20.7659 10.5877 20.7716 10.6285 20.7748 10.669C20.7805 10.7463 20.7776 10.8296 20.7663 10.9082C20.7642 10.9239 20.7608 10.9418 20.7566 10.9608C20.7485 10.999 20.7371 11.0421 20.7233 11.0836C20.7165 11.104 20.7089 11.1243 20.701 11.1431L20.692 11.1632C20.6594 11.2361 20.6359 11.2889 20.5469 11.4028C20.5253 11.4294 20.502 11.4552 20.4774 11.4801C20.4034 11.5542 20.3172 11.6187 20.2299 11.6662L20.2118 11.6759L20.0669 11.7468C20.0168 11.7707 19.9643 11.7947 19.9111 11.8175C19.8578 11.8404 19.8038 11.8623 19.7504 11.8824C19.6433 11.9233 19.537 11.9595 19.4325 11.9916C19.3282 12.0238 19.2254 12.0521 19.1249 12.077C18.9237 12.1272 18.7285 12.1672 18.5369 12.201C18.3453 12.235 18.1575 12.263 17.9704 12.2889C17.9476 12.2915 17.925 12.2938 17.9025 12.2962L17.9024 12.2962C17.8795 12.2985 17.8566 12.3009 17.8336 12.3035L17.7682 12.3104L17.7353 12.3139L17.8154 13.7383H11.6671L11.8646 10.2254L10.8405 13.7383H8.69897C9.19215 11.6465 9.83166 9.12988 10.236 8.29601L10.2444 8.26184V8.25088C10.9714 6.81534 11.6993 5.95076 14.4569 5.95076H14.4648H14.7333V6.05893L14.7494 5.95076H15.018H15.026C16.0163 5.95076 17.1142 6.0339 17.9513 6.60066C18.6516 7.07471 19.1727 7.88148 19.6514 8.6226C19.7839 8.82781 19.9132 9.02798 20.0421 9.21466C20.0936 9.28975 20.1451 9.36521 20.1963 9.44213C20.2477 9.51905 20.2989 9.59762 20.3505 9.67874C20.402 9.76023 20.4537 9.84373 20.5075 9.93709L20.5304 9.9786C20.5431 10.0014 20.5558 10.0242 20.5686 10.0485C20.5756 10.0613 20.5826 10.0747 20.59 10.0889C20.619 10.1452 20.6504 10.2122 20.6883 10.3054L20.7201 10.3953L20.7396 10.4626L20.7438 10.4793C20.7468 10.4907 20.7495 10.501 20.7528 10.5177L20.7587 10.5475ZM17.7879 10.3413L17.7424 10.3501C17.712 10.356 17.6817 10.362 17.651 10.3676C17.6439 10.369 17.6365 10.3702 17.6292 10.3713L17.6262 10.3718L17.5744 9.44416C17.5905 9.46498 17.6069 9.48576 17.6233 9.50656L17.6233 9.50665C17.6419 9.53017 17.6604 9.55371 17.6787 9.57735C17.854 9.80245 18.0259 10.0301 18.1915 10.2572C18.0605 10.2875 17.925 10.3149 17.7879 10.3413ZM15.6316 10.6663C16.0583 10.6106 16.4824 10.5548 16.8995 10.4924V8.67678C16.8995 8.31265 16.6145 8.01173 16.248 7.97025V7.96495H16.1615H15.7285H15.7244V7.76745C15.7244 7.63681 15.6147 7.5312 15.4798 7.5312H14.0417C13.9067 7.5312 13.7971 7.63681 13.7971 7.76745V7.96495H13.7929H13.4132H13.36C12.9531 7.96495 12.622 8.28433 12.622 8.67678V12.3958C12.622 12.7883 12.9531 13.1076 13.36 13.1076L16.1615 13.1073C16.5685 13.1073 16.8995 12.7881 16.8995 12.3954V12.3914C16.524 12.4194 16.1517 12.4386 15.7802 12.449C15.2679 12.4632 14.8406 12.0742 14.8259 11.5798C14.812 11.1189 15.1619 10.7291 15.6244 10.6672L15.6316 10.6663Z" fill="white"/>
</mask>
<g mask="url(#mask1_71_4912)">
<rect x="7.12354" y="-0.508911" width="15.7548" height="15.2649" fill="#64A3C8"/>
</g>
</svg>
