<svg width="30" height="30" viewBox="0 0 30 30" fill="none" xmlns="http://www.w3.org/2000/svg">
<path fill-rule="evenodd" clip-rule="evenodd" d="M6.86113 3C6.09404 3 5.47223 3.62183 5.47223 4.38889V5.08334H2V18.2778H17.2778V5.08334H13.8056V4.38889C13.8056 3.62183 13.1838 3 12.4167 3H6.86113ZM12.4167 11.3334C13.1838 11.3334 13.8056 10.7116 13.8056 9.94447V9.25002H15.8889V16.8889H12.4167V12.7223H6.86113V16.8889H3.38889V9.25002H5.47223V9.94447C5.47223 10.7116 6.09404 11.3334 6.86113 11.3334H12.4167ZM3.38889 6.47223H5.47223V7.86113H3.38889V6.47223ZM15.8889 7.86113H13.8056V6.47223H15.8889V7.86113ZM11.0278 14.1111V16.8889H8.25002V14.1111H11.0278ZM8.94447 4.38889V6.47223H6.86113V7.86113H8.94447V9.94447H10.3334V7.86113H12.4167V6.47223H10.3334V4.38889H8.94447Z" fill="#64A3C8"/>
<path d="M18.5 26.611C16.6458 26.611 15.8892 26.611 15.8892 26.611H9.63915C9.13318 26.611 8.8047 26.4281 8.59568 26.193C8.37533 25.9451 8.25026 25.5949 8.25026 25.2221V22.7319L10.537 25.0187L11.5191 24.0366L7.55581 20.0733L3.59253 24.0366L4.57463 25.0187L6.86137 22.7319V25.2221C6.86137 25.8909 7.08352 26.5824 7.55762 27.1158C8.04304 27.6619 8.75623 27.9999 9.63915 27.9999H23V26.611C23 26.611 27 26.611 18.5 26.611Z" fill="#64A3C8"/>
<path fill-rule="evenodd" clip-rule="evenodd" d="M22.3501 16.548C21.6589 16.548 21.0975 15.9773 21.0975 15.274C21.0975 14.5707 21.6589 14 22.3501 14C23.0417 14 23.6031 14.5707 23.6031 15.274C23.6031 15.9773 23.0417 16.548 22.3501 16.548ZM20.3335 20.1886C20.6448 19.5357 21.0629 18.9421 21.5002 18.3681C21.5723 18.2734 21.6443 18.1746 21.7175 18.0743L21.7175 18.0743C22.0402 17.6318 22.3837 17.1608 22.8414 16.8827C23.1592 16.6891 23.5787 16.6083 23.9497 16.6891C24.3873 16.7845 24.6841 17.2368 24.9393 17.6258C24.9997 17.718 25.0578 17.8066 25.115 17.8861L26.024 19.1517L26.038 19.1708C26.178 19.3673 26.1435 19.6421 25.9536 19.7975L24.2717 21.17C24.1112 21.3011 23.8923 21.3002 23.7276 21.1915C23.818 21.5533 24.7445 24.191 25.1793 25.429L25.1794 25.429L25.1794 25.4293C25.2784 25.711 25.3519 25.9202 25.3842 26.0135L25.4514 26.2063H23.6249L23.5563 27.5013C23.5432 27.7547 23.351 27.9628 23.1041 27.9773C22.84 27.9927 22.6136 27.7799 22.5987 27.5013L22.5306 26.2063H20.9159C20.9171 26.1825 20.9243 26.0739 20.9349 25.913L20.9349 25.9128L20.9349 25.9127C20.9781 25.2588 21.0784 23.7414 21.0676 23.5276C21.0586 23.3487 20.8982 23.2022 20.7562 23.0725L20.7562 23.0725L20.7562 23.0725C20.706 23.0266 20.6581 22.9829 20.62 22.9405C20.4464 22.7473 20.2761 22.5252 20.1692 22.2825C20.0731 22.0637 20.0162 21.8289 20.0031 21.5881C19.976 21.0991 20.1282 20.6207 20.3335 20.1886ZM24.0234 18.2599L24.9992 19.3817L23.6865 20.4527C23.6713 20.4655 23.6603 20.481 23.6493 20.4964C23.6434 20.5047 23.6375 20.513 23.631 20.5209C23.6193 20.0715 23.7061 19.6239 23.8097 19.1862C23.8825 18.8777 23.9548 18.5688 24.0234 18.2599Z" fill="#64A3C8"/>
<mask id="mask0_8_8740" style="mask-type:luminance" maskUnits="userSpaceOnUse" x="20" y="14" width="7" height="14">
<path fill-rule="evenodd" clip-rule="evenodd" d="M22.3501 16.548C21.6589 16.548 21.0975 15.9773 21.0975 15.274C21.0975 14.5707 21.6589 14 22.3501 14C23.0417 14 23.6031 14.5707 23.6031 15.274C23.6031 15.9773 23.0417 16.548 22.3501 16.548ZM20.3335 20.1886C20.6448 19.5357 21.0629 18.9421 21.5002 18.3681C21.5723 18.2734 21.6443 18.1746 21.7175 18.0743L21.7175 18.0743C22.0402 17.6318 22.3837 17.1608 22.8414 16.8827C23.1592 16.6891 23.5787 16.6083 23.9497 16.6891C24.3873 16.7845 24.6841 17.2368 24.9393 17.6258L24.9393 17.6258C24.9997 17.718 25.0578 17.8066 25.115 17.8861L26.024 19.1517L26.038 19.1708C26.178 19.3673 26.1435 19.6421 25.9536 19.7975L24.2717 21.17C24.1112 21.3011 23.8923 21.3002 23.7276 21.1915C23.818 21.5533 24.7445 24.1909 25.1793 25.4289L25.1794 25.429C25.2784 25.7109 25.3519 25.9202 25.3842 26.0135L25.4514 26.2063H23.6249L23.5563 27.5013C23.5432 27.7547 23.351 27.9628 23.1041 27.9773C22.84 27.9927 22.6136 27.7799 22.5987 27.5013L22.5306 26.2063H20.9159C20.9171 26.1825 20.9243 26.0739 20.9349 25.9129L20.9349 25.9128C20.9781 25.259 21.0784 23.7414 21.0676 23.5276C21.0586 23.3487 20.8982 23.2021 20.7562 23.0725C20.706 23.0266 20.6581 22.9829 20.62 22.9405C20.4464 22.7473 20.2761 22.5252 20.1692 22.2825C20.0731 22.0637 20.0162 21.8289 20.0031 21.5881C19.976 21.0991 20.1282 20.6207 20.3335 20.1886ZM24.0234 18.2599L24.9992 19.3817L23.6865 20.4527C23.6713 20.4655 23.6603 20.481 23.6493 20.4964C23.6434 20.5047 23.6375 20.513 23.631 20.5209C23.6193 20.0715 23.7061 19.6239 23.8097 19.1862C23.8825 18.8777 23.9548 18.5688 24.0234 18.2599Z" fill="white"/>
</mask>
<g mask="url(#mask0_8_8740)">
<path fill-rule="evenodd" clip-rule="evenodd" d="M22.3501 16.548C21.6589 16.548 21.0975 15.9773 21.0975 15.274C21.0975 14.5707 21.6589 14 22.3501 14C23.0417 14 23.6031 14.5707 23.6031 15.274C23.6031 15.9773 23.0417 16.548 22.3501 16.548ZM20.3335 20.1886C20.6448 19.5357 21.0629 18.9421 21.5002 18.3681C21.5723 18.2734 21.6443 18.1746 21.7175 18.0743L21.7175 18.0743C22.0402 17.6318 22.3837 17.1608 22.8414 16.8827C23.1592 16.6891 23.5787 16.6083 23.9497 16.6891C24.3873 16.7845 24.6841 17.2368 24.9393 17.6258C24.9997 17.718 25.0578 17.8066 25.115 17.8861L26.024 19.1517L26.038 19.1708C26.178 19.3673 26.1435 19.6421 25.9536 19.7975L24.2717 21.17C24.1112 21.3011 23.8923 21.3002 23.7276 21.1915C23.818 21.5533 24.7445 24.191 25.1793 25.429L25.1794 25.429L25.1794 25.4293C25.2784 25.711 25.3519 25.9202 25.3842 26.0135L25.4514 26.2063H23.6249L23.5563 27.5013C23.5432 27.7547 23.351 27.9628 23.1041 27.9773C22.84 27.9927 22.6136 27.7799 22.5987 27.5013L22.5306 26.2063H20.9159C20.9171 26.1825 20.9243 26.0739 20.9349 25.913L20.9349 25.9128L20.9349 25.9127C20.9781 25.2588 21.0784 23.7414 21.0676 23.5276C21.0586 23.3487 20.8982 23.2022 20.7562 23.0725L20.7562 23.0725L20.7562 23.0725C20.706 23.0266 20.6581 22.9829 20.62 22.9405C20.4464 22.7473 20.2761 22.5252 20.1692 22.2825C20.0731 22.0637 20.0162 21.8289 20.0031 21.5881C19.976 21.0991 20.1282 20.6207 20.3335 20.1886ZM24.0234 18.2599L24.9992 19.3817L23.6865 20.4527C23.6713 20.4655 23.6603 20.481 23.6493 20.4964C23.6434 20.5047 23.6375 20.513 23.631 20.5209C23.6193 20.0715 23.7061 19.6239 23.8097 19.1862C23.8825 18.8777 23.9548 18.5688 24.0234 18.2599Z" fill="#64A3C8"/>
<mask id="mask1_8_8740" style="mask-type:luminance" maskUnits="userSpaceOnUse" x="20" y="14" width="7" height="14">
<path fill-rule="evenodd" clip-rule="evenodd" d="M22.3501 16.548C21.6589 16.548 21.0975 15.9773 21.0975 15.274C21.0975 14.5707 21.6589 14 22.3501 14C23.0417 14 23.6031 14.5707 23.6031 15.274C23.6031 15.9773 23.0417 16.548 22.3501 16.548ZM20.3335 20.1886C20.6448 19.5357 21.0629 18.9421 21.5002 18.3681C21.5723 18.2734 21.6443 18.1746 21.7175 18.0743L21.7175 18.0743C22.0402 17.6318 22.3837 17.1608 22.8414 16.8827C23.1592 16.6891 23.5787 16.6083 23.9497 16.6891C24.3873 16.7845 24.6841 17.2368 24.9393 17.6258C24.9997 17.718 25.0578 17.8066 25.115 17.8861L26.024 19.1517L26.038 19.1708C26.178 19.3673 26.1435 19.6421 25.9536 19.7975L24.2717 21.17C24.1112 21.3011 23.8923 21.3002 23.7276 21.1915C23.818 21.5533 24.7445 24.191 25.1793 25.429L25.1794 25.429L25.1794 25.4293C25.2784 25.711 25.3519 25.9202 25.3842 26.0135L25.4514 26.2063H23.6249L23.5563 27.5013C23.5432 27.7547 23.351 27.9628 23.1041 27.9773C22.84 27.9927 22.6136 27.7799 22.5987 27.5013L22.5306 26.2063H20.9159C20.9171 26.1825 20.9243 26.0739 20.9349 25.913L20.9349 25.9128L20.9349 25.9127C20.9781 25.2588 21.0784 23.7414 21.0676 23.5276C21.0586 23.3487 20.8982 23.2022 20.7562 23.0725L20.7562 23.0725L20.7562 23.0725C20.706 23.0266 20.6581 22.9829 20.62 22.9405C20.4464 22.7473 20.2761 22.5252 20.1692 22.2825C20.0731 22.0637 20.0162 21.8289 20.0031 21.5881C19.976 21.0991 20.1282 20.6207 20.3335 20.1886ZM24.0234 18.2599L24.9992 19.3817L23.6865 20.4527C23.6713 20.4655 23.6603 20.481 23.6493 20.4964C23.6434 20.5047 23.6375 20.513 23.631 20.5209C23.6193 20.0715 23.7061 19.6239 23.8097 19.1862C23.8825 18.8777 23.9548 18.5688 24.0234 18.2599Z" fill="white"/>
</mask>
<g mask="url(#mask1_8_8740)">
<rect width="14" height="14" transform="matrix(-1 0 0 1 29.8571 13.9999)" fill="#64A3C8"/>
</g>
</g>
</svg>
