<svg width="30" height="30" viewBox="0 0 30 30" fill="none" xmlns="http://www.w3.org/2000/svg">
<path fill-rule="evenodd" clip-rule="evenodd" d="M20.0115 7.03039C20.0115 9.8075 17.7692 12.0557 15.0004 12.0557C12.2306 12.0557 9.98862 9.8075 9.98862 7.03039C9.98862 4.25401 12.2306 2 15.0004 2C17.7692 2 20.0115 4.25401 20.0115 7.03039ZM23.1868 17.6354L23.2018 17.7002C23.9374 19.2784 25.1022 24.0414 26 28H22.1013L20.2372 21.3517L20.5963 28H9.40329L9.76284 21.3517L7.89871 28H4C4.8978 24.0414 6.06221 19.2784 6.79853 17.7002L6.8136 17.6354V17.6152C8.13698 14.8982 9.46178 13.262 14.4822 13.262H14.4966H14.9853V13.4665L15.0147 13.262H15.5034H15.5182C20.5386 13.262 21.863 14.8982 23.1868 17.6152V17.6354Z" fill="#64A3C8"/>
<path d="M16.9871 21.4372L15.8982 16.5754H14.1018L13.0129 21.4372C12.973 21.6156 13.0271 21.802 13.1563 21.9313L14.6226 23.3975C14.831 23.606 15.1689 23.606 15.3774 23.3975L16.8437 21.9313C16.9729 21.802 17.027 21.6156 16.9871 21.4372Z" fill="white"/>
<path d="M14.1018 16.0875H15.8982L16.6119 14.964C16.8366 14.6103 16.6738 14.1394 16.2785 14H13.7215C13.3262 14.1394 13.1633 14.6103 13.3881 14.964L14.1018 16.0875Z" fill="white"/>
</svg>
