<svg width="30" height="32" viewBox="0 0 30 32" fill="none" xmlns="http://www.w3.org/2000/svg">
<path fill-rule="evenodd" clip-rule="evenodd" d="M6.78981 15.4371L6.08655 16.1403C5.81376 16.4131 5.37213 16.4131 5.10004 16.1403C4.82725 15.8675 4.82725 15.4266 5.10004 15.1538L8.47957 11.7743C8.75167 11.5022 9.1933 11.5022 9.46609 11.7743C9.73818 12.0464 9.73818 12.4887 9.46609 12.7608L8.76283 13.464L11.3624 16.0636L9.38864 18.0373L6.78981 15.4371ZM8.08769 20.9339L14.2593 14.7623C14.5321 14.4895 14.9744 14.4895 15.2472 14.7623C15.5193 15.0344 15.5193 15.476 15.2472 15.7488L14.3312 16.6634L20.4714 22.8037C21.1182 23.4504 21.16 24.4634 20.6137 25.1674L21.0142 25.5678C21.3198 25.8727 21.3198 26.3667 21.0142 26.6723L20.8761 26.8104L22.8909 28.8253C23.0954 29.0297 23.0954 29.3604 22.8909 29.5648C22.6865 29.7692 22.3551 29.7692 22.1507 29.5648L20.1358 27.5506L19.9977 27.6888C19.6935 27.9937 19.1989 27.9937 18.8933 27.6888L18.4928 27.2883C17.7889 27.8346 16.7758 27.792 16.1291 27.146L9.98955 21.0057L9.0742 21.9211C8.80141 22.1932 8.35978 22.1932 8.08769 21.9211C7.8149 21.649 7.8149 21.2067 8.08769 20.9339ZM15.1747 19.1974L14.2523 20.119C14.0479 20.3234 13.7165 20.3234 13.5121 20.119C13.3077 19.9146 13.3077 19.5839 13.5121 19.3795L14.4337 18.4571C14.6382 18.2527 14.9702 18.2527 15.1747 18.4571C15.3784 18.6609 15.3784 18.993 15.1747 19.1974ZM15.5416 21.409L16.4647 20.4874C16.6691 20.283 16.6691 19.9516 16.4647 19.7471C16.2602 19.5427 15.9289 19.5427 15.7244 19.7471L14.8021 20.6688C14.5984 20.8732 14.5984 21.2046 14.8021 21.409C15.0065 21.6134 15.3379 21.6134 15.5416 21.409ZM17.754 21.7767L16.8323 22.6997C16.6279 22.9034 16.2958 22.9034 16.0921 22.6997C15.8877 22.4953 15.8877 22.1632 16.0921 21.9588L17.0144 21.0371C17.2189 20.8327 17.5496 20.8327 17.754 21.0371C17.9584 21.2416 17.9584 21.5723 17.754 21.7767ZM18.1223 23.989L19.044 23.0667C19.2484 22.863 19.2484 22.5309 19.044 22.3264C18.8402 22.1227 18.5082 22.1227 18.3037 22.3264L17.3821 23.2495C17.1777 23.4539 17.1777 23.7846 17.3821 23.989C17.5865 24.1934 17.9179 24.1934 18.1223 23.989Z" fill="#E8A727"/>
<mask id="mask0_10_476" style="mask-type:luminance" maskUnits="userSpaceOnUse" x="4" y="11" width="20" height="19">
<path fill-rule="evenodd" clip-rule="evenodd" d="M6.78981 15.4371L6.08655 16.1403C5.81376 16.4131 5.37213 16.4131 5.10004 16.1403C4.82725 15.8675 4.82725 15.4266 5.10004 15.1538L8.47957 11.7743C8.75167 11.5022 9.1933 11.5022 9.46609 11.7743C9.73818 12.0464 9.73818 12.4887 9.46609 12.7608L8.76283 13.464L11.3624 16.0636L9.38864 18.0373L6.78981 15.4371ZM8.08769 20.9339L14.2593 14.7623C14.5321 14.4895 14.9744 14.4895 15.2472 14.7623C15.5193 15.0344 15.5193 15.476 15.2472 15.7488L14.3312 16.6634L20.4714 22.8037C21.1182 23.4504 21.16 24.4634 20.6137 25.1674L21.0142 25.5678C21.3198 25.8727 21.3198 26.3667 21.0142 26.6723L20.8761 26.8104L22.8909 28.8253C23.0954 29.0297 23.0954 29.3604 22.8909 29.5648C22.6865 29.7692 22.3551 29.7692 22.1507 29.5648L20.1358 27.5506L19.9977 27.6888C19.6935 27.9937 19.1989 27.9937 18.8933 27.6888L18.4928 27.2883C17.7889 27.8346 16.7758 27.792 16.1291 27.146L9.98955 21.0057L9.0742 21.9211C8.80141 22.1932 8.35978 22.1932 8.08769 21.9211C7.8149 21.649 7.8149 21.2067 8.08769 20.9339ZM15.1747 19.1974L14.2523 20.119C14.0479 20.3234 13.7165 20.3234 13.5121 20.119C13.3077 19.9146 13.3077 19.5839 13.5121 19.3795L14.4337 18.4571C14.6382 18.2527 14.9702 18.2527 15.1747 18.4571C15.3784 18.6609 15.3784 18.993 15.1747 19.1974ZM15.5416 21.409L16.4647 20.4874C16.6691 20.283 16.6691 19.9516 16.4647 19.7471C16.2602 19.5427 15.9289 19.5427 15.7244 19.7471L14.8021 20.6688C14.5984 20.8732 14.5984 21.2046 14.8021 21.409C15.0065 21.6134 15.3379 21.6134 15.5416 21.409ZM17.754 21.7767L16.8323 22.6997C16.6279 22.9034 16.2958 22.9034 16.0921 22.6997C15.8877 22.4953 15.8877 22.1632 16.0921 21.9588L17.0144 21.0371C17.2189 20.8327 17.5496 20.8327 17.754 21.0371C17.9584 21.2416 17.9584 21.5723 17.754 21.7767ZM18.1223 23.989L19.044 23.0667C19.2484 22.863 19.2484 22.5309 19.044 22.3264C18.8402 22.1227 18.5082 22.1227 18.3037 22.3264L17.3821 23.2495C17.1777 23.4539 17.1777 23.7846 17.3821 23.989C17.5865 24.1934 17.9179 24.1934 18.1223 23.989Z" fill="white"/>
</mask>
<g mask="url(#mask0_10_476)">
</g>
<path fill-rule="evenodd" clip-rule="evenodd" d="M19.9801 3.09616C20.3686 2.85873 20.8671 2.85873 21.2556 3.09616L21.7087 3.37309C22.3439 3.76133 23.0677 3.84799 23.7947 3.93504C24.0297 3.96318 24.265 3.99135 24.4978 4.02977C24.4978 4.02977 24.5029 4.43743 24.4975 4.6225L24.4511 6.21245C24.4112 7.576 23.8049 8.86902 22.7647 9.80852C22.274 10.2517 21.7664 10.6521 21.1833 10.9847C20.8375 11.182 20.4098 11.1976 20.0491 11.0262C19.3758 10.7061 18.7795 10.3002 18.2351 9.80852C17.1949 8.86902 16.5886 7.576 16.5487 6.21245L16.5024 4.62757C16.497 4.43987 16.5024 4.02977 16.5024 4.02977C16.6914 4.00745 16.884 3.98915 17.0781 3.97072C17.9349 3.8893 18.82 3.80518 19.5462 3.36136L19.9801 3.09616Z" fill="#E8A727"/>
<path d="M21.0651 9.85983C21.2156 9.71154 21.3 9.50508 21.3 9.29354C21.3 9.08418 21.2156 8.87701 21.0651 8.72871C20.9175 8.57969 20.7116 8.49536 20.5 8.49536C20.2891 8.49536 20.0818 8.57969 19.9335 8.72871C19.7844 8.87701 19.7 9.08418 19.7 9.29354C19.7 9.50508 19.7844 9.71154 19.9335 9.85983C20.0818 10.0089 20.2891 10.0954 20.5 10.0954C20.7116 10.0954 20.9175 10.0089 21.0651 9.85983Z" fill="white"/>
<path d="M21.0651 6.26629C21.1723 5.8321 21.3 5.3215 21.3 5.14842C21.3 4.97713 21.2156 4.80762 21.0651 4.68628C20.9175 4.56435 20.7116 4.49536 20.5 4.49536C20.2891 4.49536 20.0818 4.56435 19.9335 4.68628C19.7844 4.80762 19.7 4.97713 19.7 5.14842C19.7 5.3215 19.7 5.31354 19.9335 6.26629C20.1669 7.21904 20.2891 8.09536 20.5 8.09536C20.7116 8.09536 20.8868 6.98847 21.0651 6.26629Z" fill="white"/>
</svg>
