<svg width="30" height="30" viewBox="0 0 30 30" fill="none" xmlns="http://www.w3.org/2000/svg">
<path fill-rule="evenodd" clip-rule="evenodd" d="M27.9148 9.14788L24.0792 2.71123C23.7383 2.13868 23.102 1.78308 22.4211 1.78308C21.7385 1.78308 21.103 2.13868 20.7621 2.71041L16.8828 9.22128C16.5411 9.79383 16.5419 10.505 16.8828 11.0768C17.2237 11.6493 17.86 12.0057 18.5417 12.0057H26.3012H26.3181C27.3668 11.9967 28.2169 11.1673 28.2169 10.1494C28.2169 9.7922 28.1117 9.4472 27.9148 9.14788Z" fill="#DE3A26"/>
<path fill-rule="evenodd" clip-rule="evenodd" d="M23.933 5.18306C24.1771 4.93898 24.5728 4.93898 24.8169 5.18306C25.061 5.42714 25.061 5.82286 24.8169 6.06694L21.0669 9.81694C20.8228 10.061 20.4271 10.061 20.183 9.81694C19.939 9.57286 19.939 9.17714 20.183 8.93306L23.933 5.18306Z" fill="white"/>
<path fill-rule="evenodd" clip-rule="evenodd" d="M24.8169 8.93306C25.061 9.17714 25.061 9.57286 24.8169 9.81694C24.5728 10.061 24.1771 10.061 23.933 9.81694L20.183 6.06694C19.939 5.82286 19.939 5.42714 20.183 5.18306C20.4271 4.93898 20.8228 4.93898 21.0669 5.18306L24.8169 8.93306Z" fill="white"/>
<path fill-rule="evenodd" clip-rule="evenodd" d="M17.6944 22.4082V26.1768C17.7648 27.3878 15.1677 28.3755 12.06 28.3755C8.95234 28.3755 6.35526 27.3878 6.42569 26.1768V22.4082C6.42569 22.4082 10.9323 24.8623 12.2042 24.8623C13.4762 24.8623 17.6944 22.4082 17.6944 22.4082Z" fill="#E0381F"/>
<path fill-rule="evenodd" clip-rule="evenodd" d="M6.42428 18.8955C5.79058 19.3943 5.34587 20.6134 5.25693 22.1096C5.6794 22.3535 5.95734 22.7968 5.95734 23.3177C5.95734 23.8164 5.70163 24.2487 5.31252 24.5036L5.95734 29.3026C5.96846 29.4023 5.9351 29.5021 5.8684 29.5796C5.80169 29.6572 5.70163 29.7016 5.60158 29.7016H3.467C3.36694 29.7016 3.26688 29.6572 3.20018 29.5796C3.13347 29.5021 3.10012 29.4023 3.11124 29.3026L3.75606 24.5036C3.36694 24.2487 3.11124 23.8164 3.11124 23.3177C3.11124 22.7857 3.41141 22.3313 3.83388 22.0875C3.90059 20.7908 4.23411 19.3943 4.9234 18.4301L6.42428 18.8955Z" fill="#E0381F"/>
<path fill-rule="evenodd" clip-rule="evenodd" d="M3.51631 19.2055C2.85507 18.9175 2.85355 17.9801 3.51385 17.69L11.0606 14.3737C11.9088 14.001 12.8743 14.001 13.7225 14.3737L21.2693 17.69C21.9296 17.9801 21.928 18.9175 21.2668 19.2055L13.7127 22.4958C12.8702 22.8628 11.9129 22.8628 11.0704 22.4958L3.51631 19.2055Z" fill="#E0381F"/>
<path fill-rule="evenodd" clip-rule="evenodd" d="M17.6944 22.4082V26.1768C17.7648 27.3878 15.1677 28.3755 12.06 28.3755C8.95234 28.3755 6.35526 27.3878 6.42569 26.1768V22.4082C6.42569 22.4082 10.9323 24.8623 12.2042 24.8623C13.4762 24.8623 17.6944 22.4082 17.6944 22.4082Z" fill="#E0381F"/>
<path fill-rule="evenodd" clip-rule="evenodd" d="M6.42428 18.8955C5.79058 19.3943 5.34587 20.6134 5.25693 22.1096C5.6794 22.3535 5.95734 22.7968 5.95734 23.3177C5.95734 23.8164 5.70163 24.2487 5.31252 24.5036L5.95734 29.3026C5.96846 29.4023 5.9351 29.5021 5.8684 29.5796C5.80169 29.6572 5.70163 29.7016 5.60158 29.7016H3.467C3.36694 29.7016 3.26688 29.6572 3.20018 29.5796C3.13347 29.5021 3.10012 29.4023 3.11124 29.3026L3.75606 24.5036C3.36694 24.2487 3.11124 23.8164 3.11124 23.3177C3.11124 22.7857 3.41141 22.3313 3.83388 22.0875C3.90059 20.7908 4.23411 19.3943 4.9234 18.4301L6.42428 18.8955Z" fill="#E0381F"/>
<path fill-rule="evenodd" clip-rule="evenodd" d="M3.51631 19.2055C2.85507 18.9175 2.85355 17.9801 3.51385 17.69L11.0606 14.3737C11.9088 14.001 12.8743 14.001 13.7225 14.3737L21.2693 17.69C21.9296 17.9801 21.928 18.9175 21.2668 19.2055L13.7127 22.4958C12.8702 22.8628 11.9129 22.8628 11.0704 22.4958L3.51631 19.2055Z" fill="#E0381F"/>
</svg>
