<svg width="30" height="30" viewBox="0 0 30 30" fill="none" xmlns="http://www.w3.org/2000/svg">
<path fill-rule="evenodd" clip-rule="evenodd" d="M6.39802 13.9371L5.69477 14.6403C5.42198 14.9131 4.98035 14.9131 4.70826 14.6403C4.43546 14.3675 4.43546 13.9266 4.70826 13.6538L8.08779 10.2743C8.35988 10.0022 8.80151 10.0022 9.0743 10.2743C9.34639 10.5464 9.34639 10.9887 9.0743 11.2608L8.37105 11.964L10.9706 14.5636L8.99686 16.5373L6.39802 13.9371ZM7.69591 19.4339L13.8675 13.2623C14.1403 12.9895 14.5827 12.9895 14.8554 13.2623C15.1275 13.5344 15.1275 13.976 14.8554 14.2488L13.9394 15.1634L20.0796 21.3037C20.7264 21.9504 20.7682 22.9634 20.222 23.6674L20.6224 24.0678C20.928 24.3727 20.928 24.8667 20.6224 25.1723L20.4843 25.3104L22.4992 27.3253C22.7036 27.5297 22.7036 27.8604 22.4992 28.0648C22.2947 28.2692 21.9633 28.2692 21.7589 28.0648L19.744 26.0506L19.6059 26.1888C19.3017 26.4937 18.8071 26.4937 18.5015 26.1888L18.101 25.7883C17.3971 26.3346 16.384 26.292 15.7373 25.646L9.59777 19.5057L8.68242 20.4211C8.40963 20.6932 7.968 20.6932 7.69591 20.4211C7.42312 20.149 7.42312 19.7067 7.69591 19.4339ZM14.7829 17.6974L13.8606 18.619C13.6561 18.8234 13.3247 18.8234 13.1203 18.619C12.9159 18.4146 12.9159 18.0839 13.1203 17.8795L14.042 16.9571C14.2464 16.7527 14.5785 16.7527 14.7829 16.9571C14.9866 17.1609 14.9866 17.493 14.7829 17.6974ZM15.1499 19.909L16.0729 18.9874C16.2773 18.783 16.2773 18.4516 16.0729 18.2471C15.8685 18.0427 15.5371 18.0427 15.3327 18.2471L14.4103 19.1688C14.2066 19.3732 14.2066 19.7046 14.4103 19.909C14.6147 20.1134 14.9461 20.1134 15.1499 19.909ZM17.3622 20.2767L16.4406 21.1997C16.2361 21.4034 15.904 21.4034 15.7003 21.1997C15.4959 20.9953 15.4959 20.6632 15.7003 20.4588L16.6227 19.5371C16.8271 19.3327 17.1578 19.3327 17.3622 19.5371C17.5666 19.7416 17.5666 20.0723 17.3622 20.2767ZM17.7306 22.489L18.6522 21.5667C18.8566 21.363 18.8566 21.0309 18.6522 20.8264C18.4485 20.6227 18.1164 20.6227 17.912 20.8264L16.9903 21.7495C16.7859 21.9539 16.7859 22.2846 16.9903 22.489C17.1947 22.6934 17.5261 22.6934 17.7306 22.489Z" fill="#E8A727"/>
<mask id="mask0_10_475" style="mask-type:luminance" maskUnits="userSpaceOnUse" x="4" y="10" width="19" height="19">
<path fill-rule="evenodd" clip-rule="evenodd" d="M6.39802 13.9371L5.69477 14.6403C5.42198 14.9131 4.98035 14.9131 4.70826 14.6403C4.43546 14.3675 4.43546 13.9266 4.70826 13.6538L8.08779 10.2743C8.35988 10.0022 8.80151 10.0022 9.0743 10.2743C9.34639 10.5464 9.34639 10.9887 9.0743 11.2608L8.37105 11.964L10.9706 14.5636L8.99686 16.5373L6.39802 13.9371ZM7.69591 19.4339L13.8675 13.2623C14.1403 12.9895 14.5827 12.9895 14.8554 13.2623C15.1275 13.5344 15.1275 13.976 14.8554 14.2488L13.9394 15.1634L20.0796 21.3037C20.7264 21.9504 20.7682 22.9634 20.222 23.6674L20.6224 24.0678C20.928 24.3727 20.928 24.8667 20.6224 25.1723L20.4843 25.3104L22.4992 27.3253C22.7036 27.5297 22.7036 27.8604 22.4992 28.0648C22.2947 28.2692 21.9633 28.2692 21.7589 28.0648L19.744 26.0506L19.6059 26.1888C19.3017 26.4937 18.8071 26.4937 18.5015 26.1888L18.101 25.7883C17.3971 26.3346 16.384 26.292 15.7373 25.646L9.59777 19.5057L8.68242 20.4211C8.40963 20.6932 7.968 20.6932 7.69591 20.4211C7.42312 20.149 7.42312 19.7067 7.69591 19.4339ZM14.7829 17.6974L13.8606 18.619C13.6561 18.8234 13.3247 18.8234 13.1203 18.619C12.9159 18.4146 12.9159 18.0839 13.1203 17.8795L14.042 16.9571C14.2464 16.7527 14.5785 16.7527 14.7829 16.9571C14.9866 17.1609 14.9866 17.493 14.7829 17.6974ZM15.1499 19.909L16.0729 18.9874C16.2773 18.783 16.2773 18.4516 16.0729 18.2471C15.8685 18.0427 15.5371 18.0427 15.3327 18.2471L14.4103 19.1688C14.2066 19.3732 14.2066 19.7046 14.4103 19.909C14.6147 20.1134 14.9461 20.1134 15.1499 19.909ZM17.3622 20.2767L16.4406 21.1997C16.2361 21.4034 15.904 21.4034 15.7003 21.1997C15.4959 20.9953 15.4959 20.6632 15.7003 20.4588L16.6227 19.5371C16.8271 19.3327 17.1578 19.3327 17.3622 19.5371C17.5666 19.7416 17.5666 20.0723 17.3622 20.2767ZM17.7306 22.489L18.6522 21.5667C18.8566 21.363 18.8566 21.0309 18.6522 20.8264C18.4485 20.6227 18.1164 20.6227 17.912 20.8264L16.9903 21.7495C16.7859 21.9539 16.7859 22.2846 16.9903 22.489C17.1947 22.6934 17.5261 22.6934 17.7306 22.489Z" fill="white"/>
</mask>
<g mask="url(#mask0_10_475)">
</g>
<path fill-rule="evenodd" clip-rule="evenodd" d="M21.6473 2.59616C21.2589 2.35873 20.7604 2.35873 20.3719 2.59616L19.938 2.86136C19.2118 3.30518 18.3267 3.3893 17.4699 3.47072C17.2758 3.48915 17.0832 3.50745 16.8942 3.52977C16.8942 3.52977 16.8887 3.93987 16.8942 4.12757L16.9405 5.71245C16.9804 7.076 17.5867 8.36902 18.6269 9.30852C19.1713 9.80017 19.7676 10.2061 20.4409 10.5262C20.8016 10.6976 21.2293 10.682 21.5751 10.4847C22.1582 10.1521 22.6657 9.75173 23.1565 9.30852C24.1966 8.36902 24.803 7.076 24.8429 5.71245L24.8893 4.1225C24.8947 3.93743 24.8896 3.52977 24.8896 3.52977C24.6572 3.49142 24.4222 3.46328 24.1876 3.43518L24.1865 3.43504L24.1864 3.43502C23.4594 3.34798 22.7356 3.26132 22.1004 2.87309L21.6473 2.59616ZM19.0265 6.48524C19.2015 6.31667 19.4801 6.3219 19.6486 6.49693L20.4765 7.35646L22.543 5.32189C22.7162 5.1514 22.9948 5.15358 23.1653 5.32674C23.3358 5.49991 23.3336 5.77849 23.1604 5.94898L20.7768 8.29564C20.6023 8.46745 20.3211 8.46372 20.1512 8.28733L19.0148 7.10739C18.8462 6.93236 18.8515 6.65382 19.0265 6.48524Z" fill="#E8A727"/>
</svg>
