<svg width="36" height="32" viewBox="0 0 36 32" fill="none" xmlns="http://www.w3.org/2000/svg">
<path d="M5.7697 0C2.5697 0 0 2.61818 0 5.7697C0 8.92121 2.66667 13.0424 4.26667 15.2242C4.60606 15.7091 5.18788 16 5.81818 16C6.4 16 6.98182 15.7091 7.3697 15.2242C8.9697 13.0424 11.6364 8.92121 11.6364 5.7697C11.5394 2.5697 8.92121 0 5.7697 0ZM5.7697 13.5273C3.53939 10.3758 2.23031 7.51515 2.23031 5.7697C2.23031 3.8303 3.8303 2.2303 5.7697 2.2303C7.70909 2.2303 9.30909 3.8303 9.30909 5.7697C9.30909 7.51515 8 10.4242 5.7697 13.5273Z" fill="#64A3C8"/>
<path d="M5.76976 7.6606C6.81408 7.6606 7.66066 6.81401 7.66066 5.76969C7.66066 4.72537 6.81408 3.87878 5.76976 3.87878C4.72543 3.87878 3.87885 4.72537 3.87885 5.76969C3.87885 6.81401 4.72543 7.6606 5.76976 7.6606Z" fill="#64A3C8"/>
<path fill-rule="evenodd" clip-rule="evenodd" d="M16.3955 28.8V28.8146H8.06216C7.38753 28.8146 6.94957 28.5708 6.67086 28.2573C6.37707 27.9268 6.21031 27.4599 6.21031 26.9628V23.6426L9.2593 26.6916L10.5687 25.3821L5.28438 20.0977L0 25.3821L1.30947 26.6916L4.35845 23.6426V26.9628C4.35845 27.8545 4.65465 28.7765 5.28678 29.4877C5.93401 30.2158 6.88494 30.6665 8.06216 30.6665H31.2104V26.3735C31.2104 26.3592 31.2102 26.3449 31.21 26.3307V28.8H16.3955Z" fill="#64A3C8"/>
<path fill-rule="evenodd" clip-rule="evenodd" d="M33.4643 21.8837L27.6579 17.7616C27.3539 17.5461 26.9469 17.5461 26.6429 17.7616L20.836 21.8837C20.2861 22.2736 20.5624 23.1403 21.2371 23.1403H22.3336V29.7963C22.3336 30.2187 22.6792 30.5637 23.1016 30.5637H24.9821C25.4045 30.5637 25.7501 30.2187 25.7501 29.7963V28.3584V27.5899C25.7501 26.8171 26.3768 26.1899 27.1501 26.1899C27.9235 26.1899 28.5501 26.8171 28.5501 27.5899V28.3584V29.7963C28.5501 30.2187 28.8963 30.5637 29.3187 30.5637H31.1016C31.524 30.5637 31.8701 30.2187 31.8701 29.7963V23.1403H33.0637C33.7384 23.1403 34.0141 22.2736 33.4643 21.8837Z" fill="#64A3C8"/>
<mask id="mask0_22_3747" style="mask-type:luminance" maskUnits="userSpaceOnUse" x="20" y="17" width="14" height="14">
<path fill-rule="evenodd" clip-rule="evenodd" d="M33.4643 21.8837L27.6579 17.7616C27.3539 17.5461 26.9469 17.5461 26.6429 17.7616L20.836 21.8837C20.2861 22.2736 20.5624 23.1403 21.2371 23.1403H22.3336V29.7963C22.3336 30.2187 22.6792 30.5637 23.1016 30.5637H24.9821C25.4045 30.5637 25.7501 30.2187 25.7501 29.7963V28.3584V27.5899C25.7501 26.8171 26.3768 26.1899 27.1501 26.1899C27.9235 26.1899 28.5501 26.8171 28.5501 27.5899V28.3584V29.7963C28.5501 30.2187 28.8963 30.5637 29.3187 30.5637H31.1016C31.524 30.5637 31.8701 30.2187 31.8701 29.7963V23.1403H33.0637C33.7384 23.1403 34.0141 22.2736 33.4643 21.8837Z" fill="white"/>
</mask>
<g mask="url(#mask0_22_3747)">
<rect x="19.21" y="16" width="16" height="16" fill="#64A3C8"/>
</g>
<path fill-rule="evenodd" clip-rule="evenodd" d="M33.4643 21.8837L27.6579 17.7616C27.3539 17.5461 26.9469 17.5461 26.6429 17.7616L20.836 21.8837C20.2861 22.2736 20.5624 23.1403 21.2371 23.1403H22.3336V29.7963C22.3336 30.2187 22.6792 30.5637 23.1016 30.5637H24.9821C25.4045 30.5637 25.7501 30.2187 25.7501 29.7963V28.3584V27.5899C25.7501 26.8171 26.3768 26.1899 27.1501 26.1899C27.9235 26.1899 28.5501 26.8171 28.5501 27.5899V28.3584V29.7963C28.5501 30.2187 28.8963 30.5637 29.3187 30.5637H31.1016C31.524 30.5637 31.8701 30.2187 31.8701 29.7963V23.1403H33.0637C33.7384 23.1403 34.0141 22.2736 33.4643 21.8837Z" fill="#64A3C8"/>
<mask id="mask1_22_3747" style="mask-type:luminance" maskUnits="userSpaceOnUse" x="20" y="17" width="14" height="14">
<path fill-rule="evenodd" clip-rule="evenodd" d="M33.4643 21.8837L27.6579 17.7616C27.3539 17.5461 26.9469 17.5461 26.6429 17.7616L20.836 21.8837C20.2861 22.2736 20.5624 23.1403 21.2371 23.1403H22.3336V29.7963C22.3336 30.2187 22.6792 30.5637 23.1016 30.5637H24.9821C25.4045 30.5637 25.7501 30.2187 25.7501 29.7963V28.3584V27.5899C25.7501 26.8171 26.3768 26.1899 27.1501 26.1899C27.9235 26.1899 28.5501 26.8171 28.5501 27.5899V28.3584V29.7963C28.5501 30.2187 28.8963 30.5637 29.3187 30.5637H31.1016C31.524 30.5637 31.8701 30.2187 31.8701 29.7963V23.1403H33.0637C33.7384 23.1403 34.0141 22.2736 33.4643 21.8837Z" fill="white"/>
</mask>
<g mask="url(#mask1_22_3747)">
<rect x="19.21" y="16" width="16" height="16" fill="#64A3C8"/>
</g>
</svg>
