<svg width="30" height="30" viewBox="0 0 30 30" fill="none" xmlns="http://www.w3.org/2000/svg">
<path fill-rule="evenodd" clip-rule="evenodd" d="M24 24.4444V10.3889L17.5714 4H8.57143C7.15129 4 6 5.14416 6 6.55556V24.4444C6 25.8558 7.15129 27 8.57143 27H21.4286C22.8487 27 24 25.8558 24 24.4444ZM21.5389 9.75L18.2143 6.44594V9.75H21.5389Z" fill="#E8A727"/>
<path fill-rule="evenodd" clip-rule="evenodd" d="M17.2929 14.2929C17.6834 13.9024 18.3166 13.9024 18.7071 14.2929C19.0976 14.6834 19.0976 15.3166 18.7071 15.7071L12.7071 21.7071C12.3166 22.0976 11.6834 22.0976 11.2929 21.7071C10.9024 21.3166 10.9024 20.6834 11.2929 20.2929L17.2929 14.2929Z" fill="white"/>
<path fill-rule="evenodd" clip-rule="evenodd" d="M18.7071 20.2929C19.0976 20.6834 19.0976 21.3166 18.7071 21.7071C18.3166 22.0976 17.6834 22.0976 17.2929 21.7071L11.2929 15.7071C10.9024 15.3166 10.9024 14.6834 11.2929 14.2929C11.6834 13.9024 12.3166 13.9024 12.7071 14.2929L18.7071 20.2929Z" fill="white"/>
</svg>
