<svg width="30" height="29" viewBox="0 0 30 29" fill="none" xmlns="http://www.w3.org/2000/svg">
<rect x="10.879" y="11.0408" width="8.18182" height="8.18182" rx="4.09091" fill="#64A3C8"/>
<path d="M15.3155 12.8701V13.2796C15.7896 13.3442 16.1559 13.7105 16.1991 14.1847C16.1991 14.2278 16.1991 14.2708 16.1559 14.2924C16.1344 14.3356 16.0913 14.3356 16.0482 14.3356L15.5957 14.3354C15.5311 14.3354 15.4664 14.2923 15.4448 14.2276C15.4233 14.1199 15.3155 14.0337 15.1862 14.0337H14.7768C14.5612 14.0337 14.3673 14.1847 14.3673 14.3786C14.3458 14.4863 14.3888 14.5941 14.4751 14.6802C14.5397 14.7664 14.6475 14.8095 14.7767 14.8095H15.1216C15.4447 14.8095 15.7681 14.9388 15.9835 15.1973C16.199 15.4344 16.3066 15.7576 16.2851 16.0809C16.242 16.5765 15.8542 16.9859 15.3369 17.0937V17.5032C15.3369 17.5893 15.2723 17.6541 15.186 17.6541H14.7334C14.6473 17.6541 14.5825 17.5894 14.5825 17.5032V17.0937C14.1084 17.029 13.7421 16.6627 13.6989 16.1886C13.6989 16.1455 13.6989 16.1025 13.7421 16.0808C13.7636 16.0593 13.8067 16.0377 13.8499 16.0377H14.3025C14.3671 16.0377 14.4317 16.0808 14.4534 16.1455C14.4749 16.2533 14.5827 16.3394 14.7119 16.3394H15.1214C15.337 16.3394 15.5092 16.1885 15.5309 15.9946C15.5524 15.8868 15.5094 15.779 15.4231 15.6929C15.3585 15.6068 15.2507 15.5636 15.1214 15.5636H14.8197C14.1949 15.5636 13.6776 15.111 13.613 14.5293C13.5484 13.9259 13.9578 13.3872 14.5612 13.2794V12.87C14.5612 12.7838 14.6259 12.7191 14.7121 12.7191L15.1647 12.7192C15.2509 12.7192 15.3155 12.7838 15.3155 12.8701Z" fill="white"/>
<path d="M17.3864 12.4281L26.0645 3.75" stroke="#64A3C8" stroke-width="2" stroke-linecap="round"/>
<path d="M17.3864 17.7273L26.0645 26.4054" stroke="#64A3C8" stroke-width="2" stroke-linecap="round"/>
<path d="M3.06818 26.4054L11.7463 17.7273" stroke="#64A3C8" stroke-width="2" stroke-linecap="round"/>
<path d="M3.06818 4.09091L11.7463 12.769" stroke="#64A3C8" stroke-width="2" stroke-linecap="round"/>
<path fill-rule="evenodd" clip-rule="evenodd" d="M18.1982 3.00872L15.2291 0.900813C15.0736 0.790631 14.8655 0.790631 14.7101 0.900813L11.7406 3.00872C11.4594 3.20809 11.6007 3.65127 11.9457 3.65127H12.5064V7.0549C12.5064 7.2709 12.6832 7.44736 12.8992 7.44736H13.8608C14.0768 7.44736 14.2535 7.2709 14.2535 7.0549V6.31963V5.92663C14.2535 5.53145 14.574 5.21072 14.9694 5.21072C15.3649 5.21072 15.6853 5.53145 15.6853 5.92663V6.31963V7.0549C15.6853 7.2709 15.8623 7.44736 16.0783 7.44736H16.9901C17.2061 7.44736 17.3831 7.2709 17.3831 7.0549V3.65127H17.9934C18.3384 3.65127 18.4794 3.20809 18.1982 3.00872" fill="#64A3C8"/>
<mask id="mask0_50_3804" style="mask-type:luminance" maskUnits="userSpaceOnUse" x="11" y="0" width="8" height="8">
<path fill-rule="evenodd" clip-rule="evenodd" d="M18.1982 3.00872L15.2291 0.900813C15.0736 0.790631 14.8655 0.790631 14.7101 0.900813L11.7406 3.00872C11.4594 3.20809 11.6007 3.65127 11.9457 3.65127H12.5064V7.0549C12.5064 7.2709 12.6832 7.44736 12.8992 7.44736H13.8608C14.0768 7.44736 14.2535 7.2709 14.2535 7.0549V6.31963V5.92663C14.2535 5.53145 14.574 5.21072 14.9694 5.21072C15.3649 5.21072 15.6853 5.53145 15.6853 5.92663V6.31963V7.0549C15.6853 7.2709 15.8623 7.44736 16.0783 7.44736H16.9901C17.2061 7.44736 17.3831 7.2709 17.3831 7.0549V3.65127H17.9934C18.3384 3.65127 18.4794 3.20809 18.1982 3.00872" fill="white"/>
</mask>
<g mask="url(#mask0_50_3804)">
<rect x="10.9091" width="8.18182" height="8.18182" fill="#64A3C8"/>
</g>
<path fill-rule="evenodd" clip-rule="evenodd" d="M18.1982 3.00872L15.2291 0.900813C15.0736 0.790631 14.8655 0.790631 14.7101 0.900813L11.7406 3.00872C11.4594 3.20809 11.6007 3.65127 11.9457 3.65127H12.5064V7.0549C12.5064 7.2709 12.6832 7.44736 12.8992 7.44736H13.8608C14.0768 7.44736 14.2535 7.2709 14.2535 7.0549V6.31963V5.92663C14.2535 5.53145 14.574 5.21072 14.9694 5.21072C15.3649 5.21072 15.6853 5.53145 15.6853 5.92663V6.31963V7.0549C15.6853 7.2709 15.8623 7.44736 16.0783 7.44736H16.9901C17.2061 7.44736 17.3831 7.2709 17.3831 7.0549V3.65127H17.9934C18.3384 3.65127 18.4794 3.20809 18.1982 3.00872" fill="#64A3C8"/>
<mask id="mask1_50_3804" style="mask-type:luminance" maskUnits="userSpaceOnUse" x="11" y="0" width="8" height="8">
<path fill-rule="evenodd" clip-rule="evenodd" d="M18.1982 3.00872L15.2291 0.900813C15.0736 0.790631 14.8655 0.790631 14.7101 0.900813L11.7406 3.00872C11.4594 3.20809 11.6007 3.65127 11.9457 3.65127H12.5064V7.0549C12.5064 7.2709 12.6832 7.44736 12.8992 7.44736H13.8608C14.0768 7.44736 14.2535 7.2709 14.2535 7.0549V6.31963V5.92663C14.2535 5.53145 14.574 5.21072 14.9694 5.21072C15.3649 5.21072 15.6853 5.53145 15.6853 5.92663V6.31963V7.0549C15.6853 7.2709 15.8623 7.44736 16.0783 7.44736H16.9901C17.2061 7.44736 17.3831 7.2709 17.3831 7.0549V3.65127H17.9934C18.3384 3.65127 18.4794 3.20809 18.1982 3.00872" fill="white"/>
</mask>
<g mask="url(#mask1_50_3804)">
<rect x="10.9091" width="8.18182" height="8.18182" fill="#64A3C8"/>
</g>
<path fill-rule="evenodd" clip-rule="evenodd" d="M26.235 14.1021C26.235 14.7886 25.6449 15.3453 24.917 15.3453C24.1889 15.3453 23.5987 14.7886 23.5987 14.1021C23.5987 13.4155 24.1889 12.8584 24.917 12.8584C25.6449 12.8584 26.235 13.4155 26.235 14.1021M27.3338 17.2575C27.3338 17.7822 26.9628 18.0961 26.417 18.0961H23.4164C22.8709 18.0961 22.5 17.7822 22.5 17.2575C22.5 16.5256 22.6817 15.4019 23.6877 15.4019C23.7944 15.4019 24.2441 15.8519 24.9167 15.8519C25.5897 15.8519 26.0397 15.4019 26.1457 15.4019C27.1517 15.4019 27.3338 16.5256 27.3338 17.2575M26.9397 14.1021C26.9397 13.3861 26.4914 12.7691 25.8481 12.4906C26.0843 12.1541 26.4886 11.9318 26.9482 11.9318C27.676 11.9318 28.2661 12.4892 28.2661 13.1758C28.2661 13.8621 27.676 14.4191 26.9482 14.4191C26.9352 14.4191 26.9226 14.4174 26.9097 14.4171C26.9294 14.3148 26.9397 14.2094 26.9397 14.1021M28.1768 14.4757C29.1828 14.4757 29.3649 15.5993 29.3649 16.3313C29.3649 16.8559 28.994 17.1699 28.4482 17.1699H28.0364C28.0145 15.931 27.5359 15.1241 26.7256 14.9253C26.7283 14.9202 26.731 14.9148 26.7338 14.9097C26.8026 14.9196 26.8735 14.9257 26.9482 14.9257C27.6208 14.9257 28.0708 14.4757 28.1768 14.4757" fill="#64A3C8"/>
<mask id="mask2_50_3804" style="mask-type:luminance" maskUnits="userSpaceOnUse" x="22" y="11" width="8" height="8">
<path fill-rule="evenodd" clip-rule="evenodd" d="M26.235 14.1021C26.235 14.7886 25.6449 15.3453 24.917 15.3453C24.1889 15.3453 23.5987 14.7886 23.5987 14.1021C23.5987 13.4155 24.1889 12.8584 24.917 12.8584C25.6449 12.8584 26.235 13.4155 26.235 14.1021M27.3338 17.2575C27.3338 17.7822 26.9628 18.0961 26.417 18.0961H23.4164C22.8709 18.0961 22.5 17.7822 22.5 17.2575C22.5 16.5256 22.6817 15.4019 23.6877 15.4019C23.7944 15.4019 24.2441 15.8519 24.9167 15.8519C25.5897 15.8519 26.0397 15.4019 26.1457 15.4019C27.1517 15.4019 27.3338 16.5256 27.3338 17.2575M26.9397 14.1021C26.9397 13.3861 26.4914 12.7691 25.8481 12.4906C26.0843 12.1541 26.4886 11.9318 26.9482 11.9318C27.676 11.9318 28.2661 12.4892 28.2661 13.1758C28.2661 13.8621 27.676 14.4191 26.9482 14.4191C26.9352 14.4191 26.9226 14.4174 26.9097 14.4171C26.9294 14.3148 26.9397 14.2094 26.9397 14.1021M28.1768 14.4757C29.1828 14.4757 29.3649 15.5993 29.3649 16.3313C29.3649 16.8559 28.994 17.1699 28.4482 17.1699H28.0364C28.0145 15.931 27.5359 15.1241 26.7256 14.9253C26.7283 14.9202 26.731 14.9148 26.7338 14.9097C26.8026 14.9196 26.8735 14.9257 26.9482 14.9257C27.6208 14.9257 28.0708 14.4757 28.1768 14.4757" fill="white"/>
</mask>
<g mask="url(#mask2_50_3804)">
<rect x="21.8182" y="10.9091" width="8.18182" height="8.18182" fill="#64A3C8"/>
</g>
<path fill-rule="evenodd" clip-rule="evenodd" d="M26.235 14.1021C26.235 14.7886 25.6449 15.3453 24.917 15.3453C24.1889 15.3453 23.5987 14.7886 23.5987 14.1021C23.5987 13.4155 24.1889 12.8584 24.917 12.8584C25.6449 12.8584 26.235 13.4155 26.235 14.1021M27.3338 17.2575C27.3338 17.7822 26.9628 18.0961 26.417 18.0961H23.4164C22.8709 18.0961 22.5 17.7822 22.5 17.2575C22.5 16.5256 22.6817 15.4019 23.6877 15.4019C23.7944 15.4019 24.2441 15.8519 24.9167 15.8519C25.5897 15.8519 26.0397 15.4019 26.1457 15.4019C27.1517 15.4019 27.3338 16.5256 27.3338 17.2575M26.9397 14.1021C26.9397 13.3861 26.4914 12.7691 25.8481 12.4906C26.0843 12.1541 26.4886 11.9318 26.9482 11.9318C27.676 11.9318 28.2661 12.4892 28.2661 13.1758C28.2661 13.8621 27.676 14.4191 26.9482 14.4191C26.9352 14.4191 26.9226 14.4174 26.9097 14.4171C26.9294 14.3148 26.9397 14.2094 26.9397 14.1021M28.1768 14.4757C29.1828 14.4757 29.3649 15.5993 29.3649 16.3313C29.3649 16.8559 28.994 17.1699 28.4482 17.1699H28.0364C28.0145 15.931 27.5359 15.1241 26.7256 14.9253C26.7283 14.9202 26.731 14.9148 26.7338 14.9097C26.8026 14.9196 26.8735 14.9257 26.9482 14.9257C27.6208 14.9257 28.0708 14.4757 28.1768 14.4757" fill="#64A3C8"/>
<mask id="mask3_50_3804" style="mask-type:luminance" maskUnits="userSpaceOnUse" x="22" y="11" width="8" height="8">
<path fill-rule="evenodd" clip-rule="evenodd" d="M26.235 14.1021C26.235 14.7886 25.6449 15.3453 24.917 15.3453C24.1889 15.3453 23.5987 14.7886 23.5987 14.1021C23.5987 13.4155 24.1889 12.8584 24.917 12.8584C25.6449 12.8584 26.235 13.4155 26.235 14.1021M27.3338 17.2575C27.3338 17.7822 26.9628 18.0961 26.417 18.0961H23.4164C22.8709 18.0961 22.5 17.7822 22.5 17.2575C22.5 16.5256 22.6817 15.4019 23.6877 15.4019C23.7944 15.4019 24.2441 15.8519 24.9167 15.8519C25.5897 15.8519 26.0397 15.4019 26.1457 15.4019C27.1517 15.4019 27.3338 16.5256 27.3338 17.2575M26.9397 14.1021C26.9397 13.3861 26.4914 12.7691 25.8481 12.4906C26.0843 12.1541 26.4886 11.9318 26.9482 11.9318C27.676 11.9318 28.2661 12.4892 28.2661 13.1758C28.2661 13.8621 27.676 14.4191 26.9482 14.4191C26.9352 14.4191 26.9226 14.4174 26.9097 14.4171C26.9294 14.3148 26.9397 14.2094 26.9397 14.1021M28.1768 14.4757C29.1828 14.4757 29.3649 15.5993 29.3649 16.3313C29.3649 16.8559 28.994 17.1699 28.4482 17.1699H28.0364C28.0145 15.931 27.5359 15.1241 26.7256 14.9253C26.7283 14.9202 26.731 14.9148 26.7338 14.9097C26.8026 14.9196 26.8735 14.9257 26.9482 14.9257C27.6208 14.9257 28.0708 14.4757 28.1768 14.4757" fill="white"/>
</mask>
<g mask="url(#mask3_50_3804)">
<rect x="21.8182" y="10.9091" width="8.18182" height="8.18182" fill="#64A3C8"/>
</g>
<path d="M19.0543 24.5296L17.8923 22.6617L18.3313 22.5584C18.4518 22.5326 18.5465 22.4293 18.5379 22.3002C18.5293 22.1367 18.3829 22.0334 18.228 22.0678L15.7748 22.6273C15.6716 22.5154 15.5338 22.4379 15.3789 22.4121V22.0678C15.3789 21.9301 15.267 21.8182 15.1293 21.8182H14.871C14.7333 21.8182 14.6214 21.9301 14.6214 22.0678V22.4121C14.3202 22.4551 14.0878 22.7048 14.0619 23.0146L11.6518 23.5655C11.5141 23.5999 11.4366 23.7291 11.4624 23.8668C11.4883 23.9787 11.5916 24.0648 11.7035 24.0648C11.7207 24.0648 11.7379 24.0648 11.7551 24.0561L11.9875 24.0045L10.946 25.7088C10.903 25.7863 10.8943 25.8723 10.9374 25.9498C11.2128 26.5007 11.7723 26.8536 12.3921 26.8536C13.0118 26.8536 13.5713 26.5093 13.8381 25.9498C13.8726 25.8723 13.8726 25.7777 13.8295 25.7088L12.6847 23.8496L14.2341 23.4967C14.3374 23.6086 14.4751 23.686 14.63 23.7118V27.5336H13.8295C13.5713 27.5336 13.3647 27.7402 13.3647 27.9984V28.205C13.3647 28.248 13.3992 28.2825 13.4422 28.2825H16.5753C16.6184 28.2825 16.6528 28.248 16.6528 28.205V27.9984C16.6528 27.7402 16.4462 27.5336 16.188 27.5336H15.3875V23.7118C15.6888 23.6688 15.9212 23.4192 15.947 23.1093L17.2381 22.808L16.1794 24.5296C16.1364 24.607 16.1278 24.6931 16.1708 24.7706C16.4462 25.3215 17.0057 25.6744 17.6255 25.6744C18.2452 25.6744 18.8047 25.3301 19.0802 24.7706C19.0974 24.7017 19.0974 24.607 19.0543 24.5296ZM13.227 25.683H11.5485L12.3835 24.3316L13.227 25.683ZM16.7733 24.5037L17.6083 23.1524L18.4432 24.5037H16.7733Z" fill="#64A3C8"/>
<path d="M7.02279 18.6755C7.06955 18.7301 7.03069 18.8144 6.95857 18.8144L1.22325 18.8141C1.15113 18.8141 1.11227 18.7301 1.15903 18.6751C1.88879 17.8176 2.96003 17.3197 4.0903 17.3197C5.22116 17.3197 6.29271 17.8173 7.02279 18.6755ZM8.068 11.998C7.36853 11.861 6.65522 11.9377 6.00355 12.2199C5.10815 12.6078 4.41458 13.3498 4.09118 14.2629C3.51126 12.6401 1.8341 11.663 0.113696 11.9979C0.0372949 12.0128 -0.0124321 12.0869 0.00271738 12.1626C0.266827 13.4904 1.5449 14.3183 2.83215 14.066C3.09131 14.0153 3.33567 13.9244 3.5619 13.7953C3.74796 14.1085 3.8787 14.4484 3.95017 14.807V17.0749H4.23074L4.23107 14.807C4.30253 14.4484 4.43359 14.1088 4.61868 13.7953C4.98257 14.0021 5.39553 14.1111 5.81344 14.1111C6.94236 14.1111 7.95461 13.3119 8.17919 12.1626C8.19401 12.0869 8.14462 12.0128 8.06789 11.998H8.068Z" fill="#64A3C8"/>
</svg>
