<svg width="30" height="30" viewBox="0 0 30 30" fill="none" xmlns="http://www.w3.org/2000/svg">
<g clip-path="url(#clip0_9_8748)">
<path d="M17.994 5.66139C19.532 5.26881 20.4601 3.70219 20.0666 2.16322C19.6739 0.625197 18.1078 -0.302928 16.5689 0.0901773C15.0304 0.483693 14.1032 2.04944 14.4963 3.58793C14.8893 5.12684 16.4555 6.05449 17.994 5.66139Z" fill="#64A3C8"/>
<path d="M20.6559 13.0638L20.4199 15.5401C20.8063 15.7922 21.1673 16.0805 21.4935 16.4058C22.6942 17.6082 23.4335 19.2574 23.434 21.0904C23.4335 22.9233 22.6942 24.5725 21.4935 25.7749C20.291 26.9757 18.6418 27.7145 16.8089 27.7154C14.976 27.7145 13.3268 26.9757 12.1243 25.7749C11.2712 24.9205 10.6577 23.8384 10.3699 22.6275L9.07013 25.4939C10.6037 28.1831 13.4915 29.9991 16.809 29.9999C21.73 29.999 25.7177 26.0114 25.7186 21.0903C25.7181 17.5494 23.6477 14.501 20.6559 13.0638Z" fill="#64A3C8"/>
<path d="M14.8625 20.5469C17.38 20.5192 18.57 19.4622 18.8283 17.0269L19.5583 9.37957C19.6761 8.0901 18.8988 6.95854 17.6085 6.84076C16.7816 6.76494 15.8951 7.18342 15.3744 7.73268L11.7829 11.267L8.02557 11.5829C7.42141 11.6338 6.95734 12.1384 6.95734 12.7444V12.8145C6.95734 13.4579 7.47941 13.9799 8.12283 13.9799H12.5545L14.5699 12.4922L14.233 16.2216L9.324 16.5798C7.8993 16.6361 7.27106 17.2072 6.73475 18.4869L4.41807 24.8518C4.06733 25.6318 4.41537 26.55 5.19625 26.9007C5.97795 27.2519 6.89535 26.9034 7.24557 26.123L9.85674 20.5468H14.8625V20.5469Z" fill="#64A3C8"/>
</g>
<defs>
<clipPath id="clip0_9_8748">
<rect width="30" height="30" fill="white"/>
</clipPath>
</defs>
</svg>
