<svg width="30" height="30" viewBox="0 0 30 30" fill="none" xmlns="http://www.w3.org/2000/svg">
<path d="M14.4882 12.8594L12.1275 12.5988L11.1558 11.6261C11.1034 11.5736 11.0275 11.5468 10.956 11.5556L9.57938 11.7179L9.35271 11.4912L11.8666 7.572C11.8666 7.572 12.2036 6.82344 11.7425 6.68753C11.3822 6.58206 9.92576 7.57323 9.30845 8.00981L8.77711 5.17801C8.75216 5.04612 8.62739 4.96036 8.49319 4.98363C8.3613 5.00859 8.27429 5.13565 8.29882 5.26755L8.94715 8.72272L8.83917 9.41867L6.95138 7.53088L5.6094 4.15327C5.55991 4.02872 5.41858 3.96771 5.29319 4.01719C5.16906 4.06667 5.10762 4.208 5.15711 4.33276L6.51755 7.75567C6.53013 7.78545 6.54796 7.81417 6.57123 7.83808L8.68968 9.95777C8.70646 9.97328 8.72973 9.9714 8.74986 9.9823L8.62762 10.7671L6.22923 8.36875C5.9883 8.12909 5.59936 8.12909 5.35968 8.36875C5.12001 8.60968 5.12001 8.99804 5.35968 9.2383L7.75029 11.6289L6.98391 11.7476C6.97321 11.7285 6.97552 11.7036 6.95895 11.688L4.83798 9.56894C4.81471 9.54567 4.78724 9.52847 4.75621 9.51589L1.33271 8.15545C1.21046 8.10596 1.06787 8.16614 1.01713 8.29153C0.967645 8.41671 1.02908 8.55804 1.15364 8.60711L4.5306 9.94785L6.42005 11.8356L5.72807 11.9436L2.267 11.2946C2.13825 11.2707 2.00825 11.3573 1.98308 11.4897C1.95813 11.6209 2.04515 11.748 2.17746 11.7729L5.00925 12.3043C4.57437 12.9197 3.58192 14.3787 3.68697 14.7389C3.82243 15.201 4.58524 14.8773 4.58524 14.8773L8.48117 12.3594L8.71728 12.5955L8.55855 13.9542C8.54953 14.0276 8.57532 14.1016 8.62774 14.1547L9.59982 15.1268L9.86235 17.4864C9.8766 17.6109 9.98166 17.7023 10.1039 17.7023C10.1135 17.7023 10.1217 17.7023 10.1314 17.7004C10.2649 17.6868 10.3603 17.565 10.3461 17.4327L10.0735 14.9867C10.0676 14.9324 10.0425 14.8813 10.0037 14.8425L9.05462 13.8934L9.15485 13.0345L9.34273 13.2212C9.4633 13.3411 9.62015 13.4013 9.77762 13.4013C9.85457 13.4013 9.93153 13.3864 10.0043 13.3573L11.073 14.425C11.1202 14.4728 11.1827 14.4954 11.2448 14.4954C11.3068 14.4954 11.3689 14.4728 11.4171 14.425C11.5119 14.3302 11.5119 14.1763 11.4165 14.0809L10.3484 13.0144C10.436 12.7932 10.392 12.532 10.2123 12.3518L10.016 12.1562L10.894 12.0537L11.843 13.0031C11.8824 13.0426 11.9332 13.0675 11.9879 13.0736L14.4333 13.3439C14.4423 13.3458 14.4511 13.3458 14.4601 13.3458C14.5823 13.3458 14.688 13.2539 14.7017 13.1298C14.7176 12.9954 14.6209 12.8754 14.488 12.8593L14.4882 12.8594Z" fill="#64A3C8"/>
<path fill-rule="evenodd" clip-rule="evenodd" d="M24.1166 17.8081C24.1166 19.6365 22.6324 21.1207 20.8034 21.1207C18.9744 21.1207 17.4908 19.6365 17.4908 17.8081C17.4908 15.979 18.9744 14.4949 20.8034 14.4949C22.6324 14.4949 24.1166 15.979 24.1166 17.8081ZM26.2017 23.4026C26.4238 23.8097 26.5942 24.2471 26.6989 24.6995C26.8548 25.3747 26.885 26.2093 26.6774 26.8792C26.5105 27.416 26.0411 27.8475 25.523 28.036C25.2363 28.1401 24.9309 28.1831 24.6268 28.1831H20.7925H16.9577C16.6541 28.1831 16.3488 28.1401 16.0621 28.036C15.5433 27.8475 15.0746 27.416 14.9076 26.8792C14.7 26.2093 14.7303 25.3747 14.8861 24.6995C14.9902 24.2471 15.1612 23.8097 15.3834 23.4026C15.9318 22.4006 16.8669 21.5079 18.0591 21.4305C18.8198 22.008 19.7666 22.3523 20.7925 22.3547C21.8178 22.3523 22.7652 22.008 23.5259 21.4305C24.7175 21.5079 25.6527 22.4006 26.2017 23.4026Z" fill="#64A3C8"/>
</svg>
